<svg xmlns="http://www.w3.org/2000/svg" viewBox="0 0 970.41 353.32"><defs><style>.cls-1{fill:#3c3f41;}</style></defs><title>Fichier 1</title><g id="Calque_2" data-name="Calque 2"><g id="Calque_1-2" data-name="Calque 1"><path class="cls-1" d="M158.75,11.13h50.82l42.11,116.64L294.27,11.13h51.3l-59,152.94L338.32,290.4l107-280.72h59L363,353.32H316.05L252.16,199.41,187.79,353.32H141.33L0,9.68H58.56L166.5,290.4l50.82-126.32Z"/><path class="cls-1" d="M537.23,58.56V0h53.24V58.56Zm0,294.76V100.19h53.24V353.32Z"/><path class="cls-1" d="M829.09,353.32,748.26,236.68l-42.11,39.69v77H652.91V0h53.24V224.09L822.79,100.67h57.6l-97.77,106L886.2,353.32Z"/><path class="cls-1" d="M917.17,58.56V0h53.24V58.56Zm0,294.76V100.19h53.24V353.32Z"/></g></g></svg>