<svg xmlns="http://www.w3.org/2000/svg" viewBox="0 0 1000.19 1000.2"><defs><style>.cls-1{fill:#a278cc;}.cls-2{fill:#c894fc;}.cls-3{fill:#291f33;}.cls-4{fill:#221e27;}.cls-5{fill:#30223e;}.cls-6{fill:#352347;}</style></defs><title>Fichier 12</title><g id="Calque_2" data-name="Calque 2"><g id="Calque_1-2" data-name="Calque 1"><path class="cls-1" d="M1001,370q0,313.25.09,626.5c0,3.75-.84,4.59-4.59,4.59q-495.5-.15-991,0c-3.75,0-4.6-.84-4.59-4.59Q1.07,697.75,1,399l74.81-.06c.08,2.15.22,4.3.22,6.45q.09,36.81.15,73.63c0,2.16-.13,4.33-.14,6.49Q76,697.18,76,908.84c0,4.83.12,9.67-.06,14.49-.11,2.73.62,3.86,3.58,3.75,6.49-.25,13-.18,19.48-.24h3c2,.05,4,.15,6,.15q406.74,0,813.48.17c4.64,0,5.67-1.26,5.67-5.74q-.22-272.24-.18-544.49c0-2.33.14-4.65.21-7Z" transform="translate(-0.91 -0.89)"/><path class="cls-2" d="M75.81,398.94,1,399Q1,202.31.92,5.61C.92,2.07,1.39.89,5.39.89Q501,1.07,996.61.89c4,0,4.48,1.16,4.48,4.71q-.15,182.2-.08,364.4l-73.82-.05c0-1.5-.09-3-.09-4.5q0-141.73.08-283.46c0-5.09-1.25-6.15-6.21-6.14q-415.45.21-830.9.19c-4.59,0-11.07-2.13-13.29.91s-.58,9.24-.62,14c-.06,1.66-.16,3.32-.17,5q0,103.74-.06,207.48Q75.91,351.2,75.81,398.94Z" transform="translate(-0.91 -0.89)"/><path class="cls-3" d="M75.81,398.94q.06-47.74.12-95.49Q76,199.71,76,96c0-1.66.11-3.32.17-5,.72-.38,1.73-.57,2.13-1.17,4.92-7.41,12.15-8.94,20.47-8.88,63.8.47,127.6-.74,191.4,1,10.93.3,21.86-.39,32.84-.15,50.79,1.13,101.59-.49,152.4,1.07,43.78,1.35,87.59-.42,131.41,1,43.44,1.4,86.93-.81,130.4,1.07,24.11,1,48.26,0,72.41.85,31.1,1.06,62.27,0,93.4,1.21,11.09.42,17.56,6.12,16.84,17.13-1,15.61-.92,31.24-1.6,46.85-1,22.25-1.22,44.55-2.14,66.82-.88,21.43-1.17,42.89-1.95,64.33-.77,21.27-.33,42.62-2.34,63.81-1.31,13.79-1.07,27.61-1.41,41.36-.54,21.3-4.59,42.37-3.51,63.73.18,3.56-.11,7.47-2.81,10.35q-10.75,11.47-21.72,22.75c-3.34,3.43-5.33,3.2-6.79-1.28a93.54,93.54,0,0,0-13-25.07,254.81,254.81,0,0,0-21-26.5c-11.18-12.07-24.85-21-39.78-27.81a157.71,157.71,0,0,0-33.6-11.17c-12.37-2.55-25-2.46-37.63-2.45a157.64,157.64,0,0,0-72.05,17.5c-29,14.69-50.8,37-66.12,65.34-17.76,32.85-25.49,68.2-24.53,105.63A250.31,250.31,0,0,0,572,615.89a149.48,149.48,0,0,0,23.12,58c11.58,17.11,24.6,33.56,43,44.47a16.54,16.54,0,0,1,4.24,3.44c4,4.77,9.13,7.57,14.86,9.7,6.9,2.56,7.21,4.38,2.18,9.63-8.43,8.78-17.07,17.4-25.73,25.89C620.45,780,607.47,793,594.46,806c-5.5,5.5-11.36,10.65-16.85,16.16-9.61,9.67-18.94,19.61-28.62,29.21-4.69,4.65-10.36,8.36-14.8,13.21-8.14,8.9-16.08,18-24.8,26.34-3.22,3.08-6.34,6.22-9.47,9.38-6.44,6.49-13.4,12.55-23.87,10.78a29.35,29.35,0,0,0-9.47.15c-25.33,4.17-51,3.56-76.51,5.51-18.7,1.43-37.53.75-56.33,1.88-22.71,1.37-45.54,1.21-68.31,2.32-14.79.72-29.59,0-44.42.8-19.59,1.05-39.26.47-58.9,1.07-15.13.46-30.25,1.42-45.41,1.47-4.74,0-10.31-1.11-14.68,2.55H99c-1.22-2.57-3.94-2.26-6-3-6.17-2.05-9.28-6.65-9.77-12.63-.46-5.62-.9-11.27-1.11-16.9-.66-18.12.13-36.25-.88-54.41-1.33-23.92,0-47.91-1-71.89-1.41-33.59-.64-67.26-.88-100.88C78.9,606.38,77.51,545.6,78,484.8c0-1.16,0-2.33-.12-3.49A2.7,2.7,0,0,0,76.18,479q-.07-36.81-.15-73.63C76,403.24,75.89,401.09,75.81,398.94ZM410,382a18,18,0,0,1-1.05-2.2q-15.28-46.92-30.53-93.85c2.14,0,4.08.6,5,2.67,2.21,5.19,6.06,9.49,7.76,15,1.79,5.82,3.27,11.66,5.79,17.35,4.63,10.47,8.2,21.45,11.67,32.39,7.1,22.41,16,44.16,23.73,66.34,3.27,9.41,6.82,18.77,10.33,28.12,5.32,14.17,11,28.23,15.86,42.56,3.59,10.58,8.56,20.56,12.15,31.14,5.21,15.36,14.38,29,20.13,44.19.41,1.08.64,2.38,2,2.61s2-1,2.53-2a13.84,13.84,0,0,1,3.63-4c4.94-4.44,10.13-8.69,14.48-13.65a302.63,302.63,0,0,1,26-26c3.15-2.82,4.82-6.56,8.15-9.26,9-7.33,17.9-15,22.33-26.29,7.88-20,18.49-38.08,33.13-54.15,17.93-19.67,37.84-36,63.2-44.81a55.12,55.12,0,0,0,22.87-15.44c4.48-4.91,8.94-9.85,13.67-14.5,7.4-7.28,15.07-14.28,22.44-21.6,4.13-4.1,7.46-8.94,11.77-12.72a230.14,230.14,0,0,0,18.25-17.71c9.28-10.16,19.64-19.21,28.9-29.42,7-7.69,15.18-14.37,22.38-21.94,7.88-8.28,15.7-16.61,24.37-24a61.21,61.21,0,0,0,9.5-10.11,66.07,66.07,0,0,1,9.9-10.4c7.9-6.84,15-14.43,22.37-21.83,6.76-6.83,13-14.14,20.51-20.24,7.79-6.37,13.51-13.46,12-24.65-.64-4.8.86-9.88,1.38-14.84.76-7.26,3.11-14.31,2.47-21.76-.49-5.67-2.28-7.61-8-7.95-3.15-.19-6.27-.79-9.42-.93-23.75-1.05-47.49-2.31-71.25-3-22.44-.62-44.89.21-67.35-1.84-16.36-1.49-32.91-.08-49.4-1.08-19.59-1.19-39.25.26-58.91-1-20.75-1.3-41.59.25-62.41-1-20.59-1.26-41.25-.08-61.91-.94-32.6-1.36-65.25.19-97.9-1-36.44-1.38-72.92.29-109.41-1-40.1-1.4-80.26.32-120.4-1-30.46-1-61-.21-91.48-.2C87.07,86,80.84,92,81,106c.48,35.63-.53,71.26.77,106.91,1.41,38.6-.41,77.26,1,115.9,1.35,36.1-.48,72.26,1,108.41,1.34,32.77-.69,65.6,1.05,98.41,1.11,20.94-.08,41.92.87,62.92,1.11,24.59,0,49.27,1.2,73.9.74,15.79-.08,31.59.81,47.42,1.12,20.07,1.11,40.22,1.85,60.33,1.17,31.74.95,63.55,2.43,95.31.49,10.62,1.32,21.22,2,31.83.28,4.16,2.61,6.43,6.74,6.54,4.66.12,9.38.44,14-.1,19.5-2.28,39.09-2.83,58.67-3.76,3.58-.17,6.58-1.11,8.81-3.87,5.56-6.87,13.44-11.24,19-18.25,2.61-3.27,5-7.11,8.46-9.66a83.72,83.72,0,0,0,18-17.82c3.13-4.3,8.28-6.28,11-10.55A51,51,0,0,1,250,838c8.88-7.1,16.62-15.43,24.38-23.49,7.31-7.59,15.58-14.17,22.24-22.64,8.9-11.33,21.24-19.55,30.68-30.8,9.64-11.49,21.46-21.14,32.17-31.76,12-11.94,23.88-24.09,35.9-36,2.42-2.41,3.52-5.24,2.31-8.14-4.08-9.77-3.09-20.75-7.56-30.39a8.18,8.18,0,0,1-.89-3.36c.1-9.89-3.72-18.88-6.41-28.12-2-6.9-5.06-9.64-11.34-10.11-10.44-.78-20.89-2-31.33-1.95-20.82.15-41.59-1.78-62.41-1.18-8.89.26-12.95,2.8-15.54,11.16-4.18,13.52-8.26,27.07-12.08,40.69-4.59,16.35-8.17,33-13.9,49-3.78,10.56-10.12,18.8-21.72,21.45A60,60,0,0,1,201.13,734c-11.15,0-22.24-1.42-33.42-1.1a138.71,138.71,0,0,1-18.9-1.1c-10.12-1.11-17.82-7.6-19.39-16.61-.91-5.22-1.12-10.63.63-15.83,5-14.67,10.11-29.28,15-44,6.77-20.57,12.95-41.35,20.08-61.79q13.59-38.92,26.3-78.13c12.76-39.11,25.83-78.11,38.67-117.19,9.61-29.27,20.55-58.09,29.23-87.67a99.16,99.16,0,0,1,8.07-19.33c1.29-2.39,2.67-4.65,5.62-5.27-6.14,22.24-13.71,44-20.74,66q-57.38,179.27-115,358.48c-1.07,3.32.21,3.66,2.74,3.68.1,3.59,2.68,5.14,5.41,6.53,5.83,3,12.26,3,18.52,3.21,12.15.33,24.32.11,36.48.09,14.12,0,22.4-5.74,27.38-19,.88-2.33,1.52-4.76,2.23-7.15,7.84-26.32,15.51-52.7,23.58-79,4.06-13.23,11-17.69,24.78-18,27.47-.58,54.91,1.41,82.38,1.05,2.5,0,5,0,7.5,0,15,0,21.56,4.54,26.16,18.92,5.47,17.13,10.5,34.39,15.71,51.6,3.81,12.58,6.92,25.37,12,37.54,3.6,8.58,9.44,14.51,18.61,16.53a64.6,64.6,0,0,0,12.86,1.36c12.32.18,24.66-.26,37,.2,6.86.25,13.58.51,20.11-1.9,7.26-2.68,11.1-8.29,11.33-16,.24-8.21-2.59-15.73-5.23-23.25-11.89-33.93-24-67.78-35.82-101.73-8.93-25.63-17.56-51.36-26.31-77.05Q435.1,450.77,415.5,393.33C414.14,389.39,413.78,384.8,410,382Z" transform="translate(-0.91 -0.89)"/><path class="cls-4" d="M102,926.84c4.37-3.66,9.94-2.53,14.68-2.55,15.16,0,30.28-1,45.41-1.47,19.64-.6,39.31,0,58.9-1.07,14.83-.8,29.64-.08,44.42-.8,22.77-1.11,45.6-.95,68.31-2.32,18.8-1.13,37.63-.45,56.33-1.88,25.49-1.95,51.18-1.34,76.51-5.51a29.35,29.35,0,0,1,9.47-.15c10.46,1.76,17.43-4.3,23.87-10.78,3.13-3.15,6.25-6.29,9.47-9.38,8.72-8.33,16.66-17.44,24.8-26.34,4.44-4.85,10.11-8.56,14.8-13.21,9.68-9.59,19-19.54,28.62-29.21C583.1,816.65,589,811.5,594.46,806c13-13,26-26,39.13-38.92,8.66-8.49,17.3-17.11,25.73-25.89,5-5.25,4.73-7.07-2.18-9.63-5.73-2.13-10.87-4.92-14.86-9.7a16.54,16.54,0,0,0-4.24-3.44c-18.37-10.91-31.38-27.37-43-44.47a149.48,149.48,0,0,1-23.12-58,250.31,250.31,0,0,1-4.15-37.61c-1-37.43,6.77-72.78,24.53-105.63,15.32-28.34,37.13-50.65,66.12-65.34a157.64,157.64,0,0,1,72.05-17.5c12.66,0,25.27-.11,37.63,2.45a157.71,157.71,0,0,1,33.6,11.17c14.94,6.82,28.6,15.74,39.78,27.81a254.81,254.81,0,0,1,21,26.5,93.54,93.54,0,0,1,13,25.07c1.46,4.48,3.45,4.71,6.79,1.28q11-11.27,21.72-22.75c2.7-2.88,3-6.79,2.81-10.35-1.08-21.36,3-42.43,3.51-63.73.35-13.75.11-27.57,1.41-41.36,2-21.19,1.56-42.54,2.34-63.81.78-21.44,1.06-42.9,1.95-64.33.92-22.27,1.17-44.57,2.14-66.82.68-15.61.58-31.24,1.6-46.85.72-11-5.74-16.71-16.84-17.13-31.13-1.17-62.3-.15-93.4-1.21-24.16-.82-48.3.19-72.41-.85-43.47-1.88-87,.32-130.4-1.07-43.81-1.41-87.63.36-131.41-1-50.81-1.56-101.61.06-152.4-1.07-11-.24-21.91.44-32.84.15-63.8-1.72-127.6-.51-191.4-1-8.32-.06-15.55,1.47-20.47,8.88-.4.6-1.4.79-2.13,1.17,0-4.8-1.68-10.89.62-14S85.47,76,90.06,76q415.45-.09,830.9-.19c5,0,6.22,1.05,6.21,6.14q-.24,141.73-.08,283.46c0,1.5.06,3,.09,4.5-.07,2.33-.21,4.65-.21,7q0,272.24.18,544.49c0,4.49-1,5.75-5.67,5.74Q514.75,926.95,108,927C106,927,104,926.89,102,926.84ZM758.44,579.65c33.33,0,66.66-.06,100,.09,3.56,0,5-1,5.47-4.51,3.83-32.18,1.87-63.83-9-94.56-11.33-32.15-30.6-57.87-61.64-73.48-22.46-11.29-46.58-14.44-71.39-13.38-21.43.91-42,5.53-61.23,15.23A134.39,134.39,0,0,0,611.57,451c-21.34,29.54-31.64,62.86-34.28,98.57A182.48,182.48,0,0,0,581.05,602c8.48,38.73,26.16,71.35,60.74,93.12,21.12,13.29,44.17,20.65,68.74,23.79,21.43,2.73,42.88,2.08,64.29-.11A278.13,278.13,0,0,0,844.21,703c3.27-1.22,4-2.48,3.16-6.15-3.49-15.25-6.51-30.61-9.52-46-.69-3.52-1.56-4.56-5.44-3.18a215.18,215.18,0,0,1-64.9,12.33c-17.82.64-35.6.84-53.05-4-36.16-10.13-58.59-36.52-60.77-71.48-.25-4,.78-5,4.75-5C691.78,579.7,725.11,579.63,758.44,579.65ZM686.62,600c-1.83,0-3.66,0-5.49,0-6.95.22-9.54,3.79-6.84,10.09a47.09,47.09,0,0,0,13.49,17.65c7.54,6.24,16.92,9.1,25.76,12.88,5.56,2.38,11.5,1.21,17.28,1.23,1.8,0,2.85-1.37,4-2.6,5.77-5.9,12-11.41,17.39-17.62,3.62-4.15,8.42-6.87,11.87-11.14,2-2.47,1.92-3.92-1.21-5.15A30.9,30.9,0,0,0,751.28,603c-7.15,0-14.39.6-21.45-.26C715.46,601,701,601.4,686.62,600Z" transform="translate(-0.91 -0.89)"/><path class="cls-4" d="M76.18,479a2.7,2.7,0,0,1,1.69,2.29c.09,1.16.13,2.33.12,3.49-.48,60.79.91,121.58,1.35,182.36.24,33.63-.53,67.29.88,100.88,1,24-.36,48,1,71.89,1,18.16.22,36.29.88,54.41.2,5.63.65,11.29,1.11,16.9.48,6,3.6,10.57,9.77,12.63,2.09.7,4.81.39,6,3-6.49.06-13,0-19.48.24-3,.12-3.68-1-3.58-3.75.19-4.82.06-9.66.06-14.49q0-211.67.06-423.33C76.05,483.35,76.14,481.18,76.18,479Z" transform="translate(-0.91 -0.89)"/><path class="cls-5" d="M273,286c-2.94.62-4.32,2.88-5.62,5.27a99.16,99.16,0,0,0-8.07,19.33c-8.69,29.58-19.62,58.4-29.23,87.67-12.83,39.08-25.91,78.09-38.67,117.19q-12.78,39.19-26.3,78.13C158,614,151.78,634.81,145,655.38c-4.84,14.71-10,29.32-15,44-1.76,5.19-1.54,10.61-.63,15.83,1.57,9,9.27,15.51,19.39,16.61a138.71,138.71,0,0,0,18.9,1.1c11.18-.31,22.27,1.11,33.42,1.1a60,60,0,0,0,13.33-1.72c11.61-2.65,17.95-10.89,21.72-21.45,5.73-16,9.31-32.65,13.9-49,3.82-13.62,7.9-27.18,12.08-40.69,2.59-8.37,6.65-10.91,15.54-11.16,20.82-.6,41.59,1.32,62.41,1.18,10.44-.07,20.89,1.16,31.33,1.95,6.29.47,9.33,3.22,11.34,10.11,2.69,9.24,6.52,18.22,6.41,28.12a8.18,8.18,0,0,0,.89,3.36c4.47,9.64,3.48,20.63,7.56,30.39,1.21,2.9.11,5.73-2.31,8.14-12,12-23.86,24.11-35.9,36-10.71,10.61-22.53,20.27-32.17,31.76-9.44,11.25-21.78,19.47-30.68,30.8-6.66,8.47-14.93,15.05-22.24,22.64-7.76,8.07-15.5,16.4-24.38,23.49a51,51,0,0,0-11.12,12c-2.77,4.27-7.91,6.25-11,10.55a83.72,83.72,0,0,1-18,17.82c-3.44,2.55-5.85,6.39-8.46,9.66-5.59,7-13.47,11.38-19,18.25-2.24,2.76-5.23,3.7-8.81,3.87-19.57.93-39.17,1.49-58.67,3.76-4.6.54-9.32.22-14,.1-4.13-.11-6.46-2.38-6.74-6.54-.71-10.61-1.54-21.21-2-31.83-1.48-31.76-1.26-63.57-2.43-95.31-.74-20.11-.73-40.26-1.85-60.33-.89-15.83-.07-31.63-.81-47.42-1.15-24.63-.09-49.31-1.2-73.9-.95-21,.25-42-.87-62.92-1.75-32.81.29-65.64-1.05-98.41-1.48-36.15.35-72.3-1-108.41-1.45-38.65.38-77.3-1-115.9C80.5,177.3,81.51,141.67,81,106c-.19-14,6-20,20.13-20,30.5,0,61-.81,91.48.2,40.15,1.32,80.3-.4,120.4,1,36.48,1.27,73-.4,109.41,1,32.65,1.23,65.31-.31,97.9,1,20.66.86,41.32-.32,61.91.94,20.82,1.27,41.66-.27,62.41,1,19.66,1.23,39.32-.23,58.91,1,16.49,1,33-.41,49.4,1.08,22.46,2.05,44.9,1.22,67.35,1.84,23.76.66,47.5,1.92,71.25,3,3.15.14,6.27.74,9.42.93,5.75.34,7.54,2.28,8,7.95.64,7.45-1.7,14.5-2.47,21.76-.52,5-2,10-1.38,14.84,1.48,11.19-4.23,18.28-12,24.65-7.47,6.11-13.74,13.42-20.51,20.24-7.33,7.4-14.47,15-22.37,21.83a66.07,66.07,0,0,0-9.9,10.4,61.21,61.21,0,0,1-9.5,10.11c-8.67,7.44-16.49,15.76-24.37,24-7.2,7.57-15.4,14.25-22.38,21.94-9.26,10.21-19.62,19.26-28.9,29.42A230.14,230.14,0,0,1,737,323.89c-4.31,3.78-7.64,8.62-11.77,12.72-7.37,7.32-15,14.31-22.44,21.6-4.73,4.66-9.19,9.6-13.67,14.5a55.12,55.12,0,0,1-22.87,15.44C640.88,397,621,413.29,603,433c-14.65,16.07-25.25,34.15-33.13,54.15-4.43,11.25-13.32,19-22.33,26.29-3.33,2.71-5,6.44-8.15,9.26a302.63,302.63,0,0,0-26,26c-4.36,5-9.55,9.22-14.48,13.65a13.84,13.84,0,0,0-3.63,4c-.5,1-1.08,2.24-2.53,2s-1.61-1.53-2-2.61c-5.76-15.17-14.92-28.83-20.13-44.19-3.59-10.58-8.56-20.57-12.15-31.14C453.6,476,447.93,462,442.61,447.81c-3.51-9.35-7.06-18.71-10.33-28.12-7.72-22.18-16.63-43.94-23.73-66.34-3.47-10.94-7-21.92-11.67-32.39-2.52-5.69-4-11.53-5.79-17.35-1.69-5.5-5.54-9.8-7.76-15-.88-2.07-2.83-2.68-5-2.67-.74-4.57-3.29-5.76-7.93-5.72q-44.74.38-89.48,0C276.42,280.22,273.77,281.49,273,286ZM119.46,90.82c-9.47.47-16.5-.5-23.4,1.23-4.82,1.21-7.88,4.15-9,9a40.45,40.45,0,0,0-1.11,9.9c.25,11.81.2,23.6.85,35.43,1.12,20.44.53,40.94.85,61.41.51,32.3,1.74,64.59,1.42,96.91-.13,12.63.34,25.29.62,37.92q1.09,47.91,2.12,95.83c.45,20.8,1.9,41.59,1.2,62.41a21,21,0,0,0,.23,3C95.58,525,97.53,546.11,98,567.36c0,2,0,4,0,6,0,1.15-.06,2.49,1.25,3s2.29-.37,3-1.26a101.51,101.51,0,0,1,8.76-8.79c6.59-6.24,12.9-12.76,19.29-19.21,2.19-2.21,5.12-3.22,7.26-5.86,6.22-7.68,12.67-15.31,20-21.93a228.63,228.63,0,0,0,17.1-16.59c5.36-6,11.7-11.06,14.21-19.46,5.37-18,12-35.61,18.47-53.26,10.78-29.38,22.42-58.51,31.52-88.48,5.24-17.26,11.91-33.94,18.39-50.72a33.44,33.44,0,0,1,10-14.06c8.26-6.82,18.49-8.55,28.22-8.43,27.33.32,54.51-3.25,81.84-2.41a23.08,23.08,0,0,1,16,6.92c1.69,1.63,1.86,4.87,4.22,5.33,2.86.55,3.69-2.89,5.52-4.4a193.32,193.32,0,0,0,17-16c4.26-4.5,9-8.55,13-13.19,3.2-3.65,8.09-5.88,10.31-9.81,2.91-5.16,7.42-8.49,11.22-12.52,11-11.69,22.49-23,34-34.13,2.9-2.8,4.51-6.61,7.94-8.9,9-6,15.5-14.93,23.46-22.18,5-4.55,10.18-9.36,15.08-14.2,3.11-3.07,4.43-7.29,8.1-9.84,7-4.83,11.95-11.89,18.68-17.11,2.85-2.21,6.11-4.61,8-8.12.6-1.14,2.12-2,1.49-3.47-.74-1.72-2.54-1.23-4-1.3-10.59-.54-21.13-.05-31.81-1.56a400.13,400.13,0,0,0-40.7-3.17c-24.93-.94-49.89-1-74.83-2.23-13.79-.68-27.59.14-41.43-.86C362,94,345.37,95,328.7,94.21c-26.26-1.31-52.6.56-78.91-1.08-18.43-1.15-36.92-.11-55.42-.88C168.6,91.18,142.75,92.52,119.46,90.82Z" transform="translate(-0.91 -0.89)"/><path class="cls-2" d="M273,286c.8-4.52,3.44-5.78,8-5.75q44.74.3,89.48,0c4.64,0,7.2,1.15,7.93,5.72q15.26,46.93,30.53,93.85A18,18,0,0,0,410,382a16.21,16.21,0,0,0,.41,2.43q24.56,75.61,49.16,151.22,28.13,86.51,56.33,173c1.34,4.09,1.26,5.52-3.84,5.46q-37-.43-74,0c-4.62.05-6.52-1.23-7.91-5.68-11.77-37.58-23.9-75-35.7-112.61-1.19-3.78-2.85-4.68-6.59-4.67q-63.48.21-127,0c-4.21,0-5.69,1.42-6.81,5.15C242.76,634,231.24,671.66,220,709.39c-1.09,3.66-2.63,4.74-6.47,4.72-24.49-.16-49,0-73.47.06-2.53,0-3.81-.36-2.74-3.68q57.6-179.2,115-358.48C259.26,330,266.84,308.25,273,286Zm60.86,99-10.18-40.76h-1.24c-3.32,13.56-7.07,27-9.57,40.77-3.55,13-6.78,26-10.72,38.87C291.6,458.19,280.8,492.43,270,526.67c-1.06,3.36-1.39,4.84,3.18,4.81,34-.19,68-.12,102-.07,2.65,0,4.32.27,3.1-3.61C363.41,480.21,347,433.1,333.84,385Z" transform="translate(-0.91 -0.89)"/><path class="cls-4" d="M140,714.16c24.49-.06,49-.22,73.47-.06,3.84,0,5.38-1.06,6.47-4.72,11.28-37.73,22.8-75.38,34.1-113.11,1.12-3.74,2.6-5.17,6.81-5.15q63.48.3,127,0c3.73,0,5.4.88,6.59,4.67,11.79,37.57,23.92,75,35.7,112.61,1.39,4.45,3.3,5.73,7.91,5.68q37-.4,74,0c5.1.06,5.18-1.37,3.84-5.46q-28.27-86.47-56.33-173Q434.94,460,410.36,384.44A16.21,16.21,0,0,1,410,382c3.82,2.8,4.18,7.39,5.54,11.33q19.73,57.39,39.17,114.89c8.75,25.69,17.38,51.42,26.31,77.05,11.83,33.95,23.94,67.8,35.82,101.73,2.64,7.52,5.47,15,5.23,23.25-.22,7.7-4.07,13.31-11.33,16-6.53,2.41-13.24,2.15-20.11,1.9-12.31-.46-24.65,0-37-.2a64.6,64.6,0,0,1-12.86-1.36c-9.17-2-15-7.95-18.61-16.53-5.11-12.18-8.23-25-12-37.54-5.21-17.21-10.24-34.47-15.71-51.6-4.59-14.38-11.2-18.91-26.16-18.92-2.5,0-5,0-7.5,0-27.47.36-54.9-1.64-82.38-1.05-13.75.29-20.72,4.75-24.78,18-8.06,26.26-15.74,52.63-23.58,79-.71,2.39-1.35,4.82-2.23,7.15-5,13.22-13.26,18.93-27.38,19-12.16,0-24.33.23-36.48-.09-6.26-.17-12.68-.25-18.52-3.21C142.69,719.31,140.11,717.75,140,714.16Z" transform="translate(-0.91 -0.89)"/><path class="cls-2" d="M758.44,579.64c-33.33,0-66.66.06-100-.09-4,0-5,1-4.75,5,2.17,35,24.61,61.35,60.77,71.48,17.45,4.89,35.23,4.68,53.05,4a215.18,215.18,0,0,0,64.9-12.33c3.88-1.38,4.75-.35,5.44,3.18,3,15.36,6,30.72,9.52,46,.84,3.67.11,4.92-3.16,6.15a278.13,278.13,0,0,1-69.39,15.77c-21.41,2.18-42.85,2.84-64.29.11-24.57-3.13-47.63-10.5-68.74-23.79-34.58-21.77-52.26-54.39-60.74-93.12a182.48,182.48,0,0,1-3.77-52.46c2.64-35.71,12.94-69,34.28-98.57A134.39,134.39,0,0,1,660.68,409c19.2-9.7,39.8-14.31,61.23-15.23,24.82-1.06,48.94,2.09,71.39,13.38,31,15.6,50.31,41.33,61.64,73.48,10.83,30.74,12.79,62.39,9,94.56-.42,3.52-1.91,4.52-5.47,4.51C825.1,579.59,791.77,579.65,758.44,579.64ZM722.5,524.12q27.49,0,55,0c4.31,0,10.08,1.49,12.55-.69,3-2.66.53-8.44,0-12.8-2.14-18.14-8-34.82-21.78-47.5-20.51-18.84-56.3-20.65-79.81-4-21.25,15-30.66,36.91-34.63,61.78-.56,3.52,1.35,3.29,3.68,3.28Q690,524.1,722.5,524.12Z" transform="translate(-0.91 -0.89)"/><path class="cls-3" d="M686.62,600c14.37,1.39,28.84,1,43.21,2.71,7.06.86,14.29.29,21.45.26a30.9,30.9,0,0,1,11.64,2.39c3.13,1.23,3.2,2.68,1.21,5.15-3.45,4.27-8.25,7-11.87,11.14-5.42,6.2-11.62,11.71-17.39,17.62-1.2,1.23-2.24,2.6-4,2.6-5.79,0-11.73,1.15-17.28-1.23-8.84-3.79-18.22-6.64-25.76-12.88a47.09,47.09,0,0,1-13.49-17.65c-2.7-6.31-.11-9.88,6.84-10.09C683,600,684.78,600,686.62,600Z" transform="translate(-0.91 -0.89)"/><path class="cls-6" d="M119.46,90.82c23.29,1.7,49.14.36,74.91,1.44,18.49.77,37-.27,55.42.88,26.31,1.64,52.65-.24,78.91,1.08,16.66.83,33.33-.21,49.91,1,13.83,1,27.64.18,41.43.86,24.93,1.24,49.9,1.29,74.83,2.23a400.13,400.13,0,0,1,40.7,3.17c10.68,1.51,21.22,1,31.81,1.56,1.44.07,3.24-.42,4,1.3.63,1.45-.89,2.33-1.49,3.47-1.84,3.5-5.11,5.9-8,8.12-6.74,5.22-11.72,12.28-18.68,17.11-3.68,2.55-5,6.77-8.1,9.84-4.91,4.84-10.09,9.65-15.08,14.2-8,7.25-14.41,16.14-23.46,22.18-3.43,2.29-5,6.1-7.94,8.9-11.56,11.16-23,22.44-34,34.13-3.8,4-8.31,7.36-11.22,12.52-2.22,3.94-7.11,6.16-10.31,9.81-4.06,4.64-8.77,8.69-13,13.19a193.32,193.32,0,0,1-17,16c-1.82,1.51-2.66,5-5.52,4.4-2.36-.46-2.52-3.7-4.22-5.33a23.08,23.08,0,0,0-16-6.92c-27.33-.84-54.51,2.73-81.84,2.41-9.73-.11-20,1.61-28.22,8.43a33.44,33.44,0,0,0-10,14.06c-6.48,16.78-13.15,33.46-18.39,50.72-9.1,30-20.74,59.11-31.52,88.48-6.48,17.66-13.1,35.25-18.47,53.26-2.5,8.4-8.84,13.47-14.21,19.46a228.63,228.63,0,0,1-17.1,16.59c-7.3,6.61-13.75,14.25-20,21.93-2.13,2.63-5.06,3.65-7.26,5.86-6.39,6.45-12.7,13-19.29,19.21a101.51,101.51,0,0,0-8.76,8.79c-.73.89-1.73,1.77-3,1.26s-1.22-1.87-1.25-3c0-2,0-4,0-6-.46-21.26-2.41-42.4-4.74-63.52a21,21,0,0,1-.23-3c.71-20.82-.74-41.61-1.2-62.41q-1-47.92-2.12-95.83c-.29-12.64-.75-25.29-.62-37.92.32-32.32-.91-64.62-1.42-96.91-.32-20.47.27-41-.85-61.41-.65-11.82-.6-23.62-.85-35.43a40.45,40.45,0,0,1,1.11-9.9c1.1-4.84,4.16-7.78,9-9C103,90.32,110,91.29,119.46,90.82Z" transform="translate(-0.91 -0.89)"/><path class="cls-3" d="M333.84,385C347,433.1,363.41,480.21,378.26,527.8c1.21,3.89-.45,3.61-3.1,3.61-34,0-68-.12-102,.07-4.57,0-4.24-1.45-3.18-4.81,10.8-34.24,21.6-68.47,32.12-102.79C306.06,411,309.29,398,312.85,385c2-.4,2.83-2.12,3.88-3.57,4.33-6,8.55-6,12.83,0C330.7,383,331.36,385.06,333.84,385ZM319,522c7.85.41,18.31-.2,28.76-1,6.87-.53,9.18-3.5,7.65-10.22-1.07-4.7-2.07-9.44-3.39-14.07-7.3-25.61-14.71-51.18-22-76.78a31.15,31.15,0,0,0-3.53-8.76c-2-3-4.38-2.83-6.39,0-1.68,2.31-2.36,5.11-3.09,7.86-5.27,19.61-10.61,39.19-16.91,58.52-3.76,11.54-7,23.28-10.11,35-1.55,5.79,1.48,9.4,7.42,9.49C303.72,522.07,310,522,319,522Z" transform="translate(-0.91 -0.89)"/><path class="cls-4" d="M333.84,385c-2.48.07-3.14-2-4.28-3.55-4.28-6-8.5-5.95-12.83,0-1.05,1.45-1.87,3.16-3.88,3.57,2.5-13.76,6.25-27.21,9.57-40.77h1.24Z" transform="translate(-0.91 -0.89)"/><path class="cls-4" d="M722.5,524.13q-32.49,0-65,0c-2.33,0-4.24.24-3.68-3.28,4-24.87,13.38-46.75,34.63-61.78,23.5-16.62,59.29-14.82,79.81,4,13.81,12.68,19.64,29.36,21.78,47.5.51,4.36,3,10.14,0,12.8-2.46,2.18-8.24.68-12.55.69Q750,524.15,722.5,524.13Zm5.5-9.33c13.31.85,24.54-1.2,35.88-.94,6.5.15,9.36-4,7.65-10.36a82,82,0,0,0-4.72-13.67c-8.82-18.64-29.93-26.07-50.39-23.22-21.58,3-35.17,16.81-43.4,36.36-3.71,8.82-1,12.93,8.58,13C697.75,516.21,713.87,515.9,728,514.8Z" transform="translate(-0.91 -0.89)"/><path class="cls-5" d="M319,522c-9,0-15.29.07-21.62,0-5.94-.09-9-3.7-7.42-9.49,3.15-11.73,6.35-23.47,10.11-35,6.3-19.32,11.64-38.9,16.91-58.52.74-2.75,1.42-5.55,3.09-7.86,2-2.78,4.41-3,6.39,0a31.15,31.15,0,0,1,3.53,8.76c7.31,25.6,14.72,51.18,22,76.78,1.32,4.64,2.32,9.37,3.39,14.07,1.53,6.72-.78,9.69-7.65,10.22C337.32,521.8,326.86,522.41,319,522Z" transform="translate(-0.91 -0.89)"/><path class="cls-3" d="M728,514.8c-14.13,1.1-30.26,1.41-46.4,1.21-9.54-.12-12.3-4.22-8.58-13,8.23-19.55,21.83-33.35,43.4-36.36,20.46-2.85,41.57,4.58,50.39,23.22a82,82,0,0,1,4.72,13.67c1.71,6.31-1.15,10.51-7.65,10.36C752.55,513.59,741.32,515.65,728,514.8Z" transform="translate(-0.91 -0.89)"/></g></g></svg>