<svg xmlns="http://www.w3.org/2000/svg" viewBox="0 0 265.95 258.25"><defs><style>.cls-1{fill:#2084b0;}.cls-2{fill:#28a8de;}.cls-3{fill:#d1d1d1;}.cls-4{fill:#fcfcfc;}.cls-5{fill:#1a1a1a;}.cls-6{fill:#444;}</style></defs><title>Fichier 9</title><g id="Calque_2" data-name="Calque 2"><g id="Calque_1-2" data-name="Calque 1"><path class="cls-1" d="M0,207.85V189.13a3.11,3.11,0,0,0,.21-1.76q0-45.72,0-91.43c0-.44,0-.88,0-1.32-.09-.92.27-1.38,1.22-1.25,1.29.18,2.56-.12,3.89,0A16.17,16.17,0,0,0,9,93.48c1-.11,2-.58,2.91-.27,1.46.53,2.84.17,4.25.15.83,0,1.67-.15,2.5-.1a41.31,41.31,0,0,0,7.36.15,1.33,1.33,0,0,0,1.36-1.3A125.47,125.47,0,0,0,29,76.18c.33-5.37.29-10.76.73-16.14a35.11,35.11,0,0,1,1.94-9.1A30.86,30.86,0,0,1,43.46,35.63a29.07,29.07,0,0,1,9.48-4.19,42.2,42.2,0,0,1,10.35-.91q69.12-.09,138.23,0c2.35,0,4.71.07,7.06.26a26.31,26.31,0,0,1,5.19.83,30.16,30.16,0,0,1,14.14,8.73A31.92,31.92,0,0,1,235.42,55a51.07,51.07,0,0,1,1,9.5c.23,5.38.63,10.74.91,16.12.17,3.19.64,6.34,1,9.51.16,1.27.88,2,2.06,1.79,2.33-.33,4.61.36,7,0a47.72,47.72,0,0,1,8.94-.33c1.78,0,3.55.39,5.37.3,1.37-.07,2.76-.12,4.14-.14,0,.32,0,.64,0,1q0,54.57,0,109.15a58.13,58.13,0,0,1-1.73,14.58,55.74,55.74,0,0,1-22.84,33.08,48.56,48.56,0,0,1-19.71,8.1,18.67,18.67,0,0,0-4,.69H48.24c-.07-.25-.28-.23-.48-.24a26.29,26.29,0,0,1-5.75-.84c-16-4-27.67-13.62-35.42-28.05A51.32,51.32,0,0,1,.91,212.4,23.13,23.13,0,0,0,0,207.85ZM32.88,57.62l-.11.25a4.59,4.59,0,0,0-.07.59q0,14.79,0,29.59c0,.56-.07,1.12-.07,1.67q0,50.46,0,100.92c0,1.63,0,3.26.18,4.89A28.26,28.26,0,0,0,36.31,207c4.94,8.91,12.56,14,22.77,14,49.24.13,98.48.06,147.72.06a24.13,24.13,0,0,0,5.31-.61c13-2.94,21-14.29,21.06-26.8.21-34.44.09-68.88.1-103.32,0-.52,0-1-.07-1.55,0-4,.14-7.92,0-11.88-.24-7.38.68-14.79-.59-22.16A31.15,31.15,0,0,0,231,48.54a26.14,26.14,0,0,0-24.58-16.9q-73.43,0-146.86,0a26.44,26.44,0,0,0-8.81,1.46,24.9,24.9,0,0,0-12.2,9A27.15,27.15,0,0,0,32.88,57.62Z"/><path class="cls-2" d="M265.88,91.7c-1.38,0-2.77.06-4.14.14-1.82.09-3.59-.25-5.37-.3a47.72,47.72,0,0,0-8.94.33c-2.38.39-4.66-.31-7,0-1.18.17-1.9-.52-2.06-1.79-.4-3.16-.87-6.32-1-9.51-.28-5.37-.68-10.74-.91-16.12a51.07,51.07,0,0,0-1-9.5,31.92,31.92,0,0,0-7.51-14.64,30.16,30.16,0,0,0-14.14-8.73,26.31,26.31,0,0,0-5.19-.83c-2.34-.19-4.7-.26-7.06-.26q-69.12,0-138.23,0a42.2,42.2,0,0,0-10.35.91,29.07,29.07,0,0,0-9.48,4.19A30.86,30.86,0,0,0,31.67,50.94,35.11,35.11,0,0,0,29.73,60c-.44,5.37-.4,10.76-.73,16.14a125.47,125.47,0,0,1-1.6,15.93A1.33,1.33,0,0,1,26,93.41a41.31,41.31,0,0,1-7.36-.15c-.83,0-1.67.1-2.5.1-1.41,0-2.79.38-4.25-.15-.86-.31-1.94.16-2.91.27a16.17,16.17,0,0,1-3.66-.07c-1.33-.16-2.61.13-3.89,0-1-.13-1.31.32-1.22,1.25,0,.44,0,.88,0,1.32q0,45.72,0,91.43A3.11,3.11,0,0,1,0,189.13V52.57c.33-.22.22-.58.23-.88a39.61,39.61,0,0,1,1-7.87C4.58,29.5,12,17.79,24,9.26A48.6,48.6,0,0,1,52.64,0q80.8,0,161.6,0a39.33,39.33,0,0,1,6.55.58,50.72,50.72,0,0,1,27,13.39c12,11.41,18,25.54,18.14,42.1.09,11.4,0,22.79,0,34.19C265.92,90.75,265.89,91.22,265.88,91.7Z"/><path class="cls-3" d="M233.19,88.77c0,.52.07,1,.07,1.55,0,34.44.12,68.88-.1,103.32-.08,12.51-8.07,23.86-21.06,26.8a24.13,24.13,0,0,1-5.31.61c-49.24,0-98.48.07-147.72-.06-10.21,0-17.83-5.07-22.77-14a28.26,28.26,0,0,1-3.44-11.48c-.14-1.64-.18-3.26-.18-4.89q0-50.46,0-100.92c0-.56,0-1.12.07-1.67,1.24.12,2.48-.08,3.71,0,3.44.16,6.88,0,10.31.09.79,0,1.11-.35,1.3-1.08a29.78,29.78,0,0,0,.87-6.27c.24-5.94.82-11.86.79-17.82a23.41,23.41,0,0,1,.45-4.87,6.09,6.09,0,0,1,5-5,37.78,37.78,0,0,1,7.18-.22q29.52,0,59,0A7.83,7.83,0,0,1,125.81,54c2.36,1.56,3,4,3,6.58.08,6.95.56,13.87,1,20.79a34,34,0,0,0,.65,5.7,2,2,0,0,0,1.86,1.72c2.35.36,3.17-.23,3.46-2.6.27-2.22.66-4.43.7-6.65.12-6.07.87-12.1.79-18.18a13.33,13.33,0,0,1,.41-3.55c.84-3.18,3.34-4.93,6.93-4.93h64.68A6.33,6.33,0,0,1,216,58.41a17.94,17.94,0,0,1,.42,3.44c-.08,6.11.49,12.2.76,18.3a61.87,61.87,0,0,0,.78,7.13,1.59,1.59,0,0,0,1.87,1.56,46.38,46.38,0,0,1,5.84-.09C228.19,88.82,230.69,88.59,233.19,88.77Zm-107.89-3c.07,0,.16.06.2,0a.27.27,0,0,0,.09-.2q0-4,0-8c0-.14-.06-.34-.29-.16l-.07-16.68c.18-.1.18-.2,0-.29l-.13-5.38h0a2.82,2.82,0,0,0-1.3-.12q-34.48,0-69,0c-1.1,0-1.37.31-1.37,1.38q0,25.12-.08,50.25a9.51,9.51,0,0,0,.09.95c0,.48,0,1,0,1.43q0,13.94,0,27.88c-.73.09-.36.65-.37,1,0,9.87-.07,19.74-.23,29.61-.13,8.11,0,16.23,0,24.34A21.05,21.05,0,0,0,53,195.1c0,.21-.11.62.39.48,0,2,0,2,1.44,2,.12.62.62.8,1.13.94a13.34,13.34,0,0,0,3.43.5q29.92,0,59.85,0a13.8,13.8,0,0,0,2.73-.29c.69-.14,1.44-.31,1.67-1.15,1.55,0,1.55,0,1.61-1.54,0-.12,0-.23,0-.35a4.81,4.81,0,0,0,.44-2.4q0-12.45,0-24.9a6.44,6.44,0,0,0-.44-2.64,3.18,3.18,0,0,1,.11-1.63l.08,0-.1-.13a1.32,1.32,0,0,1-.18-1c.15-1.18-.28-1.54-1.51-1.53-5,.07-10,0-15,0l-18-.06c.14-.19,0-.31-.13-.4-1.58-1.29-1.9-3-1.92-4.94-.06-6.35.1-12.7-.17-19.06-.28-6.58,0-13.18-.23-19.77-.21-6.43-.06-12.87-.1-19.31,0-.39.22-.85-.22-1.17V94.35c.37-.06.21-.37.24-.56a3.87,3.87,0,0,1,3.39-3.65,8.19,8.19,0,0,1,2-.18h26.11a11.06,11.06,0,0,0,2.61-.27,1.36,1.36,0,0,0,1.17-1c1.18.15,1.77-.29,1.54-1.54l.09,0-.1,0A3.14,3.14,0,0,0,125.3,85.79Zm15.65,110c-.13,1.82-.13,1.82,1.29,1.8a2.6,2.6,0,0,0,.34.48c1.11,1,2.5,1,3.84,1h60.86a8.61,8.61,0,0,0,2.61-.28c.62-.19,1.22-.43,1.39-1.16,1.06.22,1.62-.12,1.43-1.29.29.17.32-.06.37-.25a10.88,10.88,0,0,0,.27-2.73c-.13-16.22.22-32.44-.21-48.66-.15-5.43,0-10.87-.07-16.3,0-.35.41-1-.35-1.11l-.06-13.72a5.6,5.6,0,0,0,.09-.71q0-28.37-.08-56.74c0-.91-.28-1.11-1.15-1.11q-34.61,0-69.22,0c-1,0-1.28.26-1.28,1.26,0,7.92-.1,15.83-.14,23.75,0,2.56,0,5.12.07,7.68,0,.36-.14,1,.43.95,1.79-.09,3.42.78,5.2.77,9.2,0,18.39,0,27.59,0a18.64,18.64,0,0,1,3.22.28,3.33,3.33,0,0,1,3,3.55c0,6.2,0,12.4,0,18.59a3.58,3.58,0,0,0,.12,1.54c0,5.68-.07,11.36-.08,17,0,5,0,10.08,0,15.11a2.06,2.06,0,0,0-.22,1.39c0,3.19,0,6.39,0,9.58a7.27,7.27,0,0,1-1.58,5,2.51,2.51,0,0,0-.35,0l-32.38,0c-1.36,0-2.72,0-4.08,0-.57,0-.9.1-.88.77,0,1.08,0,2.15,0,3.23a6.79,6.79,0,0,0-.5,3q0,12,0,24.06A7.62,7.62,0,0,0,141,195.78Z"/><path class="cls-4" d="M233.19,88.77c-2.5-.18-5,.06-7.51,0a46.38,46.38,0,0,0-5.84.09A1.59,1.59,0,0,1,218,87.27a61.87,61.87,0,0,1-.78-7.13c-.27-6.1-.84-12.18-.76-18.3a17.94,17.94,0,0,0-.42-3.44,6.33,6.33,0,0,0-6.68-5.59H144.65c-3.59,0-6.09,1.75-6.93,4.93a13.33,13.33,0,0,0-.41,3.55c.09,6.07-.66,12.11-.79,18.18,0,2.22-.44,4.44-.7,6.65-.29,2.37-1.1,3-3.46,2.6A2,2,0,0,1,130.51,87a34,34,0,0,1-.65-5.7c-.48-6.92-1-13.85-1-20.79,0-2.53-.65-5-3-6.58a7.83,7.83,0,0,0-4.46-1.13q-29.52,0-59,0a37.78,37.78,0,0,0-7.18.22,6.09,6.09,0,0,0-5,5,23.41,23.41,0,0,0-.45,4.87c0,6-.55,11.88-.79,17.82A29.78,29.78,0,0,1,48,87c-.19.73-.51,1.1-1.3,1.08-3.44-.08-6.87.08-10.31-.09-1.23-.06-2.47.14-3.71,0q0-14.79,0-29.59a4.59,4.59,0,0,1,.07-.59l.11-.25a27.15,27.15,0,0,1,5.67-15.56,24.9,24.9,0,0,1,12.2-9,26.44,26.44,0,0,1,8.81-1.46q73.43,0,146.86,0A26.14,26.14,0,0,1,231,48.54a31.15,31.15,0,0,1,1.61,6.19c1.27,7.37.35,14.78.59,22.16C233.33,80.84,233.2,84.81,233.19,88.77Z"/><path class="cls-3" d="M32.88,57.62l-.11.25Z"/><path class="cls-5" d="M125.44,164.13a3.17,3.17,0,0,0-.11,1.62c-.23.27-.15.6-.15.91q0,14.06,0,28.11c0,.31-.08.64.15.92,0,.12,0,.23,0,.35-.06,1.58-.06,1.58-1.61,1.54-.44,0-.87-.1-1.31-.1H56.19c-.44,0-.87.06-1.31.09-1.4,0-1.4,0-1.44-2,0-.23.06-.47.06-.71q0-28.6,0-57.21c0-.28,0-.55-.07-.83q0-13.94,0-27.88c0-.48,0-1,0-1.43,2.22,0,4.46.27,6.66.14,1.59-.09,3.16.09,4.74,0,2-.08,4.09-.06,6.14-.13,2.75-.09,5.47.35,8.22.15,2.13-.15,4.29.05,6.43,0a6.37,6.37,0,0,1,2.13-.08c0,.72,0,1.44,0,2.16q0,24.62.05,49.23c0,2.58,0,2.59,2.65,2.41a.74.74,0,0,0,.22-.09l18,.06c5,0,10,.06,15,0,1.23,0,1.66.34,1.51,1.53a1.32,1.32,0,0,0,.17,1l-.06.09Z"/><path class="cls-5" d="M141,165.44c0-1.08,0-2.16,0-3.23,0-.68.32-.78.88-.77,1.36,0,2.72,0,4.08,0l32.38,0a2.51,2.51,0,0,1,.35,0c1.92.34,2,.25,2-1.57q0-6.51,0-13c0-.47.12-1-.24-1.37,0-5,0-10.08,0-15.11,0-5.68,0-11.36.08-17,1.44-.18,2.85.25,4.29.24,3.62,0,7.25,0,10.87,0h17l.06,13.71c0,.47-.07.95-.07,1.42q0,32.14,0,64.28c0,1.12,0,2.23,0,3.35.19,1.17-.37,1.51-1.43,1.29-.44,0-.87-.09-1.31-.09H143.55c-.44,0-.87.06-1.31.09-1.43,0-1.43,0-1.29-1.8a3.11,3.11,0,0,0,.18-1.53q0-13.64,0-27.28A3.14,3.14,0,0,0,141,165.44Z"/><path class="cls-6" d="M212.66,113.53h-17c-3.62,0-7.25,0-10.87,0-1.44,0-2.85-.42-4.29-.24a3.58,3.58,0,0,1-.12-1.54c0-6.2,0-12.4,0-18.59a3.33,3.33,0,0,0-3-3.55,18.64,18.64,0,0,0-3.22-.28c-9.2,0-18.39,0-27.59,0-1.78,0-3.4-.86-5.2-.77-.57,0-.42-.59-.43-.95,0-2.56-.09-5.12-.07-7.68,0-7.92.12-15.83.14-23.75,0-1,.29-1.26,1.28-1.26q34.61,0,69.22,0c.87,0,1.15.2,1.15,1.11q0,28.37.08,56.74A5.6,5.6,0,0,1,212.66,113.53Z"/><path class="cls-6" d="M87.82,107.65a6.37,6.37,0,0,0-2.13.08c-2.14,0-4.3-.17-6.43,0-2.75.2-5.48-.24-8.22-.15-2,.07-4.1.05-6.14.13-1.58.06-3.15-.12-4.74,0-2.2.13-4.44-.1-6.66-.14a9.51,9.51,0,0,1-.09-.95q0-25.12.08-50.25c0-1.07.27-1.38,1.37-1.38q34.48.05,69,0a2.82,2.82,0,0,1,1.3.12h0l.13,5.38c-.12.1-.12.2,0,.3q0,8.34.07,16.67,0,4.17,0,8.36a3.14,3.14,0,0,1-.22,1.34h0c.24,1.26-.35,1.7-1.53,1.54-10.88.09-21.77-.25-32.65.19a2.72,2.72,0,0,0-3,2.87A9,9,0,0,0,88,94.35c0,.79,0,1.58,0,2.36s-.07,1.5-.09,2.25C87.85,101.86,88.05,104.76,87.82,107.65Z"/><path class="cls-6" d="M142.24,197.58c.44,0,.87-.09,1.31-.09H210c.44,0,.87.06,1.31.09-.18.73-.77,1-1.39,1.16a8.61,8.61,0,0,1-2.61.28H146.42c-1.35,0-2.74.05-3.84-1A2.6,2.6,0,0,1,142.24,197.58Z"/><path class="cls-6" d="M54.88,197.59c.44,0,.87-.09,1.31-.09h66.19c.44,0,.87.06,1.31.1-.24.84-1,1-1.67,1.15a13.8,13.8,0,0,1-2.73.29q-29.92,0-59.85,0a13.34,13.34,0,0,1-3.43-.5C55.5,198.39,55,198.2,54.88,197.59Z"/><path class="cls-1" d="M88,94.35A9,9,0,0,1,88,91.74a2.72,2.72,0,0,1,3-2.87c10.88-.43,21.77-.1,32.65-.19a1.37,1.37,0,0,1-1.18,1,11.06,11.06,0,0,1-2.61.27H93.66a8.19,8.19,0,0,0-2,.18,3.87,3.87,0,0,0-3.39,3.65C88.22,94,88.38,94.29,88,94.35Z"/><path class="cls-1" d="M87.82,107.65c.23-2.9,0-5.8.1-8.69,0-.75.06-1.5.09-2.25.44.32.22.79.22,1.18,0,6.44-.12,12.88.1,19.31.22,6.59,0,13.19.23,19.77.27,6.35.11,12.7.17,19.06,0,1.93.34,3.65,1.92,4.94.11.09.27.21.13.4a.8.8,0,0,1-.22.09c-2.63.17-2.65.17-2.65-2.41q0-24.62-.05-49.23C87.85,109.09,87.83,108.37,87.82,107.65Z"/><path class="cls-1" d="M212.72,196.29c0-1.12,0-2.23,0-3.35q0-32.14,0-64.28c0-.48,0-1,.07-1.42.75.16.35.76.35,1.12,0,5.43-.07,10.87.07,16.3.44,16.22.08,32.44.21,48.66a10.88,10.88,0,0,1-.27,2.73C213,196.23,213,196.47,212.72,196.29Z"/><path class="cls-1" d="M53.44,136.84c0,.28.07.55.07.83q0,28.6,0,57.21c0,.24,0,.47-.06.71-.5.14-.35-.27-.39-.48a21.05,21.05,0,0,1-.24-3.34c0-8.12-.1-16.23,0-24.34.16-9.87.19-19.74.23-29.61C53.07,137.49,52.71,136.93,53.44,136.84Z"/><path class="cls-1" d="M125.32,195.7c-.23-.28-.15-.61-.15-.92q0-14.06,0-28.11c0-.31-.08-.64.15-.91a6.46,6.46,0,0,1,.44,2.64q0,12.45,0,24.9A4.81,4.81,0,0,1,125.32,195.7Z"/><path class="cls-6" d="M141,165.44a3.14,3.14,0,0,1,.18,1.53q0,13.64,0,27.28a3.11,3.11,0,0,1-.18,1.53,7.62,7.62,0,0,1-.5-3.26q-.05-12,0-24.06A6.79,6.79,0,0,1,141,165.44Z"/><path class="cls-6" d="M180.47,145.45c.36.41.24.91.24,1.37q0,6.51,0,13c0,1.83-.12,1.92-2,1.57a7.27,7.27,0,0,0,1.58-5c0-3.19,0-6.39,0-9.58A2.06,2.06,0,0,1,180.47,145.45Z"/><path class="cls-1" d="M125.3,85.79q0-4.18,0-8.36c.23-.17.28,0,.29.17q0,4,0,8a.27.27,0,0,1-.09.2S125.37,85.8,125.3,85.79Z"/><path class="cls-1" d="M125.23,60.76c-.13-.1-.13-.2,0-.3C125.4,60.56,125.41,60.66,125.23,60.76Z"/><path class="cls-1" d="M125.09,87.14h0l.1,0Z"/><polygon class="cls-1" points="125.1 55.09 125.12 55.1 125.16 55.1 125.1 55.09"/><path class="cls-1" d="M125.44,164.13l-.07-.07.06-.09.1.13Z"/></g></g></svg>