<svg xmlns="http://www.w3.org/2000/svg" viewBox="0 0 814.94 739.69"><defs><style>.cls-1{fill:#e2e2e2;}.cls-2{fill:#2c2256;}.cls-3{fill:#3d2f76;}.cls-4{fill:#423380;}.cls-5{fill:#d8d8d8;}.cls-6{fill:#352968;}.cls-7{fill:#30255d;}.cls-8{fill:#cfcfcf;}.cls-9{fill:#463687;}.cls-10{fill:#c27215;}.cls-11{fill:#cccbcb;}.cls-12{fill:#ce7815;}.cls-13{fill:#f18e1b;}.cls-14{fill:#db8016;}.cls-15{fill:#e78718;}</style></defs><title>Fichier 13</title><g id="Calque_2" data-name="Calque 2"><g id="Calque_1-2" data-name="Calque 1"><rect class="cls-1" x="90.07" y="133.46" width="217" height="84"/><rect class="cls-1" x="108.07" y="115.46" width="225" height="18"/><rect class="cls-1" x="137.07" y="83.46" width="151" height="57"/><rect class="cls-1" x="180.07" y="58.46" width="81" height="53"/><rect class="cls-1" x="221.07" y="42.46" width="53" height="34"/><rect class="cls-1" x="247.07" y="26.46" width="60" height="26"/><rect class="cls-1" x="283.07" y="16.46" width="47" height="16"/><rect class="cls-1" x="316.07" y="10.46" width="34" height="14"/><rect class="cls-1" x="336.07" y="3.46" width="32" height="15"/><rect class="cls-1" x="361.07" y="1.46" width="28" height="9"/><rect class="cls-1" x="386.07" y="2.46" width="6" height="5"/><path class="cls-2" d="M794.15,487.31c3.76.53,1.29,2.7.86,4A351.14,351.14,0,0,1,771.58,545a362.33,362.33,0,0,1-67.29,89.53q-74.87,72.41-176.45,96c-34.59,8-69.55,9.79-104.81,8.76-5-.14-10-.66-14.93-1a1.61,1.61,0,0,0-2.11-.6l-6.89-.31c-.38-.29-.74-.78-1.14-.82a279.9,279.9,0,0,1-29.8-5.07c-63.2-13.4-119-41.66-167.41-84.24-44.33-39-77.25-86.21-99.05-141.11-2.39-6-5-12-6.55-18.71H787.66C789.83,487.46,792,487.36,794.15,487.31Z"/><path class="cls-3" d="M753.91,166.47c17,23.58,29.19,49.61,39.13,76.77,1.08,2.95,3.94,5.71,2.07,9.39-2.16-.05-4.32-.16-6.49-.16H104.35c-9.6,0-9.65,0-6.28-9.18,10-27.15,22.55-53,39-76.9,4.13,0,8.14,1.17,12.37.55,4-.59,8.42-1.32,12.16-.25,8.23,2.36,16.39-.14,24.47,0,12.81.17,25.78-.1,38.61.18,8,.18,16.08-.18,24.12.16,13.57.58,27.29.34,41-.38,14-.74,28.06,0,42.08.8a17.26,17.26,0,0,0,4.94-.39c3.63-.88,7.23-.55,10.88-.26,4.55.36,9.17,1,13.67.54a257.14,257.14,0,0,1,35.1-.85c2.31.1,4.4,1.11,6.86.88,10.34-1,20.69-2.38,31.1-.82,1.3.19,2.81,1,3.84.62,8-3.17,16.5,3.17,24.34-1.5.29-.17,1,.13,1.38.39,3.71,2.42,7.6,1.33,11.55.85,5.25-.65,10.57-1.48,15.8-1.23,3.81.18,7.46,2.63,11.54,1.81,6.58-1.34,13.16.26,19.73,0,7.37-.31,14.76-1.16,22.09-.83,7,.31,14,.15,21-.09,3.74-.12,7.48-1.33,11.26-.06,3.2,1.08,6.37.74,9.75.28,3.72-.51,7.43-1.94,11.32-1.13,11.15,2.31,22.49.1,33.76,1.47,6.23.76,12.77-1.68,19.21.28a7.89,7.89,0,0,0,3.92-.35c3.13-.79,6.19-.35,9.35-.1a92.45,92.45,0,0,0,15.08-.1c6.26-.55,13-1.92,18.7-.7,9.31,2,18.44.5,27.55.9C734.88,167.42,744.49,168,753.91,166.47Z"/><path class="cls-4" d="M753.91,166.47c-9.41,1.51-19,.95-28.35.53-9.11-.4-18.24,1.1-27.55-.9-5.65-1.22-12.44.15-18.7.7a92.45,92.45,0,0,1-15.08.1c-3.16-.24-6.22-.68-9.35.1a7.89,7.89,0,0,1-3.92.35c-6.44-2-13,.48-19.21-.28-11.27-1.37-22.61.84-33.76-1.47-3.89-.81-7.61.63-11.32,1.13-3.38.46-6.55.8-9.75-.28-3.78-1.27-7.52-.07-11.26.06-7,.23-14,.39-21,.09-7.34-.32-14.73.53-22.09.83-6.58.27-13.15-1.33-19.73,0-4.08.83-7.72-1.62-11.54-1.81-5.24-.25-10.56.58-15.8,1.23-3.94.49-7.84,1.57-11.55-.85-.39-.26-1.09-.56-1.38-.39-7.85,4.66-16.37-1.67-24.34,1.5-1,.41-2.54-.43-3.84-.62-10.41-1.56-20.76-.15-31.1.82-2.46.23-4.55-.79-6.86-.88a257.14,257.14,0,0,0-35.1.85c-4.5.43-9.12-.18-13.67-.54-3.65-.29-7.25-.62-10.88.26a17.26,17.26,0,0,1-4.94.39c-14-.76-28.08-1.54-42.08-.8-13.67.72-27.38,1-41,.38-8-.34-16.12,0-24.12-.16-12.83-.28-25.81,0-38.61-.18-8.08-.11-16.24,2.38-24.47,0-3.74-1.07-8.15-.33-12.16.25-4.23.62-8.24-.6-12.37-.55-.42-1.86,1.93-2.32,2-3.94,14.22-20.26,29.73-39.46,47.52-56.71,8.45-8.19,17-16.27,26.53-23.26a1.76,1.76,0,0,0,.46.2,129.66,129.66,0,0,0,16.89,1.16c6-.12,12.1-1.33,18.13-.27,4.64.82,9.18-2.24,12.9-1.39,8.92,2,17.75,1,26.57,1.16,11.24.21,22.5-.87,33.74-.77,12.48.11,24.93.09,37.45,1.13,9.74.81,19.89.06,29.85-.15,2.45,0,4.41-2.42,6.63-1.58,4.91,1.87,9.74,1.12,14.67.54a8,8,0,0,1,5.34.81,4.16,4.16,0,0,0,4.67,0c2.31-1.32,4.78-.89,7.29-.57a50.89,50.89,0,0,0,13.63.15c4.12-.59,8.48-1.6,12.41-.8,3.25.66,6.62,2.07,9.69,1.2,8.11-2.3,16.05.88,24.27.14,6.74-.61,14.45-2.7,21.45.75.58.29,1.58-.23,2.37-.43,10.34-2.54,20.82-1.39,31.23-.82,4.65.25,9.19.78,13.82-.14,9.81-1.95,19.75-.32,29.39.59,6.59.62,12.68-.26,19-.76,2.78-.22,5.55-2.1,8.3-.92,9.34,4,19.06.68,28.51,1.08,8.86.37,18.07,1,27.09-.26,3.18-.45,6.42,2.14,9.71.14l.34.32c-.4.62-.9,1.31-.09,1.9s1-.2,1.38-.65c11.86,8.85,22.52,19,32.68,29.73a374.91,374.91,0,0,1,40,49.84C753.42,164.62,754.22,165.33,753.91,166.47Z"/><path class="cls-1" d="M139,162.45c-.07,1.62-2.41,2.08-2,3.94-16.41,23.9-29,49.75-39,76.9-3.37,9.16-3.32,9.18,6.28,9.18H788.62c2.16,0,4.32.1,6.49.16q6.76,21.09,11.42,42.75c.27,1.29.39,2.61.58,3.92-2,.06-4,.16-6,.16H89.73c-1.33,0-2.67.08-4,0-2.26-.16-3.43.22-3.8,3.06-1,7.69-2.59,15.3-3.94,22.95H60.07l1.93-17c.84-4.07,1.71-8.13,2.52-12.21a413.9,413.9,0,0,1,15.34-55,231.57,231.57,0,0,1,12.53-29.67c1.31-2.49,2.64-5,3.94-7.47,7.64-14.74,15.52-29.35,25.57-42.65,3.63.45,7.27,1.13,10.89.22C135,161.08,137,162.15,139,162.45Z"/><path class="cls-5" d="M60.07,325.47H78c-.44,6.28-.68,12.59-1.41,18.84-.29,2.51.16,3.39,2.65,3.18,1.32-.11,2.66,0,4,0H806.64c2.16,0,4.32.12,6.48.18a245.24,245.24,0,0,1,0,46.62c-2.16.06-4.32.18-6.49.18H83.77c-1.5,0-3,.07-4.5,0-2-.11-2.57.59-2.36,2.64.48,4.77.68,9.57,1,14.36-6.22,1.07-12.44-.48-18.66,0-1.62-18.05-2.86-36.14-2-54.26C57.77,346.59,57.91,335.93,60.07,325.47Z"/><path class="cls-6" d="M813.12,347.65c-2.16-.06-4.32-.18-6.48-.18H83.22c-1.33,0-2.67-.09-4,0-2.49.21-2.94-.67-2.65-3.18.73-6.25,1-12.56,1.41-18.84,1.35-7.64,2.94-15.26,3.94-22.95.37-2.85,1.54-3.22,3.8-3.06,1.33.09,2.67,0,4,0H801.12c2,0,4-.11,6-.16,3.57.49,2.28,3.87,2.6,5.54,2.54,13.4,3.81,27,5.21,40.55C815.07,346.88,814.53,347.54,813.12,347.65Z"/><path class="cls-7" d="M77.91,411.45c-.31-4.79-.51-9.59-1-14.36-.21-2,.4-2.74,2.36-2.64,1.5.08,3,0,4.5,0H806.63c2.16,0,4.32-.11,6.49-.18.71.29,1.61.24,1.51,1.51a398.29,398.29,0,0,1-5.49,42.64c-.26,1.38-.61,2.12-2,2.2-2.16-.06-4.32-.17-6.49-.17H90.28c-1.5,0-3-.07-4.5,0-2.23.13-3.48-.15-3.84-3C80.87,428.74,79.29,420.11,77.91,411.45Z"/><path class="cls-8" d="M77.91,411.45c1.38,8.66,3,17.29,4,26,.35,2.89,1.61,3.17,3.84,3,1.49-.09,3,0,4.5,0H800.64c2.16,0,4.32.11,6.49.17-2.15,12.85-5.76,25.35-9.27,37.87a15.46,15.46,0,0,1-1.61,3q-15.62,0-31.24-.06H731.92c-11.79,0-23.57,0-35.36,0-3.13,0-6.36-.52-9.24,1.33-1.39.89-2.62.07-3.7-.64-3.58-2.34-8.19-2-11.21-.95-8.6,2.89-17.06.23-25.54.73-7.77.47-15.64-1.25-23.58-.21a68.4,68.4,0,0,1-17.19.5c-8-1-15.89-.86-23.86-.85-2.14,0-4,1-6.34.62-7.15-1.27-14.46-.07-21.65,0-8.19,0-16.52.91-24.66.21-12.14-1-24.21-.71-36.33-.33-8.29.26-16.75,1.39-24.85.21-11-1.6-21.84-.41-32.62,0-11.9.46-23.69-1.12-35.67-.29-10.16.7-20.72,0-31.08,0-8.33,0-16.74.51-25.11.6a285.83,285.83,0,0,1-28.77-1c-8.34-.75-16.23,2.81-25,.63-6-1.49-13.2.24-19.89,0-5.9-.24-11.92,1.5-17.72.3-9.23-1.91-18.44,0-27.65-.38-6.07-.24-12.36,1.07-18.62.62-3-.21-5.78-1.15-8.87-1a125.22,125.22,0,0,1-19.05-.3c-3.21-.36-6.17-.65-9.26.28a14.73,14.73,0,0,1-7.27.3c-4.85-.91-10-1.79-14.8-1.07-7.58,1.13-15.25-1.32-22.61.88-5.8,1.73-11.5.07-16.93-.64-4.7-.61-8.33,1.54-12.56,1.67-7,.22-13.87-.9-20.72-2.13-1.06-3.31-2.21-6.59-3.16-9.93a429.19,429.19,0,0,1-10.72-49.19l-1.09-9.89C65.47,411,71.69,412.52,77.91,411.45Z"/><path class="cls-9" d="M678.53,82.67c-3.28,2-6.52-.59-9.71-.14-9,1.28-18.22.64-27.09.26-9.46-.4-19.17,2.91-28.51-1.08-2.76-1.18-5.52.7-8.3.92-6.3.5-12.39,1.38-19,.76-9.65-.91-19.59-2.53-29.39-.59-4.63.92-9.18.4-13.82.14-10.41-.56-20.88-1.72-31.23.82-.79.19-1.79.71-2.37.43-7-3.45-14.71-1.36-21.45-.75-8.22.74-16.16-2.44-24.27-.14-3.08.87-6.44-.54-9.69-1.2-3.93-.8-8.29.21-12.41.8a50.89,50.89,0,0,1-13.63-.15c-2.51-.32-5-.74-7.29.57a4.16,4.16,0,0,1-4.67,0,8,8,0,0,0-5.34-.81c-4.92.58-9.76,1.32-14.67-.54-2.22-.84-4.18,1.53-6.63,1.58-10,.2-20.11,1-29.85.15-12.52-1-25-1-37.45-1.13-11.24-.1-22.5,1-33.74.77-8.82-.16-17.65.88-26.57-1.16-3.72-.85-8.26,2.21-12.9,1.39-6-1.06-12.15.15-18.13.27a129.66,129.66,0,0,1-16.89-1.16,1.76,1.76,0,0,1-.46-.2c24-20,50.49-35.94,78.8-49,30.33-14,62.11-23.28,95-28.83A353.19,353.19,0,0,1,467.92.77q107.62,6.75,195.35,70C668.5,74.53,673.45,78.69,678.53,82.67Z"/><path class="cls-10" d="M60.33,421.34a429.19,429.19,0,0,0,10.72,49.19c1,3.34,2.1,6.62,3.16,9.93.37,1.44.64,2.92,1.12,4.33Q124.12,627.92,257.8,698.6c41.45,21.79,85.84,34.24,132.37,39.19a1.46,1.46,0,0,0-.09.68c-12.09,1.79-24.26,1.22-36.36.67C299,736.67,247,723.37,198.7,697.47,101.89,645.56,39.53,566.13,11.2,460a241.51,241.51,0,0,1-6.92-35.53c2.45-.33,4.43-2.6,7.06-2,6.07,1.48,12.06.77,18.15.08a56.38,56.38,0,0,1,13.87.25C49.22,423.63,54.75,422.58,60.33,421.34Z"/><path class="cls-11" d="M390.17,737.8c-46.52-5-90.92-17.4-132.37-39.19Q123.94,628.24,75.34,484.79c-.48-1.41-.75-2.88-1.12-4.33,6.85,1.23,13.67,2.34,20.72,2.13,4.23-.13,7.86-2.28,12.56-1.67,5.43.71,11.13,2.36,16.93.64,7.36-2.19,15,.25,22.61-.88,4.79-.71,9.95.16,14.8,1.07a14.73,14.73,0,0,0,7.27-.3c3.08-.93,6-.64,9.26-.28a125.22,125.22,0,0,0,19.05.3c3.08-.13,5.9.81,8.87,1,6.26.45,12.55-.86,18.62-.62,9.21.37,18.42-1.54,27.65.38,5.8,1.2,11.81-.53,17.72-.3,6.7.27,13.89-1.47,19.89,0,8.77,2.18,16.66-1.37,25-.63a285.83,285.83,0,0,0,28.77,1c8.36-.1,16.78-.65,25.11-.6,10.36.05,20.92.74,31.08,0,12-.83,23.76.76,35.67.29,10.77-.42,21.65-1.61,32.62,0,8.1,1.18,16.55,0,24.85-.21,12.12-.38,24.19-.71,36.33.33,8.14.7,16.48-.16,24.66-.21,7.19,0,14.5-1.25,21.65,0,2.33.42,4.2-.61,6.34-.62,8,0,15.88-.15,23.86.85a68.4,68.4,0,0,0,17.19-.5c7.94-1,15.81.67,23.58.21,8.48-.51,16.94,2.16,25.54-.73,3-1,7.62-1.39,11.21.95,1.08.71,2.32,1.53,3.7.64,2.89-1.86,6.11-1.33,9.24-1.33,11.79,0,23.57,0,35.36,0H765q15.62,0,31.24.06l-2.1,5.78c-2.16.05-4.33.16-6.49.16H95.13c1.6,6.69,4.16,12.68,6.55,18.71,21.8,54.9,54.72,102.12,99.05,141.11,48.42,42.58,104.21,70.84,167.41,84.24a279.9,279.9,0,0,0,29.8,5.07c.4,0,.76.54,1.14.82-.7,1.15-1.73,1-2.81.72Z"/><path class="cls-12" d="M60.33,421.34c-5.59,1.24-11.12,2.3-17,1.49a56.38,56.38,0,0,0-13.87-.25c-6.1.69-12.09,1.4-18.15-.08-2.63-.64-4.61,1.63-7.06,2a351.1,351.1,0,0,1,1.11-116,366.49,366.49,0,0,0,56.6,0l-1.93,17c-2.15,10.46-2.29,21.12-2.8,31.72-.87,18.13.37,36.21,2,54.26Z"/><path class="cls-13" d="M107.71,109.75c12.69-14,27.23-26,42.41-37.06q87.52-64,195.78-71.45c12.32-.83,24.63-.79,37-.62A25.67,25.67,0,0,1,392.12,2,374.65,374.65,0,0,0,339,11Q235,36.82,160.39,113.71c-.69.71-1.5,1.29-2.25,1.93-2-3.51-5.11-4.4-8.66-3.17-6.85,2.36-13.94-3.63-20.68.73-.16.1-.61-.2-.9-.35-3.91-2.06-7.94-1.36-12.1-.91C113,112.25,109.88,112.39,107.71,109.75Z"/><path class="cls-14" d="M62,308.46a366.49,366.49,0,0,1-56.6,0c4.29-28.23,12.68-55.28,23.43-81.65,2.42-5.94,4.8-11.9,8.24-17.36,2.15,0,4.3,0,6.45,0,9.4.07,18.76,1.82,28.16.93,7-.66,13.89-.85,20.71,1.16a231.57,231.57,0,0,0-12.53,29.67,413.9,413.9,0,0,0-15.34,55C63.71,300.33,62.84,304.4,62,308.46Z"/><path class="cls-15" d="M92.39,211.55c-6.81-2-13.71-1.82-20.71-1.16-9.41.89-18.76-.86-28.16-.93-2.15,0-4.3,0-6.45,0,9.06-20.33,20.77-39.09,33.85-57,11.1-15.22,22.9-29.87,36.8-42.69,2.17,2.64,5.33,2.5,8.09,2.19,4.15-.46,8.18-1.15,12.1.91.29.15.74.45.9.35,6.74-4.37,13.83,1.63,20.68-.73,3.55-1.22,6.67-.34,8.66,3.17-11.72,13.45-23.66,26.73-33.62,41.6-.92,1.37-1.75,2.79-2.62,4.18-10.05,13.3-17.93,27.9-25.57,42.65C95,206.58,93.71,209.06,92.39,211.55Z"/><path class="cls-13" d="M390.17,737.8l6.11.35c-2.07.13-4.08,1.27-6.2.33A1.48,1.48,0,0,1,390.17,737.8Z"/><path class="cls-9" d="M680.16,84.24c-.35.45-.71,1.13-1.38.65s-.31-1.28.09-1.9Z"/><path class="cls-11" d="M406,737.74a1.61,1.61,0,0,1,2.11.6C406.91,739.83,406.34,739.16,406,737.74Z"/></g></g></svg>