<svg xmlns="http://www.w3.org/2000/svg" viewBox="0 0 494.4 494.4"><defs><style>.cls-1{fill:#1d1d1b;}.cls-2{fill:#b4b4b3;}.cls-3{fill:#b3b3b3;}.cls-4{fill:#555554;}.cls-5{fill:#9a9a99;}.cls-6{fill:#8f8f8e;}.cls-7{fill:#686867;}.cls-8{fill:#c1c1c0;}.cls-9{fill:#8bcf48;}.cls-10{fill:#6ea339;}</style></defs><title>Fichier 10</title><g id="Calque_2" data-name="Calque 2"><g id="Calque_1-2" data-name="Calque 1"><path class="cls-1" d="M494.4,105.6V388.8a10.12,10.12,0,0,0-.4,4.38,14.41,14.41,0,0,0,0,3.33,90.92,90.92,0,0,1-3.91,21.15c-12.36,42.1-50.54,73.06-94.05,76.28a54.33,54.33,0,0,0-6.61.16,7.58,7.58,0,0,0-2.62-.17H108.84a9.58,9.58,0,0,0-2.86.15l-4.72-.11a11.47,11.47,0,0,0-2.86,0,140.78,140.78,0,0,1-16.51-2.83c-39.5-9.6-71-42.35-79-82.23A136,136,0,0,1,.67,392.26C1,390,.6,387.65.6,385.34q0-138,0-276.05c0-1.6.09-3.2.14-4.79a3.63,3.63,0,0,0-.12-1.89C1,98.39,1.29,94.16,2,90,6.89,62.65,20.13,40.24,42,23.07,59.88,9,80.42,1.64,103.17.42c1.59,0,3.19.06,4.78.06H387.17c1.51,0,3,0,4.54-.07a105.74,105.74,0,0,1,17.11,2.12c31.25,6.9,55.13,24.11,71.4,51.65A100.07,100.07,0,0,1,494,97.9l0,3.32A9.53,9.53,0,0,0,494.4,105.6ZM238.29,315.76v.07c-8.08,0-16.16-.05-24.23,0a10.12,10.12,0,0,1-9.2-5c-.64-1-1.23-2.06-1.81-3.11-3.41-6.06-6.79-12.14-10.22-18.2-6.29-11.14-12.71-22.21-19.39-33.12a16.33,16.33,0,0,1-.37-17.51c.81-1.47,1.67-2.91,2.51-4.37l58.21-100.73q4.92-8.52,9.85-17c2.61-4.54,2.16-5.32-3-5.3h-1.92c-3.84,0-7.68.06-11.52.05l-48-.06c-6.36,0-11.26,2.58-14.55,8.09-.45.76-.91,1.51-1.34,2.27Q129,181.92,94.26,241.77C92,245.7,92,249,94.3,252.9Q118.79,295,143,337.23q7.13,12.36,14.26,24.73c5.79,10.11,14.27,16.65,25.64,19.35a65.3,65.3,0,0,0,13.3,1.66c9.43.26,18.87-.22,28.31.05a7.73,7.73,0,0,0,6.61-3.3,17.74,17.74,0,0,0,1.3-2q16.27-28.83,33-57.38a12.32,12.32,0,0,0,1-2.16c.4-1.13,0-1.91-1.12-2.16a14.59,14.59,0,0,0-3.1-.24Q250.28,315.74,238.29,315.76ZM284.7,383c10.32,0,20.63-.13,30.95,0a15.57,15.57,0,0,0,13.71-7c.87-1.24,1.65-2.55,2.41-3.87,3.63-6.31,7.21-12.64,10.84-18.95Q371.49,303,400.44,252.83c2.27-3.92,2.42-7.26,0-11.14-4-6.38-7.6-13-11.38-19.47q-25.41-43.77-50.43-87.77c-5-8.91-12-15.71-21.65-19.53a52.18,52.18,0,0,0-19-3.41c-8.8-.08-17.6,0-26.39-.1a9.42,9.42,0,0,0-9.18,5.24c-10.73,19.19-21.75,38.22-32.86,57.19a14.63,14.63,0,0,0-1.06,2.15c-.63,1.65-.28,2.36,1.47,2.76a11.62,11.62,0,0,0,2.62.24q19.79,0,39.59,0c2.8,0,5.6,0,8.4-.07A10.44,10.44,0,0,1,290,184c.61.94,1.16,1.91,1.71,2.89,1.85,3.27,3.68,6.55,5.53,9.82,8.47,15,17.13,29.81,25.86,44.62a10.73,10.73,0,0,1,0,11.77c-12.13,20.42-23.8,41.1-35.67,61.67q-18.35,31.78-36.58,63.63c-.32.55-.65,1.11-.92,1.69-.9,1.94-.54,2.56,1.65,2.78,1,.1,1.92.08,2.88.08ZM50.41,111.44v0q-15.12,0-30.24,0a19.68,19.68,0,0,0-3.58.33c-2,.36-2.35,1-1.55,2.77a33.07,33.07,0,0,0,1.55,3q13,22.57,25.94,45.13l29.17,50.75c2.59,4.51,5.12,9,7.8,13.5,1.64,2.73,2.82,2.67,4.49,0,.17-.27.32-.55.48-.83q12.85-22.36,25.71-44.72,3.71-6.45,7.49-12.85a8.44,8.44,0,0,0,.24-9.09c-.32-.56-.6-1.13-.93-1.68q-10.71-18.06-21-36.33c-.35-.63-.74-1.23-1.09-1.86-3.09-5.59-8-8.12-14.21-8.14C70.57,111.42,60.49,111.44,50.41,111.44ZM444.61,383v0h30.71a17.76,17.76,0,0,0,2.63-.09c2-.31,2.61-1.3,1.81-3.2a25.35,25.35,0,0,0-1.46-2.75q-12.89-22.33-25.8-44.65Q434,300.11,415.43,267.88a9.09,9.09,0,0,0-1.24-1.75c-.89-.94-1.51-.92-2.43,0a17,17,0,0,0-2.21,3.41q-12.9,22.47-25.79,44.93c-2.23,3.88-4.44,7.78-6.77,11.6a7.93,7.93,0,0,0,0,9.21c.13.2.25.41.38.61l16.49,28.42c2.37,4.08,4.7,8.18,7.09,12.25a12.39,12.39,0,0,0,7.92,5.79,19.64,19.64,0,0,0,5,.61C424.13,383,434.37,383,444.61,383Z"/><path class="cls-2" d="M.67,392.26l-.67-.1Q0,247.44,0,102.72l.65-.11a3.63,3.63,0,0,1,.12,1.89c0,1.6-.14,3.2-.14,4.79q0,138,0,276.05C.6,387.65,1,390,.67,392.26Z"/><path class="cls-3" d="M391.68,0a2.15,2.15,0,0,1,0,.41c-1.51,0-3,.07-4.54.07H108c-1.59,0-3.19,0-4.78-.06q0-.21,0-.42Z"/><path class="cls-4" d="M106,494.07a9.58,9.58,0,0,1,2.86-.15H386.78a7.58,7.58,0,0,1,2.62.16.36.36,0,0,1-.12.31H106.08A.58.58,0,0,1,106,494.07Z"/><path class="cls-5" d="M389.28,494.4a.36.36,0,0,0,.12-.31,54.38,54.38,0,0,1,6.61-.16v.47Z"/><path class="cls-6" d="M106,494.07a.58.58,0,0,0,.1.33h-4.8a.78.78,0,0,0,0-.43Z"/><path class="cls-7" d="M494.4,105.6a9.52,9.52,0,0,1-.41-4.38,1.83,1.83,0,0,1,.41.06Z"/><path class="cls-7" d="M494,393.18a10.12,10.12,0,0,1,.4-4.38v4.32A1.27,1.27,0,0,1,494,393.18Z"/><path class="cls-8" d="M494.4,101.28a1.83,1.83,0,0,0-.41-.06l0-3.32a1.74,1.74,0,0,0,.43,0Z"/><path class="cls-3" d="M494,393.18a1.27,1.27,0,0,0,.4-.06v3.36h-.22l-.21,0A14.41,14.41,0,0,1,494,393.18Z"/><path class="cls-8" d="M101.26,494a.78.78,0,0,1,0,.43H98.4a.77.77,0,0,0,0-.47A11.47,11.47,0,0,1,101.26,494Z"/><path class="cls-9" d="M238.29,315.76q12,0,24,0a14.59,14.59,0,0,1,3.1.24c1.15.25,1.51,1,1.12,2.16a12.32,12.32,0,0,1-1,2.16q-16.77,28.54-33,57.38a17.74,17.74,0,0,1-1.3,2,7.73,7.73,0,0,1-6.61,3.3c-9.44-.27-18.87.21-28.31-.05a65.3,65.3,0,0,1-13.3-1.66c-11.37-2.7-19.85-9.24-25.64-19.35q-7.1-12.38-14.26-24.73Q118.69,295,94.3,252.9C92,249,92,245.7,94.26,241.77Q129,181.94,163.32,121.82c.44-.76.89-1.52,1.34-2.27,3.29-5.51,8.2-8.1,14.55-8.09l48,.06c3.84,0,7.68,0,11.52-.05h1.92c5.14,0,5.59.77,3,5.3q-4.91,8.52-9.85,17L175.57,234.51c-.84,1.45-1.7,2.9-2.51,4.37a16.33,16.33,0,0,0,.37,17.51c6.68,10.91,13.1,22,19.39,33.12,3.42,6.06,6.81,12.13,10.22,18.2.59,1,1.17,2.1,1.81,3.11a10.12,10.12,0,0,0,9.2,5c8.08-.08,16.16,0,24.23,0Z"/><path class="cls-9" d="M284.7,383H254.47c-1,0-1.92,0-2.88-.08-2.19-.22-2.55-.84-1.65-2.78.27-.58.6-1.13.92-1.69q18.28-31.82,36.58-63.63c11.87-20.57,23.54-41.25,35.67-61.67a10.73,10.73,0,0,0,0-11.77c-8.73-14.81-17.38-29.66-25.86-44.62-1.85-3.27-3.68-6.55-5.53-9.82-.55-1-1.1-1.95-1.71-2.89a10.44,10.44,0,0,0-9.44-5.13c-2.8,0-5.6.07-8.4.07q-19.79,0-39.59,0a11.62,11.62,0,0,1-2.62-.24c-1.75-.41-2.1-1.11-1.47-2.76a14.63,14.63,0,0,1,1.06-2.15c11.11-19,22.14-38,32.86-57.19a9.42,9.42,0,0,1,9.18-5.24c8.8.13,17.6,0,26.39.1a52.18,52.18,0,0,1,19,3.41c9.64,3.83,16.61,10.62,21.65,19.53q24.92,44.05,50.43,87.77c3.77,6.5,7.4,13.09,11.38,19.47,2.41,3.87,2.27,7.22,0,11.14q-29,50.13-57.83,100.39c-3.63,6.31-7.22,12.64-10.84,18.95-.76,1.32-1.54,2.62-2.41,3.87a15.57,15.57,0,0,1-13.71,7C305.33,382.85,295,383,284.7,383Z"/><path class="cls-10" d="M50.41,111.44c10.08,0,20.16,0,30.24,0,6.26,0,11.12,2.54,14.21,8.14.35.63.74,1.24,1.09,1.86q10.32,18.28,21,36.33c.33.55.61,1.12.93,1.68a8.44,8.44,0,0,1-.24,9.09q-3.8,6.4-7.49,12.85-12.87,22.35-25.71,44.72c-.16.28-.31.56-.48.83-1.68,2.65-2.85,2.7-4.49,0-2.68-4.45-5.21-9-7.8-13.5L42.54,162.68q-13-22.57-25.94-45.13a33.07,33.07,0,0,1-1.55-3c-.79-1.78-.43-2.41,1.55-2.77a19.68,19.68,0,0,1,3.58-.33q15.12,0,30.24,0Z"/><path class="cls-10" d="M444.61,383c-10.24,0-20.48,0-30.71,0a19.64,19.64,0,0,1-5-.61,12.39,12.39,0,0,1-7.92-5.79c-2.39-4.07-4.73-8.16-7.09-12.25L377.4,335.94c-.12-.21-.24-.41-.38-.61a7.93,7.93,0,0,1,0-9.21c2.33-3.82,4.54-7.72,6.77-11.6q12.9-22.46,25.79-44.93a17,17,0,0,1,2.21-3.41c.91-1,1.53-1,2.43,0a9.09,9.09,0,0,1,1.24,1.75Q434,300.1,452.52,332.32q12.87,22.34,25.8,44.65a25.35,25.35,0,0,1,1.46,2.75c.8,1.89.24,2.89-1.81,3.2a17.76,17.76,0,0,1-2.63.09H444.61Z"/></g></g></svg>