<svg xmlns="http://www.w3.org/2000/svg" viewBox="0 0 480.29 479.6"><defs><style>.cls-1{fill:#21af32;}.cls-2{fill:#2add3f;}.cls-3{fill:#25c137;}.cls-4{fill:#17301a;}.cls-5{fill:#16371a;}.cls-6{fill:#144319;}</style></defs><title>Fichier 15</title><g id="Calque_2" data-name="Calque 2"><g id="Calque_1-2" data-name="Calque 1"><path class="cls-1" d="M.24,479.32q0-128.28,0-256.56c.74,0,1.48,0,2.22,0a9.54,9.54,0,0,0,3.1,0c.6-.18,1-.27,1.5.11a3.24,3.24,0,0,0,1.6.38c1.31.2,2.65-.7,3.95.1.1.06.37-.1.53-.19a3,3,0,0,1,3.36.13.72.72,0,0,0,1,0,3.73,3.73,0,0,1,3.81-.08c.86.45,1.34,1.6,2.24.14,0-.07.23-.09.34-.06,2,.51,4-.27,5.93-.16.8,0,1.38.09,1.26-1.16.68.76,1.19,1.35,2.06,1.25,0,.64,0,1.28,0,1.92q0,40.93,0,81.86c0,.64,0,1.28,0,1.92s0,1,0,1.56q0,67.43,0,134.87c0,1.82,0,1.82,1.8,1.82H445.75c2.41,0,2.11.3,2.11-2.09q0-111.71,0-223.42c0-.68,0-1.36,0-2a30.89,30.89,0,0,1,5.7.27,25.07,25.07,0,0,0,6.1.07c2-.07,3.88,0,5.82.11.73,0,1.37-.31,2.11-.23,1.19.14,2.43.43,3.56-.31a1,1,0,0,1,.93,0,11.84,11.84,0,0,0,3.33.4c1.64.21,3.36-.25,5,.19v259.2c-.6,0-1.2-.06-1.8-.06H2C1.44,479.26.84,479.3.24,479.32Z" transform="translate(-0.22 -0.02)"/><path class="cls-2" d="M.24,91.48q0-45.18,0-90.36C.22.22.42,0,1.32,0q239,0,478.08,0c.9,0,1.1.2,1.1,1.1q0,43.74,0,87.48c-.87,0-2-1.1-2.53.55,0,.08-.52,0-.79,0-1.33-.12-2.45-.9-3.69-1.31a1.47,1.47,0,0,0-1.85.37,2.33,2.33,0,0,1-2.43.68c-1.48-.51-3,.59-4.42-.35,0,0-.08,0-.12,0-1.53-.6-3.44.76-4.76-1a.59.59,0,0,0-.87.09c-.29.34.07.48.29.62s.49.44.18.77a.67.67,0,0,1-1,.15,5.62,5.62,0,0,0-6-.46,1.1,1.1,0,0,1-.69,0c-1.34-.16-2.68-.3-4-.44,0-.52,0-1,0-1.56q0-26.33,0-52.67c0-1.94.24-1.69-1.74-1.69H207.36c-.56,0-1.12,0-1.68,0-.36,0-.72,0-1.08,0q-85.05,0-170.1,0c-1.21,0-1.42.38-1.42,1.49q0,28,0,55.9c0,.56,0,1.12,0,1.68a1,1,0,0,1-1.25-.37.34.34,0,0,0-.52-.1.47.47,0,0,0-.12.41c.69,1.64-.77,1.11-1.13.91-2-1.1-4.2-.07-6.16-1a2.38,2.38,0,0,0-1.28-.19c-1.29.14-2.52.85-3.88.45-.18-.05-.45.12-.65.24s-.51.33-.78.16c-1.07-.66-2.18-.21-3.27-.12-.73.06-1.42.21-1.95-.52a.89.89,0,0,0-1.2-.18,8.3,8.3,0,0,0-1.77,1C8.22,93,7.48,93,6.72,92c-.43-.56-1.08-.39-1.68-.37s-.5.47-.62.84c-.19.59-.69.45-.94.13A3.44,3.44,0,0,0,.24,91.48Z" transform="translate(-0.22 -0.02)"/><path class="cls-3" d="M.24,91.48a3.44,3.44,0,0,1,3.25,1.11c.25.32.74.46.94-.13.12-.37,0-.83.62-.84s1.25-.19,1.68.37c.76,1,1.5,1,2.42.18a8.3,8.3,0,0,1,1.77-1,.89.89,0,0,1,1.2.18c.53.73,1.22.58,1.95.52,1.09-.09,2.2-.54,3.27.12.27.17.53,0,.78-.16s.47-.3.65-.24c1.36.41,2.59-.3,3.88-.45a2.38,2.38,0,0,1,1.28.19c2,.91,4.21-.11,6.16,1,.36.2,1.83.73,1.13-.91a.47.47,0,0,1,.12-.41.34.34,0,0,1,.52.1,1,1,0,0,0,1.25.37c0,.52,0,1,0,1.56q0,64.38,0,128.77c0,.48,0,1,0,1.44-.87.1-1.37-.49-2.06-1.25.12,1.25-.46,1.2-1.26,1.16-2-.11-3.93.67-5.93.16-.1,0-.3,0-.34.06-.89,1.46-1.38.31-2.24-.14a3.73,3.73,0,0,0-3.81.08.72.72,0,0,1-1,0,3,3,0,0,0-3.36-.13c-.17.09-.43.25-.53.19-1.3-.8-2.64.11-3.95-.1a3.24,3.24,0,0,1-1.6-.38c-.5-.39-.9-.29-1.5-.11a9.54,9.54,0,0,1-3.1,0c-.74,0-1.48-.07-2.22,0Zm11.17.58L11.5,92a1.12,1.12,0,0,0-.12-.13s-.05,0-.08.06Z" transform="translate(-0.22 -0.02)"/><path class="cls-3" d="M447.88,88.35c1.34.14,2.68.28,4,.44a1.1,1.1,0,0,0,.69,0,5.62,5.62,0,0,1,6,.46.67.67,0,0,0,1-.15c.31-.33.13-.57-.18-.77s-.58-.29-.29-.62a.59.59,0,0,1,.87-.09c1.32,1.72,3.24.36,4.76,1,0,0,.09,0,.12,0,1.39.93,2.94-.16,4.42.35a2.33,2.33,0,0,0,2.43-.68,1.47,1.47,0,0,1,1.85-.37c1.24.4,2.35,1.19,3.69,1.31.27,0,.76.07.79,0,.54-1.65,1.67-.51,2.53-.55V220.12c-1.67-.44-3.39,0-5-.19a11.84,11.84,0,0,1-3.33-.4,1,1,0,0,0-.93,0c-1.14.74-2.38.45-3.56.31-.75-.09-1.38.25-2.11.23-1.94-.07-3.87-.18-5.82-.11a25.07,25.07,0,0,1-6.1-.07,30.89,30.89,0,0,0-5.7-.27c0-.4,0-.8,0-1.2q0-64.38,0-128.77C447.83,89.23,447.86,88.79,447.88,88.35Z" transform="translate(-0.22 -0.02)"/><path class="cls-2" d="M.24,479.32c.6,0,1.2-.06,1.8-.06H478.68c.6,0,1.2,0,1.8.06-.05.07.12.25-.12.24h-1q-239,0-478.08,0C1,479.55.51,479.82.24,479.32Z" transform="translate(-0.22 -0.02)"/><path class="cls-4" d="M447.88,88.35c0,.44,0,.88,0,1.32q0,64.38,0,128.77c0,.4,0,.8,0,1.2,0,.68,0,1.36,0,2q0,111.71,0,223.42c0,2.39.3,2.09-2.11,2.09H34.91c-1.8,0-1.8,0-1.8-1.82q0-67.43,0-134.87c0-.52,0-1,0-1.56.47.32.43.82.44,1.3.19,4.82-.2,9.64.4,14.48.47,3.82.26,7.73.45,11.6.39,7.61,0,15.25.56,22.87.21,2.71-.31,5.48.18,8.14a40.92,40.92,0,0,1,.56,7.75c0,2-.15,3.92.78,5.76a2.61,2.61,0,0,1,.17,1.06c.15,4.47.11,8.93.38,13.41.34,5.77.52,11.58.36,17.38-.22,7.88.73,15.73.54,23.61a9.85,9.85,0,0,0,2,6.54c1.67,2.05,4.17,2.23,6.55,2.4,4.36.31,8.7-.53,13-.4,8.29.26,16.52-.77,24.78-.79a1.12,1.12,0,0,0,.36,0c3.07-1.07,6.26-.61,9.4-.65a22.34,22.34,0,0,0,5.72-.42,24.68,24.68,0,0,1,7.47-.8,17.14,17.14,0,0,0,7.54-1c.53-.23,1.25-.07,1.63-.65a1.85,1.85,0,0,1,1.79-.73c2.6,0,5.2-.06,7.8,0,3.67.1,6.15-2,8.42-4.46.81-.87,1.59-1.77,2.44-2.6l5.25-5.08c1.37-1.33,2.49-2.92,3.8-4.24,2-2,4.29-3.74,6.17-6,1.22-1.44,2.84-2.53,4.11-4,2-2.27,4.69-3.89,6.06-6.72a.6.6,0,0,1,.27-.23,17.3,17.3,0,0,0,4.85-4.18c1.28-1.41,2.7-2.69,4-4.09,1.74-1.88,3.9-3.37,5.47-5.44,1-1.33,2.68-2,3.54-3.38,1.14-1.85,2.92-3.07,4.41-4.48s2.81-3.39,4.67-4.72,3-3.23,4.75-4.67a44.55,44.55,0,0,0,5.34-5.41c1.22-1.42,2.79-2.6,4-4.06s3.05-2.67,4.32-4.3a42.86,42.86,0,0,1,3.64-3.78c2-2,3.92-4,5.92-5.9a30.1,30.1,0,0,1,3.24-3.3c1.74-1.21,2.67-3.1,4.46-4.23,2.18-1.38,3.54-3.71,5.47-5.45,2.92-2.64,5.42-5.72,8.41-8.3,1.73-1.5,2.83-3.57,4.6-5,.76-.63,1.74-1.05,2.21-2,1.18-2.34,3.72-3.28,5.33-5.22,1.45-1.74,3.31-3.17,4.88-4.86s2.71-3.25,4.58-4.32a2.32,2.32,0,0,0,.94-1.06,4.33,4.33,0,0,1,.91-1.25c2-2,4-4,6-5.92.8-.77,1.42-1.72,2.24-2.42a39.76,39.76,0,0,0,3.84-3.52,33.85,33.85,0,0,1,2.78-3,30.79,30.79,0,0,0,2.81-2.77c.3-.34.81-.8.55-1.37a1.55,1.55,0,0,0-1.54-.73c-4.31-.1-8.6-.24-12.91-.59-5.19-.42-10.46-.46-15.69-.39-2.38,0-3.13.5-3.84,2.8-1.37,4.43-2.54,8.92-3.84,13.36-2.63,9-4.88,18.06-7.8,27-.82,2.49-2,4.65-4.68,5.52a13.8,13.8,0,0,1-3.78.57c-4.08.15-8.15-.24-12.22-.26s-8.07-.14-12.1-.25a17.62,17.62,0,0,1-2.74-.32,4.37,4.37,0,0,1-3.15-2.15c-1.29-2.17-1.07-4.39-.36-6.6.84-2.63,1.87-5.19,2.73-7.81,2-6.27,4-12.58,6.06-18.84,3.09-9.38,6.28-18.73,9.35-28.11,3.27-10,6.42-20.11,9.68-30.15,4-12.36,8.07-24.71,12.1-37.06q2.44-7.47,4.83-15c2.62-8.15,5.22-16.3,7.86-24.44a16.49,16.49,0,0,1,2.06-4.71,3,3,0,0,1,2-1.43c-.47,1.52-.91,3-1.4,4.56q-6.55,20.48-13.11,41-4.14,12.93-8.3,25.86c-1.26,3.93-2.48,7.88-3.72,11.81-.15.41-.32.82-.45,1.23l-27.5,85.86c-.48,1.5-.46,1.52,1.13,1.52h28c2.88,0,2.86,0,3.68-2.71q6.78-22.37,13.55-44.75a1.51,1.51,0,0,1,1.75-1.28q25.91,0,51.83,0a1.54,1.54,0,0,1,1.78,1.25q7.32,23.15,14.71,46.27a1.47,1.47,0,0,0,1.67,1.24c10.36,0,20.72,0,31.07,0,1.35,0,1.35,0,.92-1.34q-7.28-22.46-14.57-44.91-5.6-17.23-11.23-34.45c-.87-2.64-1.53-5.35-2.65-7.91a6,6,0,0,0-.14-.7q-2.87-8.89-5.75-17.78-8.24-25.4-16.48-50.8c-1.37-4.21-2.7-8.43-4-12.65.54-.31.82.08,1.09.43a8.59,8.59,0,0,1,1.12,2c1.28,3.07,2.29,6.23,3.3,9.39,1.6,5,3.58,9.84,5.36,14.76.92,2.55,1.75,5.14,2.64,7.71,2.71,7.81,5.4,15.62,8.28,23.37,1.55,4.18,3.29,8.32,4.52,12.62.77,2.67,2.72,4.78,3.29,7.53a37,37,0,0,0,1.42,4.33,1.77,1.77,0,0,0,1.46,1.26c.72.12,1.1-.32,1.41-.88a5,5,0,0,1,1.17-1.18,32.35,32.35,0,0,0,3.62-3.44c1.14-1.37,2.5-2.52,3.71-3.81,1.94-2.09,4-4.08,6-6.16,1.77-1.88,3.7-3.58,5.43-5.51.94-1,2.25-1.84,3.23-2.95,2.45-2.76,5.2-5.23,7.89-7.76,3.2-3,6-6.4,9.33-9.32.06-.05.1-.12.16-.18,2.14-2.24,4.27-4.51,6.44-6.72a2.34,2.34,0,0,0,.49-3c-.22-.38-.51-.72-.77-1.07a14.86,14.86,0,0,1-3.26-8.11,5.51,5.51,0,0,0-.37-1.63c-1.34-3.65-1.05-7.4-.66-11.14.45-4.34,2.41-8.11,4.75-11.67,4.74-7.24,11.15-12.18,19.84-13.66,4.11-.7,8.26-1,12.26.76a6.14,6.14,0,0,0,2.45.52,4.2,4.2,0,0,1,1.95.53,37.08,37.08,0,0,1,5,3.25c1.39,1,3.21,1,3.88-.11a19.08,19.08,0,0,1,4.79-4.94c2.53-2,4.21-4.91,7-6.6.16-.1.25-.31.38-.46a26,26,0,0,1,1.74-2,9.89,9.89,0,0,0,3.24-8.15,37.61,37.61,0,0,1,0-4.56c.11-1.69-.34-3.35,1.05-5a8,8,0,0,0,1.32-4.65c.07-3.78-.07-7.54.88-11.3.89-3.53.22-7.25.33-10.88a5.7,5.7,0,0,1,.22-2,9.91,9.91,0,0,0,.52-3.65,39.5,39.5,0,0,1,.17-6.58,27.74,27.74,0,0,0,.54-5.11c0-4.32,0-8.64,0-13a15.73,15.73,0,0,1,.26-2.62,32.61,32.61,0,0,0-.41-13.9c-.58-2.18-2.49-3.31-4-4.56-1.21-1-3.18-1.28-5-1.27-3.59,0-7.19-.06-10.78-.13-7.83-.16-15.66-.08-23.48-.54-1.71-.1-3.45.1-5.16-.07-5.88-.57-11.8.21-17.69-.82-3.27-.57-6.7-.2-10-.26-6.27-.11-12.55-.18-18.82-.33-5.39-.12-10.77.25-16.17-.38-4.07-.48-8.21-.29-12.31-.45-8.3-.33-16.61-.32-24.92-.55-8.1-.22-16.19-.23-24.3-.64-10.52-.53-21.08-.34-31.62-.73-9.14-.34-18.3-.49-27.46-.35a1.77,1.77,0,0,1-.48,0c-1.32-.36-2.78-.15-4-.91.56,0,1.12,0,1.68,0H446.1c2,0,1.74-.25,1.74,1.69q0,26.33,0,52.67C447.85,87.31,447.87,87.83,447.88,88.35Zm-65,177.12c0,.32-.06.64-.06,1q0,31.26,0,62.52c0,1.07.33,1.34,1.37,1.34,9.52,0,19,0,28.56,0,1.69,0,1.69,0,1.69-1.67q0-30.84,0-61.68c0-.48,0-1,0-1.44s0-.88,0-1.32q0-28.24,0-56.48c0-1.56,0-1.56-1.59-1.56H384.46c-1.61,0-1.61,0-1.61,1.56q0,28.24,0,56.48C382.87,264.59,382.9,265,382.91,265.47Zm40.45-92.93a26.31,26.31,0,0,0-.15-3.71,27.61,27.61,0,0,0-11.85-17.77,22.56,22.56,0,0,0-14.89-4.36c-13.26,1-24.75,15.58-23.52,27,.52,4.87,1.67,9.56,4.71,13.43,7,8.91,17.87,12.37,29.39,8.8C416.51,193,423.83,182.66,423.36,172.54Z" transform="translate(-0.22 -0.02)"/><path class="cls-5" d="M205.69,32.47c1.23.76,2.69.55,4,.91a1.77,1.77,0,0,0,.48,0c9.16-.14,18.32,0,27.46.35,10.54.4,21.1.21,31.62.73,8.1.41,16.2.41,24.3.64,8.31.23,16.62.23,24.92.55,4.11.16,8.25,0,12.31.45,5.4.63,10.78.26,16.17.38,6.27.14,12.55.22,18.82.33,3.35.06,6.78-.31,10,.26,5.89,1,11.81.25,17.69.82,1.7.17,3.44,0,5.16.07,7.82.46,15.66.38,23.48.54,3.59.07,7.19.15,10.78.13,1.83,0,3.81.25,5,1.27,1.48,1.25,3.39,2.38,4,4.56a32.61,32.61,0,0,1,.41,13.9,15.73,15.73,0,0,0-.26,2.62c0,4.32,0,8.64,0,13a27.74,27.74,0,0,1-.54,5.11,39.5,39.5,0,0,0-.17,6.58,9.91,9.91,0,0,1-.52,3.65,5.7,5.7,0,0,0-.22,2c-.11,3.63.56,7.35-.33,10.88-.95,3.77-.81,7.52-.88,11.3a8,8,0,0,1-1.32,4.65c-1.39,1.67-.94,3.33-1.05,5a37.61,37.61,0,0,0,0,4.56,9.89,9.89,0,0,1-3.24,8.15,26,26,0,0,0-1.74,2c-.13.15-.22.36-.38.46-2.81,1.69-4.49,4.57-7,6.6a19.08,19.08,0,0,0-4.79,4.94c-.67,1.13-2.49,1.14-3.88.11a37.08,37.08,0,0,0-5-3.25,4.2,4.2,0,0,0-1.95-.53,6.14,6.14,0,0,1-2.45-.52c-4-1.75-8.14-1.46-12.26-.76-8.7,1.48-15.1,6.42-19.84,13.66-2.33,3.56-4.29,7.33-4.75,11.67-.39,3.74-.68,7.49.66,11.14a5.51,5.51,0,0,1,.37,1.63,14.86,14.86,0,0,0,3.26,8.11c.26.36.55.69.77,1.07a2.34,2.34,0,0,1-.49,3c-2.17,2.22-4.29,4.48-6.44,6.72-.06.06-.1.13-.16.18-3.29,2.92-6.12,6.31-9.33,9.32-2.69,2.53-5.44,5-7.89,7.76-1,1.11-2.3,1.9-3.23,2.95-1.73,1.93-3.67,3.63-5.43,5.51-2,2.08-4,4.08-6,6.16-1.21,1.3-2.57,2.44-3.71,3.81a32.35,32.35,0,0,1-3.62,3.44,5,5,0,0,0-1.17,1.18c-.32.56-.69,1-1.41.88a1.77,1.77,0,0,1-1.46-1.26,37,37,0,0,1-1.42-4.33c-.58-2.76-2.52-4.87-3.29-7.53-1.24-4.3-3-8.44-4.52-12.62-2.88-7.75-5.57-15.56-8.28-23.37-.89-2.57-1.72-5.16-2.64-7.71-1.78-4.92-3.75-9.78-5.36-14.76-1-3.16-2-6.32-3.3-9.39a8.59,8.59,0,0,0-1.12-2c-.27-.35-.54-.74-1.09-.43-.26-1.12-1-1.36-2.08-1.35-12.39,0-24.79,0-37.18,0-.48,0-1,0-1.44.06a3,3,0,0,0-2,1.43,16.49,16.49,0,0,0-2.06,4.71c-2.64,8.14-5.24,16.29-7.86,24.44q-2.4,7.48-4.83,15c-4,12.36-8.1,24.7-12.1,37.06-3.25,10-6.4,20.12-9.68,30.15-3.06,9.39-6.26,18.73-9.35,28.11-2.06,6.27-4,12.57-6.06,18.84-.86,2.62-1.89,5.19-2.73,7.81-.71,2.21-.93,4.43.36,6.6a4.37,4.37,0,0,0,3.15,2.15,17.62,17.62,0,0,0,2.74.32c4,.11,8.07.22,12.1.25s8.14.41,12.22.26a13.8,13.8,0,0,0,3.78-.57c2.7-.87,3.86-3,4.68-5.52,2.92-8.89,5.17-18,7.8-27,1.3-4.44,2.47-8.94,3.84-13.36.71-2.3,1.46-2.77,3.84-2.8,5.24-.07,10.5,0,15.69.39,4.31.35,8.6.5,12.91.59a1.55,1.55,0,0,1,1.54.73c.26.57-.24,1-.55,1.37a30.79,30.79,0,0,1-2.81,2.77,33.85,33.85,0,0,0-2.78,3,39.76,39.76,0,0,1-3.84,3.52c-.82.7-1.44,1.65-2.24,2.42-2,1.95-4,4-6,5.92a4.33,4.33,0,0,0-.91,1.25,2.32,2.32,0,0,1-.94,1.06c-1.88,1.07-3.15,2.77-4.58,4.32s-3.42,3.12-4.88,4.86c-1.62,1.94-4.16,2.88-5.33,5.22-.47.93-1.44,1.36-2.21,2-1.77,1.47-2.87,3.54-4.6,5-3,2.58-5.49,5.67-8.41,8.3-1.93,1.74-3.28,4.07-5.47,5.45-1.79,1.13-2.73,3-4.46,4.23a30.1,30.1,0,0,0-3.24,3.3c-2,1.95-4,3.92-5.92,5.9a42.86,42.86,0,0,0-3.64,3.78c-1.26,1.63-3,2.74-4.32,4.3s-2.8,2.64-4,4.06a44.55,44.55,0,0,1-5.34,5.41c-1.74,1.44-3,3.4-4.75,4.67s-3.07,3.21-4.67,4.72-3.27,2.64-4.41,4.48c-.86,1.39-2.53,2-3.54,3.38-1.57,2.07-3.72,3.55-5.47,5.44-1.3,1.4-2.71,2.68-4,4.09a17.3,17.3,0,0,1-4.85,4.18.6.6,0,0,0-.27.23c-1.37,2.83-4.08,4.44-6.06,6.72-1.27,1.46-2.89,2.55-4.11,4-1.87,2.21-4.16,3.93-6.17,6-1.31,1.32-2.43,2.92-3.8,4.24l-5.25,5.08c-.86.83-1.63,1.73-2.44,2.6-2.27,2.45-4.75,4.56-8.42,4.46-2.6-.07-5.2,0-7.8,0a1.85,1.85,0,0,0-1.79.73c-.38.58-1.09.41-1.63.65a17.14,17.14,0,0,1-7.54,1,24.68,24.68,0,0,0-7.47.8,22.34,22.34,0,0,1-5.72.42c-3.14,0-6.33-.42-9.4.65a1.12,1.12,0,0,1-.36,0c-8.27,0-16.5,1.06-24.78.79-4.33-.14-8.68.71-13,.4-2.38-.17-4.88-.35-6.55-2.4a9.85,9.85,0,0,1-2-6.54c.19-7.88-.76-15.73-.54-23.61.16-5.8,0-11.61-.36-17.38-.27-4.48-.23-8.94-.38-13.41a2.61,2.61,0,0,0-.17-1.06c-.93-1.84-.79-3.8-.78-5.76a40.92,40.92,0,0,0-.56-7.75c-.5-2.66,0-5.43-.18-8.14-.6-7.62-.17-15.26-.56-22.87-.2-3.87,0-7.78-.45-11.6-.6-4.84-.21-9.66-.4-14.48,0-.48,0-1-.44-1.3,0-.64,0-1.28,0-1.92q0-40.93,0-81.86c0-.64,0-1.28,0-1.92,0-.48,0-1,0-1.44q0-64.38,0-128.77c0-.52,0-1,0-1.56s0-1.12,0-1.68q0-28,0-55.9c0-1.1.2-1.49,1.42-1.49q85.05,0,170.1,0C205,32.43,205.33,32.46,205.69,32.47ZM154.56,189.4c.67-.15.6-.79.74-1.23.79-2.47,1.54-5,2.29-7.44q2.48-8.26,4.95-16.52c.66.05.94.53,1.18,1.05a6.88,6.88,0,0,1,0,4.93c-1.24,4.34-2.48,8.69-3.79,13a28.69,28.69,0,0,1-2.25,6.19,4.92,4.92,0,0,1-5.37,2.47,23.29,23.29,0,0,1-4.59-1.74,71.07,71.07,0,0,0-30.13-5.05,32.32,32.32,0,0,0-12.09,2.75,19,19,0,0,0-8.34,7,15.74,15.74,0,0,0-2.32,11.36,16.92,16.92,0,0,0,5.06,9.47c3.18,3.17,7.16,5.22,11.16,7.16s8.27,3.65,12.49,5.24A141.85,141.85,0,0,1,147.26,239a69.15,69.15,0,0,1,13.87,10.7,31,31,0,0,1,5.68,7.08,23.13,23.13,0,0,0,2.06,3.64,13.48,13.48,0,0,1,1.85,3.18c.67,1.58.76,3.41,1.79,4.81a9.4,9.4,0,0,1,1.74,4.39A63.63,63.63,0,0,1,175,283c0,.38-.16.91.27,1.09s.78-.3,1.1-.57c.52-.44.68-1.14,1.17-1.65.92-1,2-1.71,3-2.61,2.27-2.17,4.48-4.41,6.67-6.66a36.64,36.64,0,0,1,3.57-3.51c1.93-1.49,2.85-3.94,5.15-5a1.58,1.58,0,0,0,.73-1.06,1.34,1.34,0,0,1,.48-.81c3-2,5.23-4.88,7.61-7.48s5.76-4.14,7.41-7.4a.57.57,0,0,1,.28-.22c1.55-.67,2.21-2.28,3.51-3.28,2.09-1.62,3.68-3.83,5.42-5.85a4.56,4.56,0,0,0,1.08-1.56q1.49-4.69,3-9.37c1.44-4.41,2.54-9,4.42-13.18a149.31,149.31,0,0,0,5.63-14.64c2.08-6.38,4.9-12.51,6.7-19,1.65-5.94,4.16-11.59,5.93-17.49a18.13,18.13,0,0,1,1.14-2.77,6.94,6.94,0,0,1,5.91-3.94,59,59,0,0,1,6.93-.47c6.4.11,12.78-.33,19.17-.5a49.31,49.31,0,0,0,8-.77c4.11-.78,8,.54,9.49,4.56.44,1.17,1.21,1.41,1.93.38,1.07-1.52,2.59-2.56,3.75-4a23.14,23.14,0,0,1,3.76-3.8,30,30,0,0,0,4.14-4.24c1.66-1.89,3.58-3.48,5.31-5.27,2.47-2.57,5-5.14,7.57-7.61.84-.8,1.74-1.57,2.61-2.34a42.72,42.72,0,0,0,3.43-3.8c1.66-1.83,3.75-3.18,5.4-5.1a59.46,59.46,0,0,1,6.86-6.78c2.2-1.85,4-4.15,6.14-6.1a36.18,36.18,0,0,0,3.07-3.11,20.17,20.17,0,0,1,2.91-3c2.25-1.72,3.94-4,6-5.95,1.31-1.23,2.5-2.66,3.78-3.95,2-2,4.18-3.89,6.07-6s3.89-3.63,5.69-5.61c1.37-1.5,3-2.95,4.53-4.35,2.58-2.33,4.55-5.28,7.35-7.42,1.43-1.1,2.2-2.79,3.61-4s2.47-3.06,4-4c2.71-1.64,4.21-4.41,6.6-6.36s4.24-4.49,6.57-6.55c.36-.32.69-.67,1-1s.52-.46.39-.82-.58-.35-.93-.37-.64,0-1,0c-4.12,0-8.24,0-12.36,0a2.9,2.9,0,0,1-2.61-1.18,1.82,1.82,0,0,0-1.66-.76c-1.88,0-3.76,0-5.64,0a2.13,2.13,0,0,1-1.5-.32,4.66,4.66,0,0,0-3.49-.89c-2.12,0-4.24,0-6.36,0a11.65,11.65,0,0,1-4.25-.59,7.68,7.68,0,0,0-2.71-.39q-2.64,0-5.28,0a3.41,3.41,0,0,1-1.41-.18c-2.57-1.25-5.26-1-8-.88a23.19,23.19,0,0,1-6-.33,21.54,21.54,0,0,0-4.73-.51H330a7.82,7.82,0,0,1-1.44,0c-5-.94-10-.27-15.06-.82-4.71-.52-9.5-.14-14.26-.25-6-.14-11.91-.32-17.86-.34s-11.75.12-17.63-.17c-6.06-.3-12.14.06-18.21-.47-4.57-.4-9.18,0-13.78-.26-5.86-.3-11.75.1-17.62-.25-4.7-.28-9.43-.11-14.14-.22-17.34-.39-34.69.24-52-.46-13.34-.54-26.7-.09-40.06-.24-18.83-.21-37.67-.5-56.5-.32-1.56,0-3.12,0-4.68,0a16.34,16.34,0,0,0-5.2.75,7.58,7.58,0,0,0-4.93,4.08,13.73,13.73,0,0,0-1.3,6c.12,13-.24,26,.2,39,.28,8.07,0,16.15.21,24.22.41,15.38-.12,30.77.44,46.17.57,15.62-.09,31.26.28,46.9.16,7,.3,14,.31,21,0,3.63,0,7.27.17,10.91.28,5.42.16,10.85.45,16.29.36,6.86.11,13.75.32,20.62.18,5.91,0,11.83.18,17.74.18,8.07.49,16.14.32,24.22a11,11,0,0,0,0,1.68c.73,5.43.52,10.91.85,16.36.28,4.54.06,9.12.06,13.68a5.79,5.79,0,0,0,.23,1.89c.78,2.32.56,4.74.56,7.11,0,2.16-.56,4.48.35,6.4s.69,3.71.78,5.58c.05,1.12,0,2.24,0,3.36a3.9,3.9,0,0,0,.2,1.41,11.23,11.23,0,0,1,.74,4.46c0,2.64,0,5.28,0,7.92a3,3,0,0,0,.35,1.86,5.68,5.68,0,0,1,.86,3.77c0,1.32,0,2.64,0,4,0,.4,0,.85.36,1.09,1.37.87,1.54,2.24,1.55,3.67,0,4.16,0,8.32,0,12.48,0,1.19.19,1.23,1.25.78,2-.88,2.63-3.16,4.3-4.44a5.72,5.72,0,0,0,1.74-1.53c1.46-2.69,4.65-3.74,6.08-6.46.06-.12.26-.18.41-.24A4.46,4.46,0,0,0,61,398.87c1.85-2.85,4.71-4.72,6.89-7.27a51,51,0,0,1,4.46-4.25c2.11-1.92,3.87-4.14,6-6.08,2.48-2.28,4.93-4.63,7.22-7.12,2.77-3,5.76-5.83,8.61-8.78,1.52-1.57,3.3-2.86,4.76-4.46,2.5-2.73,5.2-5.26,7.72-8a37.68,37.68,0,0,1,4.55-4.72,38.4,38.4,0,0,0,6.24-6c.9-1.06,2.14-1.67,3-2.74.17-.21.48-.38.34-.7s-.53-.32-.84-.27c-4.35.71-8.74.79-13.12,1.1a6.48,6.48,0,0,1-3.84-.64,3.48,3.48,0,0,0-1.59-.5,59.62,59.62,0,0,1-9.84-1.11c-4.53-1-9.11-1.59-13.61-2.77-5-1.3-9.67-3.31-14.48-5a23.26,23.26,0,0,1-4.53-2.45,6.81,6.81,0,0,1-3.37-5.26,9.43,9.43,0,0,1,.45-3.43q2.22-8.16,4.52-16.29a13,13,0,0,1,1.31-3.47c.63-1,1.28-2.06,2.66-2.2l-.29,1c-1.75.63-2.21,2.22-2.67,3.74-.75,2.45-1.34,4.94-2,7.4-1,3.61-2.11,7.22-2.89,10.89-.69,3.3.51,5.69,3.42,7.34a34.56,34.56,0,0,0,4.31,2.08c11.38,4.52,23.28,6.6,35.42,7.35a88.88,88.88,0,0,0,15.9-.37c8.25-1,16.35-2.51,24-5.88,10.91-4.79,19.87-11.77,25.82-22.32,5.59-9.92,7.28-20.56,6-31.72a41.05,41.05,0,0,0-5-15.88,56.53,56.53,0,0,0-8.13-10.61c-.26-.28-.58-.95-1.11-.23-4.16-3.9-8.44-7.66-13.65-10.15a92.33,92.33,0,0,0-15.71-7.63,188.12,188.12,0,0,1-21.13-9.33C102.74,220,99,217.53,96.18,214a13.67,13.67,0,0,1-3.06-5.84A5.79,5.79,0,0,0,93,205.4a17.43,17.43,0,0,1,4.78-14.07c3.73-4,8.54-6.09,13.82-7.19s10.49-.83,15.76-.55a64.75,64.75,0,0,1,14,2.48,78.87,78.87,0,0,1,8.9,3.21C151.7,189.85,153.12,190.32,154.56,189.4Z" transform="translate(-0.22 -0.02)"/><path class="cls-2" d="M11.41,92.06l-.12-.13s.07-.06.08-.06a1.12,1.12,0,0,1,.12.13Z" transform="translate(-0.22 -0.02)"/><path class="cls-1" d="M319.89,241.66c1.12,2.56,1.79,5.27,2.65,7.91q5.65,17.21,11.23,34.45,7.29,22.45,14.57,44.91c.43,1.33.43,1.34-.92,1.34-10.36,0-20.72,0-31.07,0a1.47,1.47,0,0,1-1.67-1.24Q307.34,305.9,300,282.77a1.54,1.54,0,0,0-1.78-1.25q-25.91,0-51.83,0a1.51,1.51,0,0,0-1.75,1.28q-6.74,22.39-13.55,44.75c-.82,2.7-.81,2.71-3.68,2.71h-28c-1.6,0-1.61,0-1.13-1.52l27.5-85.86c.13-.42.3-.82.45-1.23a1.75,1.75,0,0,0,1.81,0,2.54,2.54,0,0,1,2.71.05,1.86,1.86,0,0,0,2.22.15c.24-.12.63-.31.77-.22,1.4,1,2.23.13,3-.88,0,0,.15,0,.22,0,.05,1.26.49,1.54,1.47.77s.74.48,1.21.56c.71.12.22-1.39,1.07-.79.65.45,1.13.66,1.74,0,.26-.29.57,0,.86.12a5,5,0,0,0,3.8.14,1.66,1.66,0,0,1,1.86,0c1.24.81,2.52.36,3.65-.12.6-.25,1-.53,1.58-.12a2.61,2.61,0,0,0,.92.21c-.11.43-.19.86-.33,1.27q-2.13,6.81-4.27,13.61c-.45,1.42-.42,1.46,1.1,1.46h40.9c1.59,0,1.6,0,1.13-1.51l-4.79-15.08a14,14,0,0,1,4,1,1.41,1.41,0,0,0,1.87-.64c.49-.9,1-.95,1.67-.31a1.59,1.59,0,0,0,1.67.38,8.29,8.29,0,0,1,5.7.38c.4.14.79.2,1.09-.19a1.72,1.72,0,0,1,2.18-.34c1.49.6,3,.16,4.36-.06,1.12-.18,2-.28,2.85.46.24.21.6.56.78.17.46-.95,1.24-.54,1.94-.67C318.06,241.22,318.94,241.78,319.89,241.66Z" transform="translate(-0.22 -0.02)"/><path class="cls-3" d="M255.18,241.5a2.61,2.61,0,0,1-.92-.21c-.6-.42-1-.14-1.58.12-1.14.48-2.42.93-3.65.12a1.66,1.66,0,0,0-1.86,0,5,5,0,0,1-3.8-.14c-.3-.1-.6-.41-.86-.12-.61.67-1.09.46-1.74,0-.86-.6-.36.91-1.07.79-.47-.08-.29-1.28-1.21-.56s-1.42.49-1.47-.77c-.08,0-.19,0-.22,0-.8,1-1.63,1.86-3,.88-.14-.1-.53.09-.77.22a1.86,1.86,0,0,1-2.22-.15,2.54,2.54,0,0,0-2.71-.05,1.75,1.75,0,0,1-1.81,0c1.24-3.94,2.46-7.88,3.72-11.81q4.14-12.94,8.3-25.86,6.56-20.47,13.11-41c.48-1.51.93-3,1.4-4.56.48,0,1-.06,1.44-.06,12.39,0,24.79,0,37.18,0,1.12,0,1.82.23,2.08,1.35,1.35,4.22,2.68,8.44,4,12.65q8.23,25.4,16.48,50.8,2.88,8.89,5.75,17.78a6,6,0,0,1,.14.7c-1,.12-1.83-.44-2.83-.25-.7.13-1.47-.28-1.94.67-.19.38-.54,0-.78-.17-.86-.74-1.73-.64-2.85-.46-1.39.22-2.87.66-4.36.06a1.72,1.72,0,0,0-2.18.34c-.3.38-.69.33-1.09.19a8.29,8.29,0,0,0-5.7-.38,1.59,1.59,0,0,1-1.67-.38c-.68-.64-1.18-.59-1.67.31a1.41,1.41,0,0,1-1.87.64,14,14,0,0,0-4-1c-.67-2.08-1.36-4.15-2-6.23-3.69-11.77-7.73-23.44-10.76-35.42q-1.94-7.67-3.91-15.32c-.08-.3,0-.76-.41-.79s-.43.5-.51.8c-.39,1.47-.74,2.94-1.1,4.42-2.28,9.35-4.33,18.76-7.2,28C260.43,225,257.79,233.22,255.18,241.5Z" transform="translate(-0.22 -0.02)"/><path class="cls-1" d="M414.43,265.47c0,.48,0,1,0,1.44q0,30.84,0,61.68c0,1.67,0,1.67-1.69,1.67-9.52,0-19,0-28.56,0-1,0-1.37-.27-1.37-1.34q0-31.26,0-62.52c0-.32,0-.64.06-1,.57.3,1.1.83,1.78.17.1-.1.4-.07.57,0,1.44.45,2.85.06,4.29,0,1-.06,2.1-.83,2.86.57.25.45.82.21,1.15-.12a1.67,1.67,0,0,1,1.76-.44,2.36,2.36,0,0,0,1.74-.23,1.29,1.29,0,0,1,1.87.45,1.59,1.59,0,0,0,1.81.67c0-.52-.74-.49-.56-1.2a5.64,5.64,0,0,0,3.17.69c1.45-.22,2.92.46,4.36-.23a1.57,1.57,0,0,1,1.86.4,1.25,1.25,0,0,0,2.13-.22,1.21,1.21,0,0,1,1.43-.53A9.39,9.39,0,0,0,414.43,265.47Z" transform="translate(-0.22 -0.02)"/><path class="cls-3" d="M414.43,265.47a9.39,9.39,0,0,1-1.31-.07,1.21,1.21,0,0,0-1.43.53,1.25,1.25,0,0,1-2.13.22,1.57,1.57,0,0,0-1.86-.4c-1.44.68-2.91,0-4.36.23a5.64,5.64,0,0,1-3.17-.69c-.17.7.54.68.56,1.2a1.59,1.59,0,0,1-1.81-.67,1.29,1.29,0,0,0-1.87-.45,2.36,2.36,0,0,1-1.74.23,1.67,1.67,0,0,0-1.76.44c-.32.33-.9.57-1.15.12-.76-1.4-1.91-.63-2.86-.57-1.43.09-2.85.48-4.29,0-.18-.06-.47-.08-.57,0-.68.66-1.21.13-1.78-.17,0-.44,0-.88,0-1.32q0-28.24,0-56.48c0-1.56,0-1.56,1.61-1.56h28.42c1.59,0,1.59,0,1.59,1.56q0,28.24,0,56.48C414.45,264.59,414.44,265,414.43,265.47Z" transform="translate(-0.22 -0.02)"/><path class="cls-3" d="M423.36,172.54c.47,10.11-6.85,20.44-16.3,23.37-11.52,3.57-22.39.11-29.39-8.8-3-3.87-4.19-8.56-4.71-13.43-1.23-11.39,10.26-26,23.52-27a22.56,22.56,0,0,1,14.89,4.36,27.61,27.61,0,0,1,11.85,17.77A26.31,26.31,0,0,1,423.36,172.54Zm-24.59,19.7c10.25.61,19.91-10.52,19.69-19.81-.26-10.85-9.16-20.77-18.89-20.73-12.3,0-21.66,9.11-21.6,20.65C378,182,386.82,193,398.77,192.24Z" transform="translate(-0.22 -0.02)"/><path class="cls-6" d="M64.45,296.47c-1.38.13-2,1.19-2.66,2.2a13,13,0,0,0-1.31,3.47q-2.3,8.14-4.52,16.29a9.43,9.43,0,0,0-.45,3.43,6.81,6.81,0,0,0,3.37,5.26,23.26,23.26,0,0,0,4.53,2.45c4.81,1.71,9.51,3.71,14.48,5,4.5,1.18,9.08,1.82,13.61,2.77a59.62,59.62,0,0,0,9.84,1.11,3.48,3.48,0,0,1,1.59.5,6.48,6.48,0,0,0,3.84.64c4.38-.31,8.78-.39,13.12-1.1.31-.05.68-.1.84.27s-.17.48-.34.7c-.86,1.07-2.1,1.68-3,2.74a38.4,38.4,0,0,1-6.24,6,37.68,37.68,0,0,0-4.55,4.72c-2.53,2.7-5.22,5.23-7.72,8-1.46,1.6-3.25,2.89-4.76,4.46-2.85,2.95-5.83,5.76-8.61,8.78-2.3,2.49-4.75,4.84-7.22,7.12-2.1,1.93-3.87,4.16-6,6.08a51,51,0,0,0-4.46,4.25c-2.18,2.55-5,4.42-6.89,7.27a4.46,4.46,0,0,1-2.05,1.78c-.15.06-.34.12-.41.24-1.43,2.71-4.62,3.76-6.08,6.46a5.72,5.72,0,0,1-1.74,1.53c-1.68,1.28-2.25,3.56-4.3,4.44-1.06.46-1.25.41-1.25-.78,0-4.16,0-8.32,0-12.48,0-1.43-.17-2.8-1.55-3.67-.39-.24-.36-.69-.36-1.09,0-1.32,0-2.64,0-4a5.68,5.68,0,0,0-.86-3.77,3,3,0,0,1-.35-1.86c0-2.64,0-5.28,0-7.92a11.23,11.23,0,0,0-.74-4.46,3.9,3.9,0,0,1-.2-1.41c0-1.12,0-2.24,0-3.36-.09-1.87.12-3.69-.78-5.58s-.35-4.24-.35-6.4c0-2.38.23-4.79-.56-7.11a5.79,5.79,0,0,1-.23-1.89c0-4.56.22-9.13-.06-13.68-.34-5.45-.13-10.93-.85-16.36a11,11,0,0,1,0-1.68c.17-8.08-.14-16.15-.32-24.22-.13-5.92,0-11.83-.18-17.74-.21-6.87,0-13.76-.32-20.62-.28-5.44-.17-10.87-.45-16.29-.19-3.64-.16-7.27-.17-10.91,0-7-.15-14-.31-21-.36-15.64.29-31.28-.28-46.9-.56-15.4,0-30.79-.44-46.17-.22-8.08.06-16.15-.21-24.22-.44-13-.08-26-.2-39a13.73,13.73,0,0,1,1.3-6,7.58,7.58,0,0,1,4.93-4.08,16.34,16.34,0,0,1,5.2-.75c1.56,0,3.12,0,4.68,0,18.83-.18,37.67.11,56.5.32,13.36.15,26.72-.3,40.06.24,17.35.7,34.7.07,52,.46,4.72.11,9.44-.06,14.14.22,5.88.35,11.76-.05,17.62.25,4.6.24,9.21-.14,13.78.26,6.07.53,12.15.16,18.21.47,5.88.29,11.75.14,17.63.17s11.91.2,17.86.34c4.76.11,9.55-.27,14.26.25,5,.55,10.08-.12,15.06.82a7.82,7.82,0,0,0,1.44,0h13.32a21.54,21.54,0,0,1,4.73.51,23.19,23.19,0,0,0,6,.33c2.72-.12,5.42-.37,8,.88a3.41,3.41,0,0,0,1.41.18q2.64,0,5.28,0a7.68,7.68,0,0,1,2.71.39,11.65,11.65,0,0,0,4.25.59c2.12,0,4.24,0,6.36,0a4.66,4.66,0,0,1,3.49.89,2.13,2.13,0,0,0,1.5.32c1.88,0,3.76,0,5.64,0a1.82,1.82,0,0,1,1.66.76,2.9,2.9,0,0,0,2.61,1.18c4.12,0,8.24,0,12.36,0,.32,0,.64,0,1,0s.78-.06.93.37-.18.59-.39.82-.66.7-1,1c-2.33,2.05-4.22,4.62-6.57,6.55s-3.89,4.72-6.6,6.36c-1.58,1-2.58,2.81-4,4s-2.18,2.86-3.61,4c-2.79,2.14-4.77,5.09-7.35,7.42-1.56,1.4-3.16,2.85-4.53,4.35-1.8,2-3.9,3.62-5.69,5.61s-4.06,4-6.07,6c-1.28,1.29-2.47,2.71-3.78,3.95-2,1.93-3.74,4.22-6,5.95a20.17,20.17,0,0,0-2.91,3,36.18,36.18,0,0,1-3.07,3.11c-2.14,2-3.93,4.26-6.14,6.1a59.46,59.46,0,0,0-6.86,6.78c-1.65,1.92-3.75,3.27-5.4,5.1a42.72,42.72,0,0,1-3.43,3.8c-.87.76-1.77,1.54-2.61,2.34-2.59,2.47-5.1,5-7.57,7.61-1.72,1.79-3.65,3.39-5.31,5.27a30,30,0,0,1-4.14,4.24,23.14,23.14,0,0,0-3.76,3.8c-1.16,1.42-2.69,2.46-3.75,4-.72,1-1.49.8-1.93-.38-1.51-4-5.39-5.34-9.49-4.56a49.31,49.31,0,0,1-8,.77c-6.39.17-12.77.61-19.17.5a59,59,0,0,0-6.93.47,6.94,6.94,0,0,0-5.91,3.94,18.13,18.13,0,0,0-1.14,2.77c-1.76,5.9-4.28,11.55-5.93,17.49-1.8,6.49-4.62,12.61-6.7,19a149.31,149.31,0,0,1-5.63,14.64c-1.88,4.21-3,8.77-4.42,13.18q-1.52,4.68-3,9.37a4.56,4.56,0,0,1-1.08,1.56c-1.74,2-3.33,4.23-5.42,5.85-1.3,1-2,2.62-3.51,3.28a.57.57,0,0,0-.28.22c-1.66,3.26-5,4.81-7.41,7.4s-4.6,5.47-7.61,7.48a1.34,1.34,0,0,0-.48.81,1.58,1.58,0,0,1-.73,1.06c-2.29,1.06-3.22,3.51-5.15,5a36.64,36.64,0,0,0-3.57,3.51c-2.19,2.25-4.39,4.49-6.67,6.66-.95.9-2,1.65-3,2.61-.49.51-.64,1.21-1.17,1.65-.32.27-.62.77-1.1.57S175,283.4,175,283a63.63,63.63,0,0,0-.72-10.27,9.4,9.4,0,0,0-1.74-4.39c-1-1.4-1.12-3.22-1.79-4.81a13.48,13.48,0,0,0-1.85-3.18,23.13,23.13,0,0,1-2.06-3.64,31,31,0,0,0-5.68-7.08A69.15,69.15,0,0,0,147.26,239,141.85,141.85,0,0,0,123.55,228c-4.23-1.58-8.43-3.27-12.49-5.24s-8-4-11.16-7.16a16.92,16.92,0,0,1-5.06-9.47,15.74,15.74,0,0,1,2.32-11.36,19,19,0,0,1,8.34-7,32.32,32.32,0,0,1,12.09-2.75,71.07,71.07,0,0,1,30.13,5.05,23.29,23.29,0,0,0,4.59,1.74,4.92,4.92,0,0,0,5.37-2.47,28.69,28.69,0,0,0,2.25-6.19c1.31-4.32,2.55-8.67,3.79-13a6.88,6.88,0,0,0,0-4.93c-.24-.53-.52-1-1.18-1.05l-.78-.5a1.62,1.62,0,0,0-1-1.35,53.8,53.8,0,0,0-12.82-4.63A106.45,106.45,0,0,0,129.06,155a116,116,0,0,0-17.59.39,70,70,0,0,0-26.65,8.16,48.77,48.77,0,0,0-20.92,21,47.13,47.13,0,0,0-5.15,23.73,43.28,43.28,0,0,0,4.71,18.67,47.15,47.15,0,0,0,11.3,14.13,90.59,90.59,0,0,0,17.68,11.66c6.21,3.15,12.77,5.5,19.19,8.16,4.54,1.89,9.06,3.8,13.07,6.74a29.57,29.57,0,0,1,6.23,5.75c3.09,4,3.83,8.72,3.4,13.64a16.6,16.6,0,0,1-3.17,8.68c-3.14,4.19-7.45,6.55-12.38,7.94s-10.23,1.46-15.45,1.48c-6.83,0-13.43-1.34-20-3-4.79-1.19-9.28-3.24-13.81-5.14-1.25-.53-2.51-1.1-3.92-.54C65.23,296.52,64.84,296,64.45,296.47Z" transform="translate(-0.22 -0.02)"/><path class="cls-1" d="M64.45,296.47c.39-.5.78.05,1.17,0a9.86,9.86,0,0,0,.89.6A86.69,86.69,0,0,0,101.86,307a55.72,55.72,0,0,0,13.49-.65c5.17-.95,10.08-2.64,14.2-5.91,7.39-5.86,9.26-13.7,7.3-22.6-1.26-5.71-5-9.72-9.63-13a72.7,72.7,0,0,0-16.9-8.46c-7-2.62-14-5.23-20.59-8.82a66.77,66.77,0,0,1-12.53-8.38c.78-.19,1.32.44,2,.62.88.22,1.84,0,2.58.32a5.28,5.28,0,0,0,3,.28,5.17,5.17,0,0,1,2.83.22,1.75,1.75,0,0,0,1.91-.3c.33-.28.68-.48,1.07-.18a1.72,1.72,0,0,0,1.92.07,5.85,5.85,0,0,1,2.22-.39c.8,0,1.51.55,2.16.52,2.09-.12,4.15.23,6.23.18a.92.92,0,0,0,.69-.4,1.64,1.64,0,0,1,2.36.13,1,1,0,0,0,.89.54,4.21,4.21,0,0,0,2.37-.54c1.74-.63,3.65.07,5.49-.22a1.11,1.11,0,0,1,.75.33c.87.78,1.61.48,2.28-.24a.72.72,0,0,1,1-.16c.9.44,1.81,1.08,2.9.38.34-.22.54.19.81.32.83.39,2,1.16,2.59.44,1.11-1.28,2.16-.93,3.32-.47a3.22,3.22,0,0,0,1.74.2c1.1-.16,2.11-1,3.33-.47.14.06.49-.13.61-.3.57-.78,1.16-.52,1.74-.05a2.05,2.05,0,0,0,2.24.31c1.1-.59,1.87-.7,2.5.55.26.51.67.29,1,0s.5-.53.93-.35.7,1,1.27.43-.26-.91-.35-1.39l-.09-.47c5.22,2.49,9.49,6.25,13.65,10.15,1.5,1.76,3.06,3.48,4.39,5.38,7.34,10.49,9.11,22.24,7.25,34.58-2.38,15.81-11.13,27.29-25.05,34.89-10.32,5.64-21.55,7.93-33.17,8.57a112.45,112.45,0,0,1-39.2-4.79,75.23,75.23,0,0,1-12.56-5,1.48,1.48,0,0,1-.88-2.12c.65-2.08,1.17-4.2,1.73-6.31q2.24-8.46,4.47-16.93Zm70.46-55.74-.06,0,.06,0Z" transform="translate(-0.22 -0.02)"/><path class="cls-3" d="M143.53,239.05l.09.47c.09.48.83.89.35,1.39s-.85-.25-1.27-.43-.66.1-.93.35-.73.52-1,0c-.63-1.26-1.4-1.14-2.5-.55A2.05,2.05,0,0,1,136,240c-.58-.46-1.16-.72-1.74.05-.12.17-.47.36-.61.3-1.22-.54-2.22.31-3.33.47a3.22,3.22,0,0,1-1.74-.2c-1.16-.47-2.22-.81-3.32.47-.62.72-1.75-.05-2.59-.44-.27-.13-.46-.54-.81-.32-1.09.7-2,.06-2.9-.38a.72.72,0,0,0-1,.16c-.67.72-1.41,1-2.28.24a1.11,1.11,0,0,0-.75-.33c-1.83.29-3.74-.41-5.49.22a4.21,4.21,0,0,1-2.37.54,1,1,0,0,1-.89-.54,1.64,1.64,0,0,0-2.36-.13.92.92,0,0,1-.69.4c-2.08,0-4.14-.3-6.23-.18-.65,0-1.36-.55-2.16-.52a5.85,5.85,0,0,0-2.22.39,1.72,1.72,0,0,1-1.92-.07c-.4-.31-.74-.1-1.07.18a1.75,1.75,0,0,1-1.91.3,5.17,5.17,0,0,0-2.83-.22,5.28,5.28,0,0,1-3-.28c-.74-.32-1.7-.1-2.58-.32-.68-.17-1.23-.81-2-.62a42.73,42.73,0,0,1-11.11-12.76C59.72,215,58.85,203,62.75,190.57A43.85,43.85,0,0,1,74.42,172a55.36,55.36,0,0,1,23.71-13.3c15.68-4.47,31.45-3.9,47.23-.57a78.07,78.07,0,0,1,16.41,5.6l.78.5q-2.47,8.26-4.95,16.52c-.75,2.49-1.5,5-2.29,7.44-.14.44-.07,1.08-.74,1.23-.34-.2-.68-.42-1-.6a65.46,65.46,0,0,0-16.6-5.76c-8.4-1.72-16.85-2.48-25.36-.82-5.62,1.1-10.71,3.33-14.59,7.69-4.71,5.3-5.94,11.42-3.86,18.21A13.67,13.67,0,0,0,96.18,214c2.84,3.57,6.56,6,10.5,8.14a188.12,188.12,0,0,0,21.13,9.33A92.33,92.33,0,0,1,143.53,239.05Z" transform="translate(-0.22 -0.02)"/><path class="cls-4" d="M64.16,297.42q-2.23,8.47-4.47,16.93c-.56,2.11-1.08,4.23-1.73,6.31a1.48,1.48,0,0,0,.88,2.12,75.23,75.23,0,0,0,12.56,5,112.45,112.45,0,0,0,39.2,4.79c11.61-.64,22.85-2.92,33.17-8.57,13.92-7.61,22.67-19.09,25.05-34.89,1.86-12.34.1-24.09-7.25-34.58-1.33-1.9-2.89-3.62-4.39-5.38.53-.72.85-.05,1.11.23a56.53,56.53,0,0,1,8.13,10.61,41.05,41.05,0,0,1,5,15.88c1.25,11.16-.43,21.8-6,31.72-5.95,10.55-14.92,17.53-25.82,22.32-7.67,3.36-15.76,4.9-24,5.88a88.88,88.88,0,0,1-15.9.37c-12.14-.75-24-2.83-35.42-7.35A34.56,34.56,0,0,1,60,326.79c-2.91-1.65-4.11-4-3.42-7.34.77-3.68,1.85-7.28,2.89-10.89.71-2.46,1.3-5,2-7.4C62,299.65,62.41,298.05,64.16,297.42Z" transform="translate(-0.22 -0.02)"/><path class="cls-4" d="M93.12,208.11c-2.08-6.78-.86-12.9,3.86-18.21,3.88-4.36,9-6.6,14.59-7.69,8.51-1.66,17-.9,25.36.82a65.46,65.46,0,0,1,16.6,5.76c.35.18.69.4,1,.6-1.44.92-2.87.45-4.24-.12a78.87,78.87,0,0,0-8.9-3.21,64.75,64.75,0,0,0-14-2.48c-5.27-.28-10.54-.54-15.76.55s-10.08,3.18-13.82,7.19A17.43,17.43,0,0,0,93,205.4,5.79,5.79,0,0,1,93.12,208.11Z" transform="translate(-0.22 -0.02)"/><path class="cls-4" d="M255.18,241.5c2.61-8.28,5.25-16.55,7.83-24.84,2.86-9.2,4.92-18.61,7.2-28,.36-1.47.71-3,1.1-4.42.08-.3,0-.85.51-.8s.33.49.41.79q2,7.66,3.91,15.32c3,12,7.07,23.65,10.76,35.42.65,2.08,1.34,4.16,2,6.23l4.79,15.08c.47,1.49.46,1.51-1.13,1.51h-40.9c-1.51,0-1.54,0-1.1-1.46q2.14-6.8,4.27-13.61C255,242.36,255.07,241.93,255.18,241.5ZM281,256.1c2,0,4,.06,6,0s2.73-1.33,2.19-3.13c-2-6.82-4-13.65-6.18-20.43-3.42-10.7-6.68-21.44-9.44-32.34a5.46,5.46,0,0,0-1-2.28c-.54-.63-1.08-.64-1.55.07a7,7,0,0,0-.82,1.86c-.9,3-1.42,6.16-2.25,9.2-2.74,10-5.88,19.94-9,29.86q-2.25,7.21-4.4,14.45a2.17,2.17,0,0,0,2.11,3c.44,0,.88,0,1.32,0C265.68,256.35,273.36,256.46,281,256.1Z" transform="translate(-0.22 -0.02)"/><path class="cls-4" d="M398.77,192.24C386.82,193,378,182,378,172.35c-.06-11.55,9.31-20.61,21.6-20.65,9.73,0,18.63,9.88,18.89,20.73C418.68,181.72,409,192.86,398.77,192.24ZM395.2,170c1.18.06,1.49-.29,1.36-1.49a6.44,6.44,0,0,0-.6-1.93c-1.2-2.69-2.44-5.37-3.6-8.09-1-2.41-2.37-2.84-4.55-1.32a14.91,14.91,0,0,0-4.41,5.13c-.66,1.18-.53,1.74.61,2.52a41.63,41.63,0,0,0,7.85,4.32A10.4,10.4,0,0,0,395.2,170Zm3.92,20.87c.44,0,.88,0,1.32,0,2.89-.19,3.62-1.19,2.89-4a79,79,0,0,0-3.55-9.92c-.26-.63-.56-1.29-1.39-1.32s-1.18.59-1.53,1.18a4.18,4.18,0,0,0-.44,1,64.4,64.4,0,0,1-2.9,7.74,7.25,7.25,0,0,0-.59,2.31,2,2,0,0,0,1.58,2.34A13.9,13.9,0,0,0,399.12,190.87ZM398.63,153a8.93,8.93,0,0,0-3.53.43c-1.18.52-1.7,1.33-1.38,2.46a123.25,123.25,0,0,0,3.68,11.78c.22.54.39,1.25,1.09,1.3s1-.68,1.3-1.24a72.26,72.26,0,0,0,4.19-11.6,1.92,1.92,0,0,0-1.33-2.57A10.09,10.09,0,0,0,398.63,153Zm2.08,22.61a5.22,5.22,0,0,0,.47,1.68q2,4.47,4.1,8.92c.78,1.68,1.8,2,3.32.93a17.88,17.88,0,0,0,4.43-4.33c1.46-2.09,1.24-3.36-1-4.56a49.26,49.26,0,0,0-8.46-3.63,14.72,14.72,0,0,0-1.52-.35C401.08,174.12,400.66,174.54,400.71,175.64ZM380.15,172c.08.9.1,1.74.23,2.57.33,2,1.53,2.87,3.58,2.51a16.33,16.33,0,0,0,1.63-.41,39.33,39.33,0,0,0,8.26-3.49c.5-.28,1-.6,1-1.26s-.55-.93-1.06-1.17-1-.41-1.43-.61a83.23,83.23,0,0,0-8.24-2.93c-2-.56-3.27.32-3.67,2.35A24.33,24.33,0,0,0,380.15,172Zm36.71-.45a5.64,5.64,0,0,0-.77-3.67c-.53-.69-1.14-1.29-2.12-1a68.73,68.73,0,0,0-10.86,4c-.51.25-1,.54-1.06,1.18s.58,1,1.13,1.24q3,1.26,6,2.47a15.14,15.14,0,0,0,4.41,1,2.35,2.35,0,0,0,2.71-1.65A9,9,0,0,0,416.86,171.53Zm-33.43,10.58c0,2,1.71,4.19,4,5.1,1.68.67,2.64.4,3.5-1.18,1.69-3.12,3.32-6.28,5-9.42a3.41,3.41,0,0,0,.41-1.61c0-.89-.47-1.24-1.3-1.09a4.88,4.88,0,0,0-1.23.43c-1.47.71-2.93,1.45-4.39,2.18a16.35,16.35,0,0,0-4.75,3.17A3.48,3.48,0,0,0,383.43,182.11Zm30-20.32a6.62,6.62,0,0,0-3.68-4.81,2.4,2.4,0,0,0-3.63,1.08q-1.82,3.24-3.57,6.51c-.53,1-1,2-1.49,3-.32.69-.74,1.47-.16,2.14s1.49.27,2.23,0a9.41,9.41,0,0,0,1.51-.73c2.08-1.19,4.17-2.37,6.21-3.62C412.08,164.6,413.26,163.69,413.39,161.79Z" transform="translate(-0.22 -0.02)"/><path class="cls-4" d="M161.76,163.7a78.07,78.07,0,0,0-16.41-5.6c-15.78-3.33-31.55-3.89-47.23.57A55.36,55.36,0,0,0,74.42,172a43.85,43.85,0,0,0-11.67,18.59c-3.9,12.38-3,24.38,3.33,35.8a42.73,42.73,0,0,0,11.11,12.76,66.77,66.77,0,0,0,12.53,8.38c6.59,3.59,13.59,6.2,20.59,8.82a72.7,72.7,0,0,1,16.9,8.46c4.62,3.28,8.37,7.29,9.63,13,2,8.91.09,16.75-7.3,22.6-4.12,3.27-9,5-14.2,5.91a55.72,55.72,0,0,1-13.49.65,86.69,86.69,0,0,1-35.35-9.88,9.86,9.86,0,0,1-.89-.6c1.41-.55,2.67,0,3.92.54,4.53,1.91,9,4,13.81,5.14,6.56,1.62,13.15,3,20,3,5.21,0,10.38-.06,15.45-1.48s9.25-3.75,12.38-7.94a16.6,16.6,0,0,0,3.17-8.68c.43-4.91-.31-9.6-3.4-13.64a29.57,29.57,0,0,0-6.23-5.75c-4-2.94-8.54-4.85-13.07-6.74-6.42-2.67-13-5-19.19-8.16a90.59,90.59,0,0,1-17.68-11.66,47.15,47.15,0,0,1-11.3-14.13,43.28,43.28,0,0,1-4.71-18.67,47.13,47.13,0,0,1,5.15-23.73,48.77,48.77,0,0,1,20.92-21,70,70,0,0,1,26.65-8.16,116,116,0,0,1,17.59-.39,106.45,106.45,0,0,1,18.84,2.71,53.8,53.8,0,0,1,12.82,4.63A1.62,1.62,0,0,1,161.76,163.7Z" transform="translate(-0.22 -0.02)"/><polygon class="cls-3" points="134.69 240.71 134.69 240.78 134.63 240.75 134.69 240.71"/><path class="cls-5" d="M281,256.1c-7.67.36-15.34.25-23,.26-.44,0-.88,0-1.32,0a2.17,2.17,0,0,1-2.11-3q2.17-7.24,4.4-14.45c3.09-9.92,6.23-19.83,9-29.86.83-3,1.35-6.17,2.25-9.2A7,7,0,0,1,271,198c.47-.72,1-.71,1.55-.07a5.46,5.46,0,0,1,1,2.28c2.75,10.89,6,21.64,9.44,32.34,2.17,6.78,4.14,13.61,6.18,20.43.54,1.8-.32,3.05-2.19,3.13S283,256.1,281,256.1Z" transform="translate(-0.22 -0.02)"/><path class="cls-3" d="M395.2,170a10.4,10.4,0,0,1-3.34-.87,41.63,41.63,0,0,1-7.85-4.32c-1.14-.78-1.27-1.34-.61-2.52a14.91,14.91,0,0,1,4.41-5.13c2.18-1.52,3.52-1.09,4.55,1.32,1.16,2.71,2.4,5.39,3.6,8.09a6.44,6.44,0,0,1,.6,1.93C396.69,169.72,396.38,170.06,395.2,170Z" transform="translate(-0.22 -0.02)"/><path class="cls-3" d="M399.12,190.87a13.9,13.9,0,0,1-4.6-.65,2,2,0,0,1-1.58-2.34,7.25,7.25,0,0,1,.59-2.31,64.4,64.4,0,0,0,2.9-7.74,4.18,4.18,0,0,1,.44-1c.35-.59.73-1.2,1.53-1.18s1.12.69,1.39,1.32a79,79,0,0,1,3.55,9.92c.73,2.76,0,3.76-2.89,4C400,190.9,399.56,190.87,399.12,190.87Z" transform="translate(-0.22 -0.02)"/><path class="cls-3" d="M398.63,153a10.09,10.09,0,0,1,4,.56,1.92,1.92,0,0,1,1.33,2.57,72.26,72.26,0,0,1-4.19,11.6c-.26.55-.53,1.29-1.3,1.24s-.87-.76-1.09-1.3a123.25,123.25,0,0,1-3.68-11.78c-.33-1.13.19-1.94,1.38-2.46A8.93,8.93,0,0,1,398.63,153Z" transform="translate(-0.22 -0.02)"/><path class="cls-3" d="M400.71,175.64c-.05-1.09.36-1.52,1.3-1.34a14.72,14.72,0,0,1,1.52.35,49.26,49.26,0,0,1,8.46,3.63c2.28,1.19,2.5,2.47,1,4.56a17.88,17.88,0,0,1-4.43,4.33c-1.52,1.06-2.54.75-3.32-.93q-2.06-4.45-4.1-8.92A5.22,5.22,0,0,1,400.71,175.64Z" transform="translate(-0.22 -0.02)"/><path class="cls-3" d="M380.15,172a24.33,24.33,0,0,1,.25-2.44c.4-2,1.68-2.91,3.67-2.35a83.23,83.23,0,0,1,8.24,2.93c.48.19,1,.39,1.43.61s1,.49,1.06,1.17-.45,1-1,1.26a39.33,39.33,0,0,1-8.26,3.49,16.33,16.33,0,0,1-1.63.41c-2.05.36-3.25-.47-3.58-2.51C380.25,173.72,380.23,172.88,380.15,172Z" transform="translate(-0.22 -0.02)"/><path class="cls-3" d="M416.86,171.53a9,9,0,0,1-.58,3.64,2.35,2.35,0,0,1-2.71,1.65,15.14,15.14,0,0,1-4.41-1q-3-1.2-6-2.47c-.55-.23-1.15-.52-1.13-1.24s.55-.93,1.06-1.18a68.73,68.73,0,0,1,10.86-4c1-.29,1.59.31,2.12,1A5.63,5.63,0,0,1,416.86,171.53Z" transform="translate(-0.22 -0.02)"/><path class="cls-3" d="M383.43,182.11a3.48,3.48,0,0,1,1.18-2.41,16.35,16.35,0,0,1,4.75-3.17c1.46-.73,2.92-1.47,4.39-2.18a4.88,4.88,0,0,1,1.23-.43c.83-.15,1.3.2,1.3,1.09a3.41,3.41,0,0,1-.41,1.61c-1.65,3.14-3.28,6.3-5,9.42-.86,1.59-1.82,1.86-3.5,1.18C385.14,186.3,383.4,184.07,383.43,182.11Z" transform="translate(-0.22 -0.02)"/><path class="cls-3" d="M413.39,161.79c-.13,1.9-1.31,2.81-2.58,3.59-2,1.25-4.13,2.43-6.21,3.62a9.41,9.41,0,0,1-1.51.73c-.74.26-1.58.73-2.23,0s-.16-1.45.16-2.14c.48-1,1-2,1.49-3q1.76-3.27,3.57-6.51a2.4,2.4,0,0,1,3.63-1.08A6.62,6.62,0,0,1,413.39,161.79Z" transform="translate(-0.22 -0.02)"/></g></g></svg>