<svg xmlns="http://www.w3.org/2000/svg" viewBox="0 0 1001.76 1002"><defs><style>.cls-1{fill:#fecfb6;}.cls-2{fill:#171619;}.cls-3{fill:#0f0f11;}.cls-4{fill:#232323;}.cls-5{fill:#fcb08a;}.cls-6{fill:#fcfefd;}.cls-7{fill:#18171a;}.cls-8{fill:#fec0a0;}.cls-9{fill:#fc9866;}.cls-10{fill:#303232;}.cls-11{fill:#2f3232;}.cls-12{fill:#101011;}.cls-13{fill:#01fddf;}.cls-14{fill:#04fde0;}.cls-15{fill:#00fde0;}</style></defs><title>Fichier 5</title><g id="Calque_2" data-name="Calque 2"><g id="Calque_1-2" data-name="Calque 1"><path class="cls-1" d="M1.48,1001.48V299.85c37.36-15.66,73.73-33.48,110.6-50.22,31.54,23.58,67.5,35.61,106.22,39.87,53.72,5.91,105.3-1.09,153.53-26.86,13.19,2.41,26.42,4.61,39.56,7.27q45.19,9.15,90.66,16.79.13.6.24,1.2,0,356.71,0,713.42c-3.19,0-6.39.13-9.58.13ZM321,497.36c0-27.79,0-55.57,0-83.36-.06-25.13-17.45-43.53-41.14-43.68-24.08-.15-41.93,18.37-42,43.68q-.07,83,0,166c0,25.06,17.49,43.47,41.22,43.63,24.17.16,41.82-18.17,41.88-43.63C321,552.44,321,524.9,321,497.36Z" transform="translate(-1.33 -1.34)"/><path class="cls-2" d="M1.48,144.76c0-45.79.1-91.58-.15-137.37,0-5.06,1-6.06,6.06-6.05q247.41.26,494.83.14,0,70.9,0,141.79l-90.18.09c-1.82-1.63-3.93-3-5.4-4.94-12.37-15.91-29-26.32-46.61-35-33.79-16.65-70.21-22.64-107.45-23.35a248,248,0,0,0-47.41,4.13c-28.75,5-56,14-80.83,29.76-13.24,8.39-23.77,19.5-34.2,30.85Z" transform="translate(-1.33 -1.34)"/><path class="cls-3" d="M502.22,143.27V1.48h499.26l-.25,143.25-87,.13c-3.16-.43-4.25-3.33-5.72-5.37-6.42-8.93-14.71-15.78-23.54-22-33.89-24.08-72.58-34.37-113.23-37.38-33-2.44-65.76.55-97.57,10.26-29.57,9-56.42,22.84-77.52,46.26-2.19,2.43-3,6.48-7.24,6.83Z" transform="translate(-1.33 -1.34)"/><path class="cls-4" d="M1.48,144.76l88.67,0c-.29,2.53-1.73,4.53-3,6.65C76.1,170.09,75,189.48,81.81,210c2.45,7.33,8.72,12.54,9.79,20.34l0,1.69-7.88.1-82.21-.19Z" transform="translate(-1.33 -1.34)"/><path class="cls-5" d="M83.69,232.1l7.88-.1,3.08.14,17.43,17.51C75.21,266.37,38.83,284.2,1.48,299.85v-31c2.36,1.71,4.1-.32,5.93-1.12,7.16-3.14,14.32-6.29,21.34-9.7C47,249.15,65.9,241.84,83.69,232.1Z" transform="translate(-1.33 -1.34)"/><path class="cls-6" d="M1001.23,144.73l.25-143.25c.45.32,1.54-.75,1.49.74-.06,2,0,3.94,0,5.91q0,494.09.14,988.18c0,5.54-1.25,6.79-6.78,6.79q-494.09-.23-988.18-.23c-2.16,0-5,1.7-6.65-1.39h491.2c3.19,0,6.39-.09,9.58-.13,2.46,0,4.92.13,7.38.13h482c9.8,0,9.8,0,9.8-10q0-302.28,0-604.57c0-2.46-.09-4.92-.14-7.38q0-14.68-.09-29.36,0-59.12,0-118.23Q1001.22,188.33,1001.23,144.73Z" transform="translate(-1.33 -1.34)"/><path class="cls-7" d="M83.69,232.1C65.9,241.84,47,249.15,28.75,258c-7,3.42-14.19,6.56-21.34,9.7-1.84.81-3.58,2.83-5.93,1.12V231.91Z" transform="translate(-1.33 -1.34)"/><path class="cls-8" d="M1001.33,379.53c0,2.46.14,4.92.14,7.38q0,302.28,0,604.57c0,10,0,10-9.8,10h-482c-2.46,0-4.92-.09-7.38-.13q0-356.71,0-713.42c25.14,2.52,49.62,8.77,74.46,13,21,3.6,41.82,8.15,62.77,12,39.47,7.31,79,14.35,118.44,21.69,31.78,5.91,63.49,12.17,95.26,18.16,38.73,7.3,77.44,14.73,116.26,21.54C980.05,376.23,990.45,379.5,1001.33,379.53ZM681.6,404.9c-3.22,1.68-2.07,4.73-2.08,7.24q-.09,84.92,0,169.85c0,2.51-1.15,5.58,2.14,7.2,4.13,16.13,13.31,27.88,29.69,32.67,23.83,7,45.09-6.32,52.94-32.69,3.41-1.5,2.26-4.58,2.27-7.08q.09-85,0-170.09c0-2.49,1.14-5.58-2.26-7.08-4-16.1-13.2-27.66-29.39-32.72C716.7,366.51,689.69,373.5,681.6,404.9Z" transform="translate(-1.33 -1.34)"/><path class="cls-7" d="M321,497.36c0,27.54,0,55.08,0,82.62-.06,25.46-17.71,43.79-41.88,43.63C255.37,623.46,237.9,605,237.88,580q-.07-83,0-166c0-25.31,17.88-43.82,42-43.68,23.69.14,41.09,18.54,41.14,43.68C321,441.79,321,469.58,321,497.36Z" transform="translate(-1.33 -1.34)"/><path class="cls-9" d="M1001.33,379.53c-10.88,0-21.27-3.3-31.85-5.15-38.82-6.81-77.53-14.24-116.26-21.54-31.77-6-63.48-12.25-95.26-18.16C718.5,327.33,679,320.3,639.52,313c-20.95-3.88-41.77-8.44-62.77-12-24.84-4.26-49.32-10.51-74.46-13q-.1-.61-.24-1.21.07-14.66.13-29.32a12.56,12.56,0,0,1,2.21,0Q651.92,285,799.45,312.53q100.89,18.84,201.79,37.63Z" transform="translate(-1.33 -1.34)"/><path class="cls-10" d="M112.08,249.64,94.65,232.13a3.41,3.41,0,0,0-3-1.82c-1.07-7.8-7.35-13-9.79-20.34-6.84-20.48-5.71-39.87,5.35-58.52,1.26-2.13,2.69-4.12,3-6.65,10.43-11.35,21-22.46,34.2-30.85,24.87-15.76,52.09-24.71,80.83-29.76a248,248,0,0,1,47.41-4.13c37.23.71,73.66,6.7,107.45,23.35,17.62,8.68,34.24,19.09,46.61,35,1.48,1.9,3.59,3.3,5.4,4.94.38,2.77,2.08,4.88,3.43,7.21a70.09,70.09,0,0,1,8.92,47.19c-2.21,14.47-10.22,25.68-18.22,37.08a4.24,4.24,0,0,0-2.84,3.4,211.94,211.94,0,0,1-31.51,24.41C323.6,288.41,272,295.41,218.3,289.51,179.58,285.25,143.62,273.21,112.08,249.64ZM245.35,276a53.28,53.28,0,0,0,15-.07,166.18,166.18,0,0,0,30.77-2.38c18.34-3.4,36.26-8.2,53.21-16.42,21.63-10.5,40.43-24.15,51.14-46.3,10.33-21.37,6.26-44.71-6.87-62.44-11.46-15.48-26.81-26-43.73-34.49l-12.05-5.26c-8.29-2-15.82-6.57-24.46-7.42C288.79,94.8,268.76,93.24,248.4,95c-18-.79-35.65,1.59-53.13,6-29,7.31-55.65,19-76,41.68-14.52,16.2-21.51,35.25-15.47,56.9,8.26,29.62,30.53,46.11,57.14,58,16.81,9.71,35.39,13.6,54.26,16.55C225.23,274.66,235.22,276.45,245.35,276Z" transform="translate(-1.33 -1.34)"/><path class="cls-5" d="M371.83,262.65a212,212,0,0,0,31.51-24.41c8.13,1.65,16.23,3.43,24.39,4.91,23.31,4.25,46.65,8.38,70,12.55l4.48,1.69q-.06,14.66-.13,29.32-45.49-7.57-90.66-16.79C398.25,267.26,385,265.06,371.83,262.65Z" transform="translate(-1.33 -1.34)"/><path class="cls-4" d="M406.18,234.84c8-11.41,16-22.61,18.22-37.08a70.09,70.09,0,0,0-8.92-47.19c-1.35-2.33-3.06-4.44-3.43-7.21l90.18-.09,87.22.15c-.07,4.93-3.15,8.69-5.14,12.84-9.28,19.36-8.9,38.64-.09,58,3.35,7.37,8.8,13.39,12.61,20.45l-96.08.15Z" transform="translate(-1.33 -1.34)"/><path class="cls-11" d="M596.83,234.73c-3.81-7.05-9.26-13.08-12.61-20.45-8.81-19.39-9.19-38.67.09-58,2-4.15,5.07-7.91,5.14-12.84,4.2-.35,5.05-4.4,7.24-6.83,21.1-23.42,47.94-37.23,77.52-46.26,31.81-9.72,64.61-12.71,97.57-10.26,40.65,3,79.34,13.3,113.23,37.38,8.83,6.27,17.12,13.12,23.54,22,1.47,2,2.56,4.95,5.72,5.37-.13,2.34,1.13,4.11,2.17,6.09,10.37,19.65,12.1,39.8,3.56,60.65-3,7.32-8.16,13.28-11.59,20.29a38,38,0,0,0-3.93,3.28c-18.63,20.23-41.91,32.89-67.64,41.48a262.93,262.93,0,0,1-99.68,13.18c-21.92-1.28-43.3-4.49-64.26-10.7C644,270.56,618.32,256.15,596.83,234.73ZM753.61,94.13c-33.76-1.29-64,4.54-92.86,17.82-21.25,9.78-39.49,22.8-51.45,43.54C598,175,600,202.84,613.8,220.69c26.58,34.28,64.28,47.19,104.83,52.52,30.7,4,61.68,3.23,92.14-5.17,27.43-7.56,52.78-18.54,72.18-40,21.66-23.94,24.88-51.85,6.84-78.87-14.06-21.07-35.63-33.62-58.92-42.22C805.41,97.56,779,92.13,753.61,94.13Z" transform="translate(-1.33 -1.34)"/><path class="cls-4" d="M908.4,231.89c3.43-7,8.6-13,11.59-20.29,8.53-20.85,6.81-41-3.56-60.65-1-2-2.31-3.75-2.17-6.09l87-.13q0,43.6,0,87.2Z" transform="translate(-1.33 -1.34)"/><path class="cls-7" d="M91.6,230.3a3.41,3.41,0,0,1,3,1.82L91.57,232Z" transform="translate(-1.33 -1.34)"/><path class="cls-12" d="M908.4,231.89l92.81,0q0,59.12,0,118.23-100.9-18.81-201.79-37.63Q651.92,285,504.39,257.42a12.56,12.56,0,0,0-2.21,0l-4.48-1.69c1.16-2,5.47-1.73,3.95-5.77-1.84-4.88-.58-10-.9-15.06l96.08-.15c21.49,21.42,47.12,35.83,76.07,44.4,21,6.2,42.34,9.42,64.26,10.7a262.93,262.93,0,0,0,99.68-13.18c25.73-8.59,49-21.25,67.64-41.48A38,38,0,0,1,908.4,231.89Z" transform="translate(-1.33 -1.34)"/><path class="cls-12" d="M764.29,589.17c-7.84,26.37-29.1,39.66-52.94,32.69-16.38-4.79-25.56-16.54-29.69-32.67q0-3.6,0-7.21c3.2-1.27,2.18-4.09,2.18-6.37q.07-78.56,0-157.13c0-2.28,1-5.1-2.17-6.38l-.08-7.21c8.09-31.4,35.09-38.39,53.31-32.7,16.19,5.06,25.37,16.62,29.39,32.72l-.17,7.19c-2.95,1.5-1.91,4.27-1.91,6.55q-.08,77.65,0,155.29c0,2.28-1,5.05,1.91,6.55Z" transform="translate(-1.33 -1.34)"/><path class="cls-1" d="M681.6,404.9l.08,7.21c-.13,2.68-.37,5.37-.37,8.05q0,60.33,0,120.66c0,13.72.24,27.44.36,41.16q0,3.61,0,7.21c-3.29-1.62-2.14-4.69-2.14-7.2q-.09-84.92,0-169.85C679.53,409.63,678.38,406.58,681.6,404.9Z" transform="translate(-1.33 -1.34)"/><path class="cls-1" d="M764.29,589.17l-.16-8.67c.16-2.68.45-5.36.46-8q0-76.16,0-152.32c0-2.68-.3-5.36-.46-8l.17-7.19c3.4,1.5,2.26,4.59,2.26,7.08q.09,85,0,170.09C766.56,584.59,767.7,587.67,764.29,589.17Z" transform="translate(-1.33 -1.34)"/><path class="cls-13" d="M160.91,257.58c-26.6-11.9-48.88-28.39-57.14-58-6-21.65,1-40.7,15.47-56.9,20.36-22.72,47-34.37,76-41.68,17.48-4.41,35.1-6.79,53.13-6-10.82,20.34-21.56,40.73-32.49,61Q188.51,206.85,160.91,257.58Z" transform="translate(-1.33 -1.34)"/><path class="cls-13" d="M344.83,113.86c16.92,8.52,32.27,19,43.73,34.49,13.13,17.73,17.2,41.08,6.87,62.44-10.7,22.15-29.51,35.8-51.14,46.3-16.94,8.22-34.87,13-53.21,16.42a166.15,166.15,0,0,1-30.77,2.38c1.42-2.86,2.78-5.75,4.26-8.57Q304.69,190.59,344.83,113.86Z" transform="translate(-1.33 -1.34)"/><path class="cls-6" d="M160.91,257.58q27.51-50.78,55-101.56c10.93-20.28,21.67-40.67,32.49-61,20.37-1.76,40.39-.2,59.92,6.18-6.61,12-13.31,24-19.8,36.1q-36.73,68.39-73.35,136.84C196.3,271.17,177.72,267.28,160.91,257.58Z" transform="translate(-1.33 -1.34)"/><path class="cls-14" d="M215.17,274.12q36.66-68.42,73.35-136.84c6.49-12.09,13.19-24.07,19.8-36.1,8.64.86,16.17,5.4,24.46,7.42L245.35,276C235.22,276.45,225.23,274.66,215.17,274.12Z" transform="translate(-1.33 -1.34)"/><path class="cls-6" d="M245.35,276,332.77,108.6l12.05,5.26q-40.13,76.73-80.25,153.46c-1.48,2.83-2.84,5.71-4.26,8.57A53.27,53.27,0,0,1,245.35,276Z" transform="translate(-1.33 -1.34)"/><path class="cls-7" d="M500.75,234.88c.32,5-.94,10.17.9,15.06,1.53,4-2.78,3.76-3.95,5.77-23.32-4.18-46.66-8.31-70-12.55-8.16-1.49-16.26-3.27-24.39-4.91a4.24,4.24,0,0,1,2.84-3.4Z" transform="translate(-1.33 -1.34)"/><path class="cls-15" d="M753.61,94.13c25.37-2,51.8,3.43,77.26,12.83,23.29,8.6,44.86,21.15,58.92,42.22,18,27,14.82,54.93-6.84,78.87-19.4,21.45-44.74,32.43-72.18,40-30.46,8.39-61.44,9.2-92.14,5.17-40.55-5.33-78.25-18.24-104.83-52.52C600,202.84,598,175,609.3,155.5c12-20.75,30.21-33.76,51.45-43.54C689.61,98.67,719.85,92.84,753.61,94.13Z" transform="translate(-1.33 -1.34)"/><path class="cls-3" d="M681.68,582c-.13-13.72-.35-27.44-.36-41.16q-.07-60.33,0-120.66c0-2.68.24-5.37.37-8.05,3.2,1.27,2.17,4.1,2.17,6.38q.07,78.56,0,157.13C683.86,577.89,684.89,580.71,681.68,582Z" transform="translate(-1.33 -1.34)"/><path class="cls-3" d="M764.13,412.11c.16,2.68.46,5.36.46,8q0,76.16,0,152.32c0,2.68-.3,5.36-.46,8-3-1.5-1.91-4.27-1.91-6.55q-.08-77.65,0-155.29C762.23,416.38,761.19,413.61,764.13,412.11Z" transform="translate(-1.33 -1.34)"/></g></g></svg>