<svg xmlns="http://www.w3.org/2000/svg" viewBox="0 0 1000.2 1000.19"><defs><style>.cls-1{fill:#202020;}.cls-2{fill:#303030;}.cls-3{fill:#0084aa;}.cls-4{fill:#00c5fe;}</style></defs><title>Fichier 6</title><g id="Calque_2" data-name="Calque 2"><g id="Calque_1-2" data-name="Calque 1"><path class="cls-1" d="M500,1Q748.19,1,996.38.92c3.52,0,4.74.43,4.73,4.45q-.18,495.63,0,991.25c0,4-1.22,4.45-4.73,4.45q-248.19-.14-496.38-.08,0-288.38,0-576.76c15.65-1.54,31.2.29,46.41,3.29,16.06,3.17,25.91,16,36.37,27.22a39.82,39.82,0,0,1,8.38,14.42c5.52,16.22,6.52,33.19,8.81,50,1.25,9.13,2.61,18.25,6,26.87a209.9,209.9,0,0,0,21.23,39.62C640.71,605.56,643.13,628,642.73,651c-.2,11.42-.81,22.75.11,34.2,1.16,14.38,7.68,25.65,18,35.15,8.44,7.78,22.61,10.48,30.44,4.27S706.86,711.15,712,702c6.43-11.4,10.24-23.92,15.28-35.91,7.63-18.12,20.5-31.81,35.38-43.9a61.69,61.69,0,0,1,21.75-11.31c14.9-4.39,30.28-4.64,45.53-5.75,17.92-1.3,31.1-10,40.64-24.54,8-12.2,5.9-24.41-1.18-33.5C857.89,532.29,842,525,823.75,522c-21-3.5-39.93-10.56-54.5-27.78-12.62-14.93-13.45-33.49-3.1-48.76,7.66-11.29,17.37-20.7,27.53-29.82,13-11.71,27.37-21.81,40.25-33.73C851,366,867,349.43,876,327.55c5.09-12.29,8.19-24.94,3-38.29-3.19-8.23-9.18-14-15.23-20-6.75-6.6-15.42-8.89-24.14-8-11.79,1.21-23,5.44-33.85,10.34-15.45,7-31,13.74-47,19.49C739,298.29,718.6,303.45,698,308c-15.89,3.49-31.88,6.49-47.95,9.13-13.48,2.21-26.94,4.39-40.47,6.29-12.89,1.81-25.82,3.15-38.75,4.56-9,1-18.09,1.69-27.17,2.24-14.56.88-29.07,2.34-43.68,1.57Q500,166.38,500,1Z" transform="translate(-0.91 -0.91)"/><path class="cls-2" d="M500,424.24,500,1001q-247.25,0-494.5.09c-3.75,0-4.59-.84-4.59-4.59q.15-495.5,0-991C.91,1.75,1.75.9,5.5.91Q252.75,1.07,500,1q0,165.38,0,330.76l-.06.41c-10.83-1.27-21.74-1.08-32.6-2-11.47-1-22.92-2.17-34.4-3-16.7-1.24-33.24-3.54-49.75-6.13-19-3-38.17-5.5-57.07-9.2a632.81,632.81,0,0,1-72.76-18.59c-22-7.1-43-16.81-64.53-25.25-8.21-3.22-16.65-6-25.38-6.81-12-1.09-22,3.66-30,12.81-10.3,11.7-14.51,24.61-11,40.23,4.59,20.21,16.08,36.26,29.51,51.18,12.41,13.79,26.62,25.73,41.2,37.12,15.24,11.91,29.95,24.31,41.59,39.88,8.59,11.48,12.67,24.41,7,38.22-4.56,11.11-13.2,19.4-22.91,26.46-12.4,9-27,11.9-41.5,14.81-17.49,3.52-32.95,10.54-44,24.66-4.75,6.08-7.57,13.78-5.58,22.43,2.41,10.44,8.63,17.84,16.26,24.9,7.43,6.88,16.38,9.43,25.66,11,11.33,1.94,22.93,1.43,34.39,3a79,79,0,0,1,43.26,20c16.55,14.7,27.54,32.9,34.28,53.68,5.14,15.85,13,29.69,25.83,40.53,6.59,5.57,13.91,7.39,22.34,5.12,10.24-2.75,16.38-10.46,22.15-18.39,6.79-9.33,8.23-20.45,9-31.57,1-14.86-1.47-29.63-.31-44.63A105.66,105.66,0,0,1,377,583.41c7.71-12.29,15.08-24.81,20.07-38.54,6.16-17,5.89-35,8.95-52.53,1.54-8.81,3-17.58,6.76-25.89,4.46-9.78,12.2-16.66,19.38-24.14,11.08-11.56,25.2-15.61,40.51-17.4,9.11-1.06,18.21-.58,27.3-1.07Z" transform="translate(-0.91 -0.91)"/><path class="cls-3" d="M500,331.76c14.61.77,29.12-.7,43.68-1.57,9.08-.55,18.14-1.25,27.17-2.24,12.93-1.42,25.86-2.75,38.75-4.56,13.53-1.9,27-4.08,40.47-6.29,16.07-2.63,32.05-5.64,47.95-9.13,20.57-4.51,41-9.68,60.81-16.82,16-5.75,31.53-12.49,47-19.49,10.82-4.91,22.06-9.14,33.85-10.34,8.72-.89,17.39,1.4,24.14,8,6,5.91,12,11.73,15.23,20,5.18,13.35,2.08,26-3,38.29-9.05,21.88-25,38.47-42.1,54.31-12.88,11.92-27.21,22-40.25,33.73-10.15,9.12-19.87,18.53-27.53,29.82-10.36,15.27-9.53,33.83,3.1,48.76,14.57,17.22,33.47,24.29,54.5,27.78,18.25,3,34.14,10.34,45.68,25.13,7.08,9.08,9.21,21.3,1.18,33.5-9.54,14.51-22.72,23.24-40.64,24.54-15.25,1.11-30.62,1.36-45.53,5.75a61.69,61.69,0,0,0-21.75,11.31c-14.88,12.09-27.76,25.78-35.38,43.9-5,12-8.85,24.51-15.28,35.91-5.17,9.16-12.77,16.27-20.75,22.59s-22,3.51-30.44-4.27c-10.31-9.5-16.82-20.76-18-35.15-.93-11.45-.32-22.78-.11-34.2.4-22.93-2-45.41-15.47-65.36A209.9,209.9,0,0,1,606,546c-3.43-8.62-4.79-17.74-6-26.87-2.29-16.76-3.29-33.74-8.81-50a39.82,39.82,0,0,0-8.38-14.42c-10.46-11.25-20.31-24.05-36.37-27.22-15.22-3-30.76-4.83-46.41-3.29l-.06-.41q0-45.83,0-91.67Z" transform="translate(-0.91 -0.91)"/><path class="cls-4" d="M500,332.17q0,45.83,0,91.67c-9.09.49-18.19,0-27.3,1.07-15.31,1.79-29.43,5.85-40.51,17.4-7.17,7.48-14.92,14.37-19.38,24.14-3.79,8.31-5.22,17.08-6.76,25.89-3.06,17.5-2.78,35.56-8.95,52.53-5,13.73-12.36,26.25-20.07,38.54a105.66,105.66,0,0,0-16.35,49.12c-1.16,15,1.31,29.77.31,44.63-.75,11.12-2.18,22.24-9,31.57-5.77,7.93-11.91,15.64-22.15,18.39-8.42,2.26-15.75.45-22.34-5.12-12.83-10.84-20.68-24.69-25.83-40.53-6.74-20.78-17.73-39-34.28-53.68a79,79,0,0,0-43.26-20c-11.46-1.52-23.05-1-34.39-3-9.28-1.59-18.23-4.14-25.66-11-7.63-7.06-13.85-14.46-16.26-24.9-2-8.64.83-16.34,5.58-22.43,11-14.12,26.49-21.14,44-24.66,14.46-2.91,29.1-5.8,41.5-14.81,9.72-7.06,18.36-15.34,22.91-26.46,5.66-13.81,1.59-26.73-7-38.22-11.65-15.56-26.35-28-41.59-39.87-14.58-11.39-28.79-23.33-41.2-37.12-13.43-14.92-24.91-31-29.51-51.18-3.55-15.62.66-28.54,11-40.23,8.06-9.15,18-13.9,30-12.81,8.73.79,17.17,3.59,25.38,6.81,21.5,8.43,42.48,18.14,64.53,25.25a632.81,632.81,0,0,0,72.76,18.59c18.9,3.69,38,6.21,57.07,9.2,16.51,2.59,33,4.9,49.75,6.13,11.47.85,22.93,2,34.4,3C478.22,331.09,489.13,330.9,500,332.17Z" transform="translate(-0.91 -0.91)"/></g></g></svg>