<svg xmlns="http://www.w3.org/2000/svg" viewBox="0 0 1000.22 1000.22"><defs><style>.cls-1{fill:#fec0a0;}.cls-2{fill:#fecfb6;}.cls-3{fill:#fe3037;}.cls-4{fill:#fe2026;}.cls-5{fill:#fe9b69;}.cls-6{fill:#feb189;}.cls-7{fill:#0f0f11;}.cls-8{fill:#fdb189;}.cls-9{fill:#1a181b;}.cls-10{fill:#090809;}.cls-11{fill:#1b191b;}.cls-12{fill:#faaf89;}.cls-13{fill:#080809;}</style></defs><title>Fichier 7</title><g id="Calque_2" data-name="Calque 2"><g id="Calque_1-2" data-name="Calque 1"><path class="cls-1" d="M1001,528q0,234.38.1,468.76c0,3.62-.77,4.34-4.35,4.34q-247.87-.16-495.75-.1,0-248.61,0-497.22Q534.49,477.4,568,451q39.84-31.25,79.77-62.38,48.08-37.71,96.08-75.52c28.39-22.27,56.88-44.41,85.16-66.82,3.54-2.8,4.74-2.05,6.45,1.5q10.49,21.84,21.31,43.52,26,52.11,52.06,104.16c2.53,5,5.28,10,8.08,14.86.58,1,1.25,2.69,2.92,2.21,1.38-.4,1-1.9,1.2-3,2-13,3.94-25.93,6-38.88,1.25-7.86,2.69-15.69,4.19-24.43a19.88,19.88,0,0,1,1.41,2.23Q961.87,426,991.12,503.56C994.23,511.77,996.72,520.25,1001,528ZM681,496.52q0,42,0,84a46.25,46.25,0,0,0,.27,7c3.43,22.28,22.86,37.3,45.71,35.43,20.66-1.69,37-20.13,37-41.9q0-84.47,0-168.94a39.42,39.42,0,0,0-.47-7.46c-4.31-22.2-23.13-36.42-45.49-34.49-20.88,1.8-37,20.26-37,42.43Q681,454.53,681,496.52Z" transform="translate(-0.89 -0.89)"/><path class="cls-2" d="M501,503.78q0,248.61,0,497.22-247.63,0-495.26.11c-4.08,0-4.85-.84-4.85-4.87Q1.08,724.62,1,453c3-1,6-2,8.94-3.14,39.52-15,79-30.14,118.57-45,9.16-3.44,18-7.81,27.67-9.86a26,26,0,0,1-.54,3.43q-17.48,59.6-35,119.17c-.53,1.78-1,3.4,0,5.43l7.3-4.13c1.51,1.31.61,2.72.2,4.13-1.53,5.27-3.24,10.51-4.49,15.85-1,4.4-3.47,8.49-3.37,13.8,5.6-2.44,9.9-5.83,14.46-8.82,26.59-17.45,53.15-34.94,79.9-52.13,7.39-4.75,14.21-10.47,22.45-13.84.08,1.82.22,3.64.22,5.46,0,30.07.06,60.14,0,90.22,0,7.51.17,14.94,2.16,22.23-.18,1.58-.48,3.15-.53,4.73-.11,3.37,1.5,2.39,3.15,1.16a9.39,9.39,0,0,1,3.07,5c-1,3-2.07,6-2.88,9-1.19,4.49-2.28,9-3.16,13.58-.25,1.29-.59,4.36,2.24,2.57,6-3.79,12.15-7.52,15.84-14a1.62,1.62,0,0,0,.74-.3l2,.58a23.22,23.22,0,0,0,2.91,1.76,41.43,41.43,0,0,0,57.46-34.17c1-9.56.62-19.24,0-28.86l.78-1.92c.77-.63,1.59-1.21,2.29-1.91q30.44-30.3,61.12-60.35c27-26.41,53.56-53.37,80.37-80,1.13-1.12,1.76-3.44,4.2-2.66-.09,2.83,0,5.68-.29,8.48C467.6,430.37,466.3,442.19,465,454c-.91,8.2-2.3,16.37-2.71,24.59-.38,7.78-2.55,15.34-2.38,23.17.06,2.81.9,3.13,3.11,2l-2.72,31.09c6.51-5,12.32-9.58,18.22-14C486,515.21,492.95,508.74,501,503.78Z" transform="translate(-0.89 -0.89)"/><path class="cls-3" d="M127.94,518.9,120.64,523c-1-2-.56-3.65,0-5.43q17.58-59.57,35-119.17a26,26,0,0,0,.54-3.43l10.35-34.19c-2.54.92-3.92,1.39-5.28,1.91q-68,25.84-136,51.65c-8,3-15.79,6.8-24.24,8.63Q1,214.11.9,5.23C.9,1.56,1.72.91,5.27.91Q253.13,1.07,501,1q0,232.42,0,464.85c0,2.5.05,5,.08,7.5-2.83,2.3-5.69,4.57-8.5,6.89-9.71,8-20.23,15.06-29.57,23.55-2.2,1.11-3,.78-3.11-2-.17-7.84,2-15.39,2.38-23.17.4-8.22,1.8-16.39,2.71-24.59,1.31-11.81,2.61-23.63,3.81-35.45.29-2.81.2-5.65.29-8.48,1.75-8.22,2-16.62,2.76-24.95.26-2.93,1.91-5.9.63-9.59L320.92,526l-1,1c-1.23,1.09-2.52,2.12-3.68,3.28q-30,30-60,60a88.76,88.76,0,0,1-14.15,11.42c-1.65,1.23-3.26,2.21-3.15-1.16.05-1.58.35-3.15.53-4.73,1.8-8.83,4.92-17.27,8-25.68,12.66-34.46,25.48-68.87,38.13-103.34,3.26-8.87,7.06-17.55,9.47-26.72l0,0c.54-.15.92-.43.8-1.07l14.41-39.07a50,50,0,0,0-5.14,2.53q-19.56,12.93-39.05,26c-9.72,6.51-20.07,12.06-29.16,19.5a24.19,24.19,0,0,0-2.63,1.31Q181.09,484.06,127.94,518.9Z" transform="translate(-0.89 -0.89)"/><path class="cls-4" d="M501.08,473.34c0-2.5-.08-5-.08-7.5Q501,233.42,501,1,748.63,1,996.25.89c4.05,0,4.86.8,4.86,4.86q-.2,246.63-.11,493.25c-1.1-.5-1-1.64-1.34-2.54q-30-79.4-60-158.8c-2.59-6.86-5.26-13.7-8.42-21.92-3.55,22.57-6.86,43.61-10.16,64.66-.17,1.11.23,2.64-1.17,3s-2-1-2.57-2c-3.2-5.81-6.46-11.59-9.43-17.52q-36.42-72.86-72.68-145.81c-1.59-3.2-2.65-4.41-6-1.78q-53.83,42.47-107.8,84.74-49.82,39.09-99.69,78.12Q579,412.73,536.2,446.29C524.56,455.39,512.79,464.33,501.08,473.34Z" transform="translate(-0.89 -0.89)"/><path class="cls-5" d="M501.08,473.34c11.71-9,23.48-18,35.11-27.05q42.81-33.49,85.53-67.1,49.83-39.07,99.69-78.12,53.94-42.32,107.8-84.74c3.33-2.63,4.39-1.42,6,1.78q36.22,73,72.68,145.81c3,5.93,6.23,11.71,9.43,17.52.53,1,1.25,2.3,2.57,2s1-1.9,1.17-3c3.31-21,6.62-42.09,10.16-64.66,3.16,8.22,5.83,15.06,8.42,21.92q30,79.4,60,158.8c.34.89.25,2,1.34,2.54v29c-4.28-7.75-6.77-16.23-9.88-24.44Q961.76,426,932.63,348.45a19.88,19.88,0,0,0-1.41-2.23c-1.51,8.74-2.94,16.57-4.19,24.43-2.06,13-4,25.92-6,38.88-.17,1.11.17,2.61-1.2,3-1.67.49-2.34-1.19-2.92-2.21-2.8-4.89-5.56-9.82-8.08-14.86q-26.09-52.05-52.06-104.16Q846,269.63,835.44,247.8c-1.71-3.56-2.91-4.3-6.45-1.5-28.28,22.4-56.78,44.54-85.16,66.82q-48.07,37.72-96.08,75.52Q607.91,419.88,568,451q-33.55,26.31-67,52.77c-8.05,5-15,11.43-22.48,17.08-5.9,4.43-11.7,9-18.22,14L463,503.78c9.35-8.49,19.87-15.51,29.57-23.55C495.39,477.91,498.25,475.64,501.08,473.34Z" transform="translate(-0.89 -0.89)"/><path class="cls-6" d="M1,423c8.45-1.84,16.22-5.6,24.24-8.63q68.05-25.7,136-51.65c1.36-.52,2.74-1,5.28-1.91L156.18,395c-9.66,2.05-18.51,6.42-27.67,9.86-39.57,14.87-79.05,30-118.57,45C7,451,4,452,1,453Q1,438,1,423Z" transform="translate(-0.89 -0.89)"/><path class="cls-7" d="M681,496.52q0-42,0-84c0-22.17,16.13-40.63,37-42.43,22.36-1.93,41.18,12.29,45.49,34.49a39.42,39.42,0,0,1,.47,7.46q0,84.47,0,168.94c0,21.77-16.34,40.2-37,41.9-22.85,1.87-42.28-13.15-45.71-35.43a46.25,46.25,0,0,1-.27-7Q681,538.5,681,496.52Z" transform="translate(-0.89 -0.89)"/><path class="cls-8" d="M320.92,526,472.48,375.53c1.28,3.68-.37,6.66-.63,9.59-.73,8.33-1,16.73-2.76,24.95-2.43-.78-3.07,1.54-4.2,2.66-26.81,26.66-53.32,53.62-80.37,80q-30.73,30-61.12,60.35c-.7.7-1.53,1.28-2.29,1.91l-.35-28Z" transform="translate(-0.89 -0.89)"/><path class="cls-9" d="M295.07,440.06c-2.41,9.17-6.22,17.85-9.47,26.72-12.65,34.47-25.47,68.88-38.13,103.34-3.09,8.42-6.21,16.85-8,25.68-2-7.29-2.19-14.72-2.16-22.23.09-30.07,0-60.14,0-90.22,0-1.82-.15-3.64-.22-5.46l.19-1.93a11.65,11.65,0,0,0,4.46-2.12c12.34-8.13,24.6-16.4,37.11-24.26C284.16,446.26,288.9,441.9,295.07,440.06Z" transform="translate(-0.89 -0.89)"/><path class="cls-6" d="M237.3,476l-.19,1.93c-8.25,3.36-15.07,9.09-22.45,13.83-26.76,17.19-53.31,34.68-79.9,52.13-4.56,3-8.86,6.38-14.46,8.82-.1-5.31,2.34-9.4,3.37-13.8,1.25-5.34,3-10.57,4.49-15.85.41-1.41,1.3-2.82-.2-4.13q53.16-34.83,106.32-69.65a24.14,24.14,0,0,1,2.63-1.31Z" transform="translate(-0.89 -0.89)"/><path class="cls-10" d="M320.75,527l.35,28-.78,1.92a11.86,11.86,0,0,0-2.06,1.35q-28.11,28-56.17,56.12c-1.07,1.07-2.08,2.17-2.16,3.81l-2-.58L257,617c-5-2.26-8.17-6.57-11.86-10.31a9.39,9.39,0,0,0-3.07-5,88.78,88.78,0,0,0,14.14-11.42q30-30,60-60c1.16-1.16,2.45-2.19,3.68-3.28A3.75,3.75,0,0,0,320.75,527Z" transform="translate(-0.89 -0.89)"/><path class="cls-11" d="M259.94,618.21c.07-1.63,1.08-2.73,2.16-3.81q28.08-28.06,56.17-56.12a11.86,11.86,0,0,1,2.06-1.35c.6,9.62,1,19.3,0,28.86A41.43,41.43,0,0,1,262.85,620,23.21,23.21,0,0,1,259.94,618.21Z" transform="translate(-0.89 -0.89)"/><path class="cls-12" d="M245.16,606.71c3.69,3.74,6.88,8.05,11.86,10.31a4.36,4.36,0,0,1,.19.91c-3.7,6.44-9.87,10.17-15.84,14-2.82,1.79-2.48-1.28-2.24-2.57.88-4.56,2-9.09,3.16-13.58C243.09,612.69,244.19,609.71,245.16,606.71Z" transform="translate(-0.89 -0.89)"/><path class="cls-11" d="M257.2,617.93A4.36,4.36,0,0,0,257,617l.92.62A1.63,1.63,0,0,1,257.2,617.93Z" transform="translate(-0.89 -0.89)"/><path class="cls-13" d="M237.3,476l-.41-28c9.09-7.44,19.44-13,29.16-19.5q19.48-13,39.05-26a50,50,0,0,1,5.14-2.53L295.84,439l-.8,1.07,0,0c-6.18,1.85-10.91,6.21-16.21,9.53-12.51,7.86-24.77,16.13-37.11,24.26A11.65,11.65,0,0,1,237.3,476Z" transform="translate(-0.89 -0.89)"/><path class="cls-9" d="M295,440.08l.8-1.07C296,439.66,295.58,439.93,295,440.08Z" transform="translate(-0.89 -0.89)"/><path class="cls-11" d="M320.75,527a3.75,3.75,0,0,1-.81,0l1-1Z" transform="translate(-0.89 -0.89)"/></g></g></svg>