<svg xmlns="http://www.w3.org/2000/svg" viewBox="0 0 677 677"><defs><style>.cls-1{fill:#fecfb6;}.cls-2{fill:#fec0a0;}.cls-3{fill:#0f0f11;}.cls-4{fill:#303232;}.cls-5{fill:#fc9866;}.cls-6{fill:#00fde0;}.cls-7{fill:#01fddf;}.cls-8{fill:#fcfefd;}.cls-9{fill:#f6fefd;}</style></defs><title>Fichier 1</title><g id="Calque_2" data-name="Calque 2"><g id="Calque_1-2" data-name="Calque 1"><path class="cls-1" d="M340,678H1Q1,440.5,1,203a6.4,6.4,0,0,0,1.46-.29q36.72-16.81,73.43-33.66c28.38,20.81,60.73,28.2,95.27,28.22,28.4,0,55.36-6,80.53-19.4q25.42,4.75,50.85,9.49c12.39,2.29,24.8,4.51,37.2,6.76l.19.14c0,2.5.06,5,.06,7.5Q340,439.87,340,678ZM217.28,336.4c0-18.66,0-37.32,0-56,0-17.09-11.74-29.56-27.77-29.68-16.32-.13-28.42,12.41-28.43,29.57q0,56,0,111.95c0,17.35,11.81,29.88,28.07,29.91s28.1-12.42,28.14-29.79Q217.32,364.39,217.28,336.4Z" transform="translate(-1 -1)"/><path class="cls-2" d="M340,678q0-238.13,0-476.25c0-2.5,0-5-.06-7.5a11.54,11.54,0,0,1,2,0c22,4.23,44,8.56,66,12.7,24.13,4.53,48.31,8.82,72.44,13.35,18.1,3.39,36.15,7.09,54.25,10.48q51.12,9.57,102.29,18.89c13.71,2.48,27.28,5.71,41.15,7.3V678ZM461.44,274.13c-2,1.2-1.41,3.22-1.41,5q0,57.43,0,114.87c0,1.73-.63,3.76,1.45,4.92,2.8,10.92,9,18.88,20.1,22.13,16.15,4.72,30.52-4.27,35.84-22.14,2.17-1.09,1.54-3.14,1.54-4.87q0-57.49,0-115c0-1.73.64-3.77-1.53-4.87-2.72-10.9-8.93-18.73-19.9-22.16C485.27,248.14,466.94,252.8,461.44,274.13Z" transform="translate(-1 -1)"/><path class="cls-3" d="M1,98V1H678V98c-18.66,0-37.32-.07-56,.13a7.59,7.59,0,0,1-7-3.67c-4.3-6.29-10.15-11-16.29-15.27-23.36-16.33-49.9-23.22-77.83-25a179.55,179.55,0,0,0-64.12,6.92C436,67.36,417.24,77,402.94,93.85c-1.95,2.29-3.75,3.26-6.68,3.25q-56.73-.13-113.45,0a8.93,8.93,0,0,1-7.72-3.59c-8.65-11-20.16-18.38-32.61-24.06-26-11.85-53.38-16.31-82-14.65a181.26,181.26,0,0,0-51.15,10C92.67,70.75,77.44,79.28,65.86,93c-3.5,4.13-6.92,5.22-11.88,5.16C36.32,97.88,18.66,98,1,98Z" transform="translate(-1 -1)"/><path class="cls-4" d="M1,98c17.66,0,35.32-.12,53,.11,5,.06,8.39-1,11.88-5.16,11.58-13.67,26.81-22.2,43.49-28.18a181.26,181.26,0,0,1,51.15-10c28.6-1.66,56,2.8,82,14.65,12.45,5.67,24,13,32.61,24.06a8.93,8.93,0,0,0,7.72,3.59q56.73-.15,113.45,0c2.93,0,4.73-1,6.68-3.25C417.24,77,436,67.36,456.75,61.08a179.55,179.55,0,0,1,64.12-6.92c27.94,1.82,54.47,8.7,77.83,25,6.15,4.3,12,9,16.29,15.27a7.59,7.59,0,0,0,7,3.67c18.66-.19,37.32-.11,56-.13v59c-19.66,0-39.32.05-59-.09a9.5,9.5,0,0,0-7.85,3.38,77.74,77.74,0,0,1-17.27,14.24c-25.49,15.9-53.89,21.33-83.31,22.27A162.78,162.78,0,0,1,477.4,194c-26.54-4.65-51.07-13.62-70.75-33a7.07,7.07,0,0,0-5.34-2.15q-61.73.07-123.46.06c-2,0-4.1-.06-4.83,2.49a146.72,146.72,0,0,1-21.33,16.41c-25.17,13.4-52.12,19.41-80.53,19.4-34.54,0-66.89-7.41-95.27-28.22L64,157.15c-.66-1-1.35-1-2.05,0a9.32,9.32,0,0,1-5.3,0L1,157ZM225.28,73.51c-5.6-1.38-10.7-4.42-16.54-5-13.22-4.32-26.78-5.37-40.57-4.19a124.35,124.35,0,0,0-35.48,4C113.2,73.12,95.3,80.82,81.42,95.86,71.15,107,66.1,120.05,70.26,135.11c5.55,20.06,20.67,31.21,38.67,39.27,11.38,6.56,24,9.21,36.74,11.2,6.8.37,13.56,1.56,20.4,1.24a35.31,35.31,0,0,0,10.17,0,117.75,117.75,0,0,0,21.32-1.7c12.24-2.33,24.21-5.53,35.52-11,14.63-7.11,27.38-16.35,34.62-31.34,7-14.55,4.24-30.23-4.65-42.27-7.75-10.48-18.14-17.59-29.6-23.35ZM508,186.11a136,136,0,0,0,19.82-.85c23.08-2.33,44.48-9.28,62.74-24,11.1-8.93,18.88-20.19,19.37-35.08.53-16.17-7.74-28.05-19.51-37.93C579.22,78.86,566,73,552.09,69c-8.76-2.5-17.68-4.91-26.86-5.11-18.27-.4-36.49-1.12-54.55,3.73C451,72.92,432.87,80.58,419,96c-14.3,15.84-15.56,37.9-2.17,55,9.64,12.3,22.37,20.14,36.52,25.69A135.73,135.73,0,0,0,508,186.11Z" transform="translate(-1 -1)"/><path class="cls-3" d="M273,161.46c.72-2.55,2.78-2.49,4.83-2.49q61.73,0,123.46-.06a7.07,7.07,0,0,1,5.34,2.15c19.68,19.36,44.21,28.32,70.75,33a162.78,162.78,0,0,0,33.2,2.77c29.42-.94,57.82-6.37,83.31-22.27a77.74,77.74,0,0,0,17.27-14.24,9.5,9.5,0,0,1,7.85-3.38c19.66.14,39.32.08,59,.09v80c-.5-.05-1-.07-1.49-.17Q605.23,223.5,534,210.17q-67.87-12.67-135.74-25.26c-19.43-3.6-38.88-7.1-58.31-10.65-1.77-.42-3.52-.92-5.3-1.25Q303.81,167.21,273,161.46Z" transform="translate(-1 -1)"/><path class="cls-5" d="M339.89,174.26c19.44,3.55,38.89,7,58.31,10.65Q466.09,197.49,534,210.17q71.29,13.31,142.56,26.67c.49.09,1,.11,1.49.17v20c-13.86-1.59-27.44-4.82-41.15-7.3q-51.18-9.25-102.29-18.89c-18.1-3.39-36.15-7.09-54.25-10.48-24.13-4.52-48.31-8.81-72.44-13.35-22-4.14-44-8.47-66-12.7a11.54,11.54,0,0,0-2,0l-.19-.14Q339.82,184.18,339.89,174.26Z" transform="translate(-1 -1)"/><path class="cls-2" d="M64,157.15l11.91,11.9Q39.18,185.89,2.46,202.71A6.4,6.4,0,0,1,1,203V182c1.37,1.24,2.47,0,3.54-.51,9.21-4.15,18.43-8.27,27.54-12.64,8.18-3.92,16.74-7.06,24.54-11.78a9.32,9.32,0,0,0,5.3,0Z" transform="translate(-1 -1)"/><path class="cls-3" d="M56.62,157.08c-7.8,4.72-16.36,7.86-24.54,11.78-9.11,4.36-18.34,8.48-27.54,12.64C3.47,182,2.37,183.24,1,182V157Z" transform="translate(-1 -1)"/><path class="cls-3" d="M217.28,336.4q0,28,0,56c0,17.37-11.81,29.81-28.14,29.79s-28.06-12.56-28.07-29.91q0-56,0-111.95c0-17.16,12.12-29.7,28.43-29.57,16,.13,27.73,12.59,27.77,29.68C217.31,299.08,217.28,317.74,217.28,336.4Z" transform="translate(-1 -1)"/><path class="cls-2" d="M339.89,174.26q-.08,9.93-.15,19.86c-12.4-2.25-24.81-4.47-37.2-6.76q-25.43-4.7-50.85-9.49A146.72,146.72,0,0,0,273,161.46q30.79,5.77,61.57,11.54C336.38,173.34,338.13,173.84,339.89,174.26Z" transform="translate(-1 -1)"/><path class="cls-3" d="M517.43,398.86c-5.32,17.88-19.69,26.86-35.84,22.14-11.1-3.25-17.3-11.21-20.1-22.13q0-62.37,0-124.74c5.5-21.33,23.82-26,36.09-22.15,11,3.43,17.18,11.26,19.9,22.16Q517.43,336.5,517.43,398.86Z" transform="translate(-1 -1)"/><path class="cls-1" d="M461.44,274.13q0,62.37,0,124.74c-2.09-1.16-1.45-3.19-1.45-4.92q0-57.43,0-114.87C460,277.35,459.4,275.33,461.44,274.13Z" transform="translate(-1 -1)"/><path class="cls-1" d="M517.43,398.86q0-62.36,0-124.71c2.17,1.1,1.53,3.14,1.53,4.87q0,57.49,0,115C519,395.72,519.6,397.76,517.43,398.86Z" transform="translate(-1 -1)"/><path class="cls-6" d="M508,186.11a135.73,135.73,0,0,1-54.74-9.43c-14.14-5.55-26.88-13.38-36.52-25.69-13.4-17.1-12.14-39.16,2.17-55,13.92-15.42,32-23.07,51.72-28.35,18.06-4.84,36.28-4.13,54.55-3.73,9.18.2,18.1,2.62,26.86,5.11,14,4,27.13,9.84,38.37,19.27,11.77,9.87,20,21.76,19.51,37.93-.49,14.89-8.27,26.15-19.37,35.08-18.26,14.69-39.66,21.63-62.74,24A136,136,0,0,1,508,186.11Z" transform="translate(-1 -1)"/><path class="cls-7" d="M108.94,174.38c-18-8.06-33.12-19.21-38.67-39.27-4.17-15.06.89-28.12,11.15-39.25,13.88-15,31.78-22.75,51.27-27.6a124.34,124.34,0,0,1,35.48-4c-5.67,10.7-11.28,21.44-17,32.1Q130.09,135.43,108.94,174.38Z" transform="translate(-1 -1)"/><path class="cls-7" d="M233.46,77.09c11.46,5.76,21.85,12.87,29.6,23.35,8.89,12,11.67,27.72,4.65,42.27-7.24,15-20,24.23-34.62,31.34-11.31,5.5-23.28,8.7-35.52,11a117.74,117.74,0,0,1-21.32,1.7c1-2.08,2-4.18,3.12-6.24Q206.41,128.81,233.46,77.09Z" transform="translate(-1 -1)"/><path class="cls-8" d="M108.94,174.38q21.11-39,42.2-78c5.75-10.66,11.36-21.4,17-32.1,13.79-1.19,27.35-.13,40.57,4.19-4.39,8-8.83,16-13.15,24q-25,46.52-49.91,93.07C132.9,183.59,120.32,180.95,108.94,174.38Z" transform="translate(-1 -1)"/><path class="cls-7" d="M145.67,185.58Q170.62,139,195.58,92.51c4.32-8,8.76-16,13.15-24,5.84.58,10.94,3.63,16.54,5l-59.2,113.32C159.23,187.14,152.48,186,145.67,185.58Z" transform="translate(-1 -1)"/><path class="cls-9" d="M166.08,186.82l59.2-113.32,8.19,3.59q-27.05,51.72-54.1,103.45c-1.08,2.06-2.08,4.16-3.12,6.24A35.3,35.3,0,0,1,166.08,186.82Z" transform="translate(-1 -1)"/><path class="cls-3" d="M64,157.15l-2.05,0C62.63,156.13,63.31,156.13,64,157.15Z" transform="translate(-1 -1)"/></g></g></svg>