<svg xmlns="http://www.w3.org/2000/svg" viewBox="0 0 750.04 750.94"><defs><style>.cls-1{fill:#202020;}.cls-2{fill:#303030;}.cls-3{fill:#fefefe;}.cls-4{fill:#0084aa;}.cls-5{fill:#00c5fe;}</style></defs><title>Fichier 6</title><g id="Calque_2" data-name="Calque 2"><g id="Calque_1-2" data-name="Calque 1"><path class="cls-1" d="M750.75,1V751H375q0-216.28,0-432.56c11.59-.69,23.22-.54,34.47,2.3,13.47,3.4,22.48,13.08,30.1,24.07,6.75,9.74,7.23,21.33,8.91,32.51,1.17,7.8,1.73,15.7,3.4,23.43,2.76,12.82,9,24.18,16.26,34.72,10.94,15.88,14.4,33.49,13.93,52.08-.17,6.82-.57,13.68-.5,20.51.14,12.64,4.14,23.69,13.9,32.33,6.56,5.81,17.4,8,23.16,3.22,5.95-5,11.79-10.28,15.66-17.35,4.66-8.51,7.5-17.75,11.28-26.61,5.78-13.56,15.4-23.81,26.6-32.85a46.09,46.09,0,0,1,16-8.36c11.16-3.32,22.7-3.53,34.13-4.35,13.26-.94,23.08-7.24,30.37-17.92,6.27-9.18,4.78-18.86-.65-25.73-8.72-11-20.63-16.46-34.31-18.75-15.75-2.64-30-7.92-40.82-20.92-9.27-11.09-10.1-24.67-2.39-36.28s18.26-20.9,29.09-29.66c12.53-10.13,25.29-19.92,35.87-32.27,6.79-7.93,13.36-15.93,17.24-25.72,3.76-9.49,6.58-19.05,2.68-29.41-2.4-6.35-7-10.78-11.58-15.29a21.82,21.82,0,0,0-18.12-5.93c-9.08,1-17.72,4.27-26.06,8.08-11.35,5.19-22.79,10.12-34.55,14.3a362.8,362.8,0,0,1-43.45,12.06q-19.14,4.22-38.46,7.43c-10,1.67-20,3.26-30,4.68-9.66,1.37-19.36,2.38-29.05,3.42-6.77.73-13.56,1.26-20.37,1.67-10.91.66-21.8,1.76-32.75,1.18L375,1.12c1.5,0,3-.12,4.49-.12Z" transform="translate(-0.71 -0.06)"/><path class="cls-2" d="M375,1.12l0,247.94v.32c-7.07-.37-14.15-.62-21.2-1-12.65-.75-25.26-2.29-37.88-3.61-8.8-.92-17.62-1.8-26.37-3.09-10-1.48-20-3.59-30-5.09-12.35-1.84-24.57-4.34-36.7-7.2a401.22,401.22,0,0,1-45.52-13.68c-11-4-21.66-8.93-32.53-13.31A113.73,113.73,0,0,0,127,196.8c-10.66-2.38-19.57.71-26.86,8.92-7.76,8.74-10.9,18.46-8.25,30.17,3.44,15.16,12.05,27.2,22.12,38.39,9.31,10.34,20,19.29,30.9,27.84,11.43,8.93,22.46,18.23,31.2,29.9,6.45,8.62,9.5,18.31,5.27,28.67-3.41,8.34-9.9,14.55-17.18,19.85-9.29,6.76-20.28,8.93-31.13,11.11-13.12,2.64-24.71,7.9-33,18.49-3.57,4.57-5.67,10.34-4.19,16.82,1.8,7.83,6.47,13.38,12.19,18.67s12.29,7.07,19.25,8.27c8.5,1.46,17.2,1.08,25.79,2.22a59.23,59.23,0,0,1,32.45,15c12.42,11,20.65,24.68,25.71,40.26,3.86,11.89,9.75,22.27,19.37,30.4a17.44,17.44,0,0,0,16.76,3.84c7.68-2.07,12.28-7.84,16.61-13.8,5.09-7,6.18-15.33,6.73-23.68.74-11.14-1.11-22.22-.23-33.47a79.27,79.27,0,0,1,12.27-36.84c5.78-9.22,11.32-18.6,15-28.9,4.61-12.73,4.41-26.28,6.71-39.4,1.16-6.61,2.24-13.19,5.08-19.41,3.35-7.33,9.16-12.49,14.54-18.11,8.31-8.67,18.91-11.69,30.39-13,6.83-.8,13.66-.42,20.47-.81V751H.75V1H370.52C372,1,373.52,1.08,375,1.12Z" transform="translate(-0.71 -0.06)"/><path class="cls-3" d="M375,1.12c-1.5,0-3-.12-4.49-.12H.75C.91.77.37.22,1.13.24c1,0,2,0,3,0q371.63,0,743.25,0c1.1,0,2.54-.86,3.38.7H379.5C378,1,376.51,1.08,375,1.12Z" transform="translate(-0.71 -0.06)"/><path class="cls-4" d="M375,249.06c11,.59,21.84-.52,32.75-1.18,6.81-.41,13.6-.95,20.37-1.67,9.69-1,19.39-2,29.05-3.42,10-1.42,20-3,30-4.68q19.33-3.24,38.46-7.43A362.8,362.8,0,0,0,569,218.62c11.77-4.18,23.21-9.12,34.55-14.3,8.33-3.81,17-7.06,26.06-8.08a21.82,21.82,0,0,1,18.12,5.93c4.62,4.5,9.18,8.94,11.58,15.29,3.91,10.35,1.09,19.91-2.68,29.41-3.88,9.79-10.45,17.79-17.24,25.72-10.58,12.34-23.34,22.14-35.87,32.27-10.83,8.75-21.32,17.94-29.09,29.66s-6.88,25.19,2.39,36.28c10.86,13,25.07,18.28,40.82,20.92,13.68,2.29,25.58,7.7,34.31,18.75,5.43,6.87,6.92,16.55.65,25.73-7.29,10.68-17.11,17-30.37,17.92-11.43.81-23,1-34.13,4.35a46.09,46.09,0,0,0-16,8.36c-11.2,9-20.82,19.29-26.6,32.85-3.78,8.86-6.62,18.1-11.28,26.61-3.87,7.07-9.71,12.38-15.66,17.35-5.76,4.81-16.6,2.58-23.16-3.22-9.76-8.64-13.77-19.69-13.9-32.33-.07-6.83.32-13.68.5-20.51.47-18.59-3-36.2-13.93-52.08-7.26-10.54-13.5-21.91-16.26-34.72-1.67-7.74-2.23-15.63-3.4-23.43-1.68-11.18-2.16-22.77-8.91-32.51-7.62-11-16.63-20.67-30.1-24.07-11.25-2.84-22.88-3-34.47-2.3v-.32q0-34.37,0-68.73Z" transform="translate(-0.71 -0.06)"/><path class="cls-5" d="M375,249.38q0,34.37,0,68.73c-6.82.39-13.64,0-20.47.81-11.48,1.35-22.08,4.36-30.39,13-5.38,5.61-11.19,10.77-14.54,18.11-2.84,6.23-3.93,12.81-5.08,19.41-2.3,13.12-2.1,26.67-6.71,39.4-3.73,10.3-9.27,19.69-15,28.9a79.27,79.27,0,0,0-12.27,36.84c-.87,11.25,1,22.33.23,33.47-.55,8.35-1.64,16.68-6.73,23.68-4.33,6-8.93,11.73-16.61,13.8a17.44,17.44,0,0,1-16.76-3.84c-9.62-8.13-15.51-18.51-19.37-30.4-5.06-15.59-13.29-29.24-25.71-40.26a59.23,59.23,0,0,0-32.45-15c-8.59-1.14-17.29-.76-25.79-2.22-7-1.19-13.68-3.1-19.25-8.27S97.66,434.79,95.86,427c-1.49-6.48.62-12.25,4.19-16.82,8.28-10.59,19.87-15.85,33-18.49,10.84-2.18,21.83-4.34,31.13-11.11,7.28-5.3,13.77-11.51,17.18-19.85,4.23-10.36,1.18-20-5.27-28.67-8.74-11.67-19.77-21-31.2-29.9-10.93-8.54-21.59-17.5-30.9-27.84C103.91,263.09,95.29,251,91.86,235.89c-2.65-11.71.48-21.42,8.25-30.17,7.29-8.21,16.2-11.3,26.86-8.92a113.73,113.73,0,0,1,17.79,5.57c10.86,4.38,21.5,9.28,32.53,13.31a401.22,401.22,0,0,0,45.52,13.68c12.13,2.87,24.35,5.36,36.7,7.2,10,1.49,20,3.6,30,5.09,8.75,1.29,17.57,2.17,26.37,3.09,12.62,1.32,25.23,2.86,37.88,3.61C360.84,248.76,367.93,249,375,249.38Z" transform="translate(-0.71 -0.06)"/></g></g></svg>