<svg xmlns="http://www.w3.org/2000/svg" viewBox="0 0 750.76 750.98"><defs><style>.cls-1{fill:#fec0a0;}.cls-2{fill:#fecfb6;}.cls-3{fill:#fe2026;}.cls-4{fill:#fe9b69;}.cls-5{fill:#fefefe;}.cls-6{fill:#0f0f11;}.cls-7{fill:#fe3037;}.cls-8{fill:#feb189;}</style></defs><title>Fichier 2</title><g id="Calque_2" data-name="Calque 2"><g id="Calque_1-2" data-name="Calque 1"><path class="cls-1" d="M751,396.25V751H376q0-186.46,0-372.91,25.12-19.79,50.24-39.58,29.88-23.44,59.83-46.78,36.06-28.28,72.06-56.65,27.07-21.26,54.18-42.47c4.08-3.19,8.2-6.34,12.13-9.37,1.6.73,1.87,1.9,2.35,2.88,5.19,10.53,10.28,21.11,15.53,31.61q22.19,44.42,44.5,88.77a5.9,5.9,0,0,0,3.82,3.5c2.23-16.69,5-33.06,8.06-50a14.25,14.25,0,0,1,1,1.63q21.92,58.17,43.87,116.33C745.93,384.08,747.79,390.44,751,396.25ZM573.25,373q0-31.68,0-63.35A32.68,32.68,0,0,0,573,304c-2.94-16.68-17.35-27.68-34.23-26.21C523.22,279.19,511,293,511,309.3q0,63.35,0,126.7a29.55,29.55,0,0,0,.47,5.95c3.46,16.68,17.7,27.17,34.4,25.44,15.59-1.62,27.35-15.27,27.36-31.79Q573.27,404.31,573.25,373Z" transform="translate(-0.24 -0.06)"/><path class="cls-2" d="M376,378.09q0,186.46,0,372.91H1Q1,547.9,1,344.81c0-1.62.06-3.24.1-4.87,2.23-.77,4.49-1.48,6.7-2.32C37.41,326.37,67,315,96.65,303.89c6.86-2.58,13.5-5.85,20.74-7.39a19.52,19.52,0,0,1-.4,2.57q-13.11,44.7-26.28,89.38a5,5,0,0,0,0,4.07l5.48-3.09c1.38,3-.72,5.46-1.35,8.09-1.35,5.61-3.11,11.11-4.92,17.44,4.69-2,7.89-4.52,11.3-6.76,20.1-13.19,40.16-26.42,60.39-39.41,5.42-3.48,10.4-7.72,16.49-10.14.06,1.36.18,2.73.18,4.09,0,22.42,0,44.85,0,67.27,0,5.75.09,11.45,1.6,17a9.86,9.86,0,0,0-.22,5.05c1.13.51,1.55-.3,2.17-.58a7.16,7.16,0,0,1,2.3,3.76c-1.73,6.32-4.74,12.39-4.3,20.09,5.24-3.92,10.38-6.53,13.36-11.71a15.2,15.2,0,0,1,2.13.58c23.26,10,45.36-4.51,45.44-29.84,0-6-.48-11.95.36-17.9.57-.48,1.19-.92,1.71-1.44q22.83-22.73,45.84-45.26c20.29-19.81,40.17-40,60.28-60,.84-.84,1.32-2.58,3.15-2-.34,4.71-.58,9.43-1,14.13-.86,8.62-1.83,17.23-2.78,25.84-.67,6-1.48,12-2,18.07-.4,4.23-1.64,8.44-.68,12.87l2-.63-2,23.32c4.89-3.76,9.24-7.18,13.66-10.51C364.78,386.66,370,381.81,376,378.09Z" transform="translate(-0.24 -0.06)"/><path class="cls-3" d="M751,1V374.5c-.82-.37-.75-1.23-1-1.9Q727.48,313,705,253.49c-1.95-5.15-3.94-10.27-6.27-16.33l-8.15,50.76-1.46.49c-21.86-42.21-42.52-85-64.1-127.58a24.13,24.13,0,0,0-2.5,1.48q-26.63,20.89-53.23,41.81-44,34.53-88,69.05-41.2,32.31-82.44,64.57c-7.55,5.9-15.2,11.67-22.81,17.5,0-.88,0-1.75,0-2.62q0-175.75,0-351.5c1.5,0,3-.12,4.49-.12Z" transform="translate(-0.24 -0.06)"/><path class="cls-4" d="M376.05,355.25c7.61-5.83,15.26-11.6,22.81-17.5q41.25-32.25,82.44-64.57,44-34.5,88-69.05,26.62-20.9,53.23-41.81a24.13,24.13,0,0,1,2.5-1.48c21.57,42.54,42.23,85.37,64.1,127.58l1.46-.49,8.15-50.76c2.33,6.06,4.33,11.18,6.27,16.33Q727.49,313,750,372.6c.25.67.19,1.53,1,1.9v21.75c-3.21-5.81-5.07-12.17-7.41-18.33q-22-58.13-43.87-116.33a14.25,14.25,0,0,0-1-1.63c-3,17-5.83,33.36-8.06,50a5.9,5.9,0,0,1-3.82-3.5q-22.31-44.35-44.5-88.77c-5.25-10.5-10.34-21.08-15.53-31.61-.48-1-.76-2.15-2.35-2.88-3.93,3-8.05,6.17-12.13,9.37q-27.1,21.22-54.18,42.47-36,28.31-72.06,56.65-29.88,23.44-59.83,46.78Q401.08,358.25,376,378.09c-6,3.72-11.22,8.57-16.86,12.81-4.43,3.32-8.78,6.74-13.66,10.51l2-23.32c.62-.6,1.19-1.25,1.86-1.78Q362.7,365.76,376.05,355.25Z" transform="translate(-0.24 -0.06)"/><path class="cls-5" d="M751,1H380.5c-1.5,0-3,.08-4.49.12-.87,0-1.74-.12-2.62-.12Q188.92,1,4.45,1C3.38,1,2.21.66,1,1.6,1,2.93,1,4.42,1,5.9Q1,156.06,1,306.23c0,3.75,0,7.5.06,11.25l0,22.46c0,1.62-.1,3.24-.1,4.87Q1,547.9,1,751c-.23-.16-.78.38-.76-.38,0-1,0-2,0-3V.25q373.69,0,747.38,0C748.72.3,750.17-.57,751,1Z" transform="translate(-0.24 -0.06)"/><path class="cls-6" d="M573.25,373q0,31.3,0,62.6c0,16.52-11.77,30.16-27.36,31.79-16.7,1.74-30.94-8.76-34.4-25.44A29.55,29.55,0,0,1,511,436q0-63.35,0-126.7c0-16.31,12.21-30.11,27.74-31.47C555.63,276.36,570,287.37,573,304a32.68,32.68,0,0,1,.26,5.61Q573.26,341.33,573.25,373Z" transform="translate(-0.24 -0.06)"/><path class="cls-7" d="M1.07,317.47C1,313.73,1,310,1,306.23Q1,156.06,1,5.9c0-1.48,0-3,0-4.3C2.21.66,3.38,1,4.45,1Q188.92,1,373.4,1c.87,0,1.74.08,2.62.12q0,175.75,0,351.5c0,.87,0,1.75,0,2.62q-13.34,10.53-26.68,21.06c-.67.53-1.24,1.18-1.86,1.78l-2,.63c-1-4.43.28-8.65.68-12.87.56-6,1.38-12,2-18.07,1-8.61,1.93-17.22,2.78-25.84.47-4.7.7-9.42,1-14.13,1.31-6.17,1.52-12.47,2.07-18.71.19-2.19,1.43-4.43.48-7.17L240.91,394.76c-1.1,1-2.25,1.95-3.3,3q-22.35,22.33-44.68,44.69a74.06,74.06,0,0,1-11.12,9.1c-.61.29-1,1.1-2.17.58a9.86,9.86,0,0,1,.22-5.05,30.13,30.13,0,0,1,.87-3.95c2.89-10.13,6.85-19.88,10.47-29.75q15.29-41.67,30.75-83.28c3.62-9.8,7.22-19.62,11-29.85A31.82,31.82,0,0,0,229.2,302q-15.79,10.42-31.53,20.93c-6.6,4.41-13.66,8.12-19.76,13.28a17.62,17.62,0,0,0-2,1q-39.87,26.1-79.73,52.23l-5.48,3.1a5,5,0,0,1,0-4.07q13.19-44.68,26.28-89.38a19.5,19.5,0,0,0,.4-2.57l7.76-25.63c-1.9.68-2.93,1-3.94,1.42q-51,19.37-102,38.72C13.22,313.27,7.4,316.1,1.07,317.47Z" transform="translate(-0.24 -0.06)"/><path class="cls-6" d="M177.91,336.22c6.09-5.16,13.16-8.88,19.76-13.28Q213.4,312.43,229.2,302a31.82,31.82,0,0,1,3.73-1.76c-3.76,10.24-7.36,20-11,29.85q-15.38,41.64-30.75,83.28c-3.62,9.87-7.59,19.61-10.47,29.75a30.13,30.13,0,0,0-.87,3.95c-1.51-5.59-1.62-11.3-1.6-17,.07-22.42,0-44.85,0-67.27,0-1.36-.12-2.73-.18-4.09Z" transform="translate(-0.24 -0.06)"/><path class="cls-8" d="M1.07,317.47c6.33-1.37,12.15-4.2,18.16-6.47q51-19.28,102-38.72c1-.39,2-.74,3.94-1.42l-7.76,25.63c-7.24,1.53-13.87,4.81-20.74,7.39C67,315,37.41,326.37,7.8,337.62c-2.21.84-4.47,1.55-6.7,2.32Q1.08,328.71,1.07,317.47Z" transform="translate(-0.24 -0.06)"/><path class="cls-8" d="M240.91,394.76,354.62,281.91c1,2.74-.28,5-.48,7.17-.55,6.25-.76,12.55-2.07,18.71-1.83-.58-2.3,1.16-3.15,2-20.11,20-40,40.21-60.28,60q-23,22.51-45.84,45.26c-.53.52-1.14,1-1.71,1.44Z" transform="translate(-0.24 -0.06)"/><path class="cls-6" d="M240.91,394.76l.18,21.77c-.83,6-.34,11.93-.36,17.9-.08,25.33-22.18,39.87-45.44,29.84a15.29,15.29,0,0,0-2.13-.58,59.13,59.13,0,0,1-9.06-8.39,7.16,7.16,0,0,0-2.3-3.76,74.08,74.08,0,0,0,11.12-9.1q22.31-22.37,44.68-44.69C238.66,396.71,239.8,395.76,240.91,394.76Z" transform="translate(-0.24 -0.06)"/><path class="cls-8" d="M177.91,336.22l.19,22.44c-6.08,2.41-11.06,6.66-16.49,10.14-20.23,13-40.29,26.22-60.39,39.41-3.4,2.23-6.61,4.78-11.3,6.76,1.82-6.33,3.57-11.83,4.92-17.44.63-2.64,2.73-5.11,1.35-8.09q39.86-26.12,79.73-52.23A17.62,17.62,0,0,1,177.91,336.22Z" transform="translate(-0.24 -0.06)"/><path class="cls-8" d="M184.11,455.3a59.13,59.13,0,0,0,9.06,8.39c-3,5.18-8.11,7.79-13.36,11.71C179.37,467.68,182.38,461.62,184.11,455.3Z" transform="translate(-0.24 -0.06)"/></g></g></svg>