<svg xmlns="http://www.w3.org/2000/svg" viewBox="0 0 181.66 181.9"><defs><style>.cls-1{fill:#3c3f41;}.cls-2{fill:#4b4f51;}.cls-3{fill:#4a4e51;}.cls-4{fill:#3e4143;}.cls-5{fill:#4a4d50;}.cls-6{fill:#404345;}.cls-7{fill:#494d4f;}.cls-8{fill:#464a4c;}.cls-9{fill:#474a4d;}.cls-10{fill:#484c4e;}.cls-11{fill:#424648;}.cls-12{fill:#434648;}.cls-13{fill:#3f4244;}.cls-14{fill:#45484b;}.cls-15{fill:#474b4d;}.cls-16{fill:#484b4e;}.cls-17{fill:#444749;}.cls-18{fill:#424547;}.cls-19{fill:#44484a;}.cls-20{fill:#45494b;}.cls-21{fill:#414446;}.cls-22{fill:#44474a;}.cls-23{fill:#414547;}.cls-24{fill:#3d4042;}.cls-25{fill:#4a4e50;}.cls-26{fill:#494d50;}.cls-27{fill:#343638;}.cls-28{fill:#4f5356;}.cls-29{fill:#4c5053;}.cls-30{fill:#505458;}.cls-31{fill:#4e5255;}.cls-32{fill:#4d5154;}.cls-33{fill:#36393b;}.cls-34{fill:#434649;}.cls-35{fill:#3c3e40;}.cls-36{fill:#393b3d;}.cls-37{fill:#3a3c3e;}.cls-38{fill:#383a3c;}.cls-39{fill:#3b3d3f;}.cls-40{fill:#484b4d;}.cls-41{fill:#494c4f;}.cls-42{fill:#404244;}.cls-43{fill:#47494c;}.cls-44{fill:#4b4e51;}.cls-45{fill:#494c4e;}.cls-46{fill:#575c5f;}.cls-47{fill:#505457;}.cls-48{fill:#55595c;}.cls-49{fill:#52575a;}.cls-50{fill:#55595d;}.cls-51{fill:#53585b;}.cls-52{fill:#52565a;}.cls-53{fill:#353739;}.cls-54{fill:#36383a;}.cls-55{fill:#37393b;}.cls-56{fill:#45474a;}.cls-57{fill:#414346;}.cls-58{fill:#5b5f63;}.cls-59{fill:#46484b;}.cls-60{fill:#525659;}.cls-61{fill:#54585b;}.cls-62{fill:#565b5e;}.cls-63{fill:#575b5f;}.cls-64{fill:#53575b;}.cls-65{fill:#5a5f62;}.cls-66{fill:#5d6165;}.cls-67{fill:#585d60;}.cls-68{fill:#54585c;}.cls-69{fill:#5b6063;}</style></defs><title>Fichier 5</title><g id="Calque_2" data-name="Calque 2"><g id="Calque_1-2" data-name="Calque 1"><path class="cls-1" d="M187,119.93c-.6,2.16-1.21,4.32-1.75,6.49a46.74,46.74,0,0,1-3.28,9c-15.33,32.14-40.65,50.53-76.14,53.79-39,3.58-75.91-19.31-90.93-55.48-1.07-2.57-2.34-5.08-2.75-7.88,1.19-.66,1.94-2.11,3.57-2,.51,2.93,2,5.49,3.09,8.2,17.26,42.78,62.78,58.85,95.31,52.06,19.32-4,36.08-12.61,49.35-27.38a88.55,88.55,0,0,0,19.06-35.29l3,.62a8,8,0,0,1-.11-1.8C185.63,119.09,186.16,118.78,187,119.93Z" transform="translate(-7.8 -7.68)"/><path class="cls-2" d="M112.28,8.87l6.19,1.18c.24.63-1.85.68-.4,1.61l.35,2.48-2.32-.56c0-.92-1.16-.57-1.31-1.2-.2-.8-.7-1.37-1.41-1.19-1,.24-.39,1.18-.47,1.82-3.61-.41-7.21-.86-10.82-1.24a65.21,65.21,0,0,0-13.25.47c-4.61.45-9.13,1.89-13.68,2.89-.06-1.1,1.78-1.21,1.32-2.58-.73-.16-1.47.3-2.23-.13a.91.91,0,0,0-1.3.75c-.08.74,0,1.59-1,1.33s.19-1.16-.33-1.64c.4-.28.07-.57,0-.86,3-1.39,6.26-1.82,9.47-2.31,1.43-.22,2.75-.9,4.21-.83,1.31.23,2.67.34,3.52,1.61.81-1.84,1.46-2.37,2.3-1.65,1.39,1.18,1.27.14,1.38-.74a.16.16,0,0,1,.27,0l.35.17c1.37.63,2.68,3.17,4.18.12.06-.12.48,0,.72-.09,1.65-.35,3.14-.32,3.76,1.52L106,9l-.56-.92.8,0C108.16,9.35,110.23,9,112.28,8.87Z" transform="translate(-7.8 -7.68)"/><path class="cls-3" d="M71.59,12c.06.29.39.57,0,.86.52.48-.7,1.4.33,1.64s1-.59,1-1.33a.91.91,0,0,1,1.3-.75c.77.43,1.5,0,2.23.13.46,1.37-1.38,1.49-1.32,2.58a84.84,84.84,0,0,0-11.91,4.41C60.09,21,57,22.64,53.9,24.2a3.25,3.25,0,0,0,.68-2.53l-1.45.08a1.77,1.77,0,0,0-.08-1.57A56.09,56.09,0,0,1,67.4,13.59,44.07,44.07,0,0,0,71.59,12Z" transform="translate(-7.8 -7.68)"/><path class="cls-3" d="M118.42,14.15l-.35-2.48c1,0,1.31-1,2.13-1.25,2.46,1.17,5.22,1.31,7.75,2.31,4.38,1.73,8.93,3.07,13,5.49-.58,1.37-1.29,2.33-3.06,1.6-.25-.1-1.61-.87-1.75.57A110.87,110.87,0,0,0,118.42,14.15Z" transform="translate(-7.8 -7.68)"/><path class="cls-4" d="M15.69,123.87c-1.63-.13-2.38,1.32-3.57,2a61.35,61.35,0,0,1-3.47-15.77c1.31-.16,2.61.44,3.92,0a8.28,8.28,0,0,0,.06,1.71C13.63,115.83,14.67,119.85,15.69,123.87Z" transform="translate(-7.8 -7.68)"/><path class="cls-5" d="M136.16,20.4c.14-1.45,1.5-.68,1.75-.57,1.77.73,2.48-.23,3.06-1.6q6,3.71,12,7.44c.2.12.31.38.46.58a7.46,7.46,0,0,1-2,.53,1.74,1.74,0,0,0-1.89,1.41A147.58,147.58,0,0,0,136.16,20.4Z" transform="translate(-7.8 -7.68)"/><path class="cls-6" d="M188.91,87.26a71.54,71.54,0,0,1,.36,13.39,9.27,9.27,0,0,1-3.49,1.57,104.23,104.23,0,0,0-.71-13.38C186.32,88.25,187.78,88.15,188.91,87.26Z" transform="translate(-7.8 -7.68)"/><path class="cls-7" d="M149.57,28.19a1.74,1.74,0,0,1,1.89-1.41,7.47,7.47,0,0,0,2-.53c3.52,2.63,6.71,5.64,10,8.57.29.26.65.42.68.87a27.83,27.83,0,0,1-4.26-.86c.5.66.19,1.18-.06,1.71Z" transform="translate(-7.8 -7.68)"/><path class="cls-4" d="M187,119.93c-.81-1.15-1.33-.84-1.54.36a8,8,0,0,0,.11,1.8l-3-.62L185,109.7c.31,0,.21.59.87.31,1.22-.52,1.41-1.89,2.54-2.61.28.82-.74,1.88.51,2.3-.41,2.7-.78,5.41-1.26,8.1C187.55,118.52,187.62,119.36,187,119.93Z" transform="translate(-7.8 -7.68)"/><path class="cls-5" d="M53.05,20.18a1.77,1.77,0,0,1,.08,1.57l1.45-.08a3.25,3.25,0,0,1-.68,2.53l-6.65,4.12c-.21-.39-.51-.39-.94-.42-1.08-.07-2.46.68-3.07-.95,2.2-2.45,5.13-3.87,7.84-5.59.26.46.43,1,1.11,1a2.58,2.58,0,0,0,.52-2Z" transform="translate(-7.8 -7.68)"/><path class="cls-8" d="M172.5,45.87a77.51,77.51,0,0,1,6,9.23c.19.34.47.63.26,1.05-1.08-.18-2.41.68-3.08-1l-.86,1.76L170,48.82l.94-1.4c.63.19,1.11.91,1.83.41C172.82,47.11,171.34,46.65,172.5,45.87Z" transform="translate(-7.8 -7.68)"/><path class="cls-9" d="M22.83,48.68a51.73,51.73,0,0,1,6.23-8.36c.16.65-.3,1.45.44,1.94a.6.6,0,0,0,.84-.23c.67-1.23,1.75-.92,2.79-.79l-6.7,9.05Z" transform="translate(-7.8 -7.68)"/><path class="cls-10" d="M33.13,41.23c-1-.12-2.12-.44-2.79.79a.6.6,0,0,1-.84.23c-.74-.48-.27-1.29-.44-1.94,1.77-2.79,4.43-4.71,6.73-7,.91,0,1,1.72,2.12,1.18.39-.79-.51-.64-.6-1.07.56-.11,1-.56,1.82-.37A2,2,0,0,0,39,35Z" transform="translate(-7.8 -7.68)"/><path class="cls-7" d="M39,35a2,2,0,0,1,.14-2c-.8-.2-1.26.25-1.82.37.1.43,1,.28.6,1.07-1.17.54-1.21-1.2-2.12-1.18A27.33,27.33,0,0,1,43.24,27c.6,1.63,2,.88,3.07.95.43,0,.73,0,.94.42Z" transform="translate(-7.8 -7.68)"/><path class="cls-11" d="M188.91,87.26c-1.13.89-2.59,1-3.84,1.57l-1.58-9.06c.72-.78,2-.45,2.63-1.49.31.57,0,1.72,1.22,1.1a25.05,25.05,0,0,1,1.24,6.6A5.35,5.35,0,0,0,188.91,87.26Z" transform="translate(-7.8 -7.68)"/><path class="cls-6" d="M7.9,101c0-2.89-.36-5.8.29-8.67A1.41,1.41,0,0,0,9.95,92a1.28,1.28,0,0,1,1.76,0,85.92,85.92,0,0,1,0,9.06c-1.31-1.07-.72,1.35-1.72.85-.4-.23.29-.64-.16-1A4.85,4.85,0,0,1,7.9,101Z" transform="translate(-7.8 -7.68)"/><path class="cls-12" d="M9.61,80.9A60.05,60.05,0,0,1,12,71.46c1.09.74,2.4,1.1,3.36,2-.15,2.33-1.21,4.42-1.69,6.67-.92,0-.85,1.09-1.53,1.45Z" transform="translate(-7.8 -7.68)"/><path class="cls-13" d="M7.9,101a4.85,4.85,0,0,0,2-.19c.45.4-.24.8.16,1,1,.5.41-1.91,1.72-.85a63.3,63.3,0,0,0,.83,9.05c-1.31.44-2.61-.16-3.92,0A41,41,0,0,1,7.9,101Z" transform="translate(-7.8 -7.68)"/><path class="cls-14" d="M174.81,56.94l.86-1.76c.67,1.67,2,.8,3.08,1a24,24,0,0,1,3.46,7.09c-.55,1-1.87-.23-2.28.88-.56-.29-.16-.79-.45-1.1-.48.13-.73.73-1.31.65Z" transform="translate(-7.8 -7.68)"/><path class="cls-15" d="M172.5,45.87c-1.16.78.32,1.23.25,1.95-.72.5-1.2-.21-1.83-.41l-.94,1.4-5.1-6.71c.49-.73-.39-1.88,1.07-2.75-.79,1.54.07,1.82,1,2.17.44-.39.65-1,1.25-1.17A33.26,33.26,0,0,1,172.5,45.87Z" transform="translate(-7.8 -7.68)"/><path class="cls-8" d="M22.83,48.68l3.6,1.6c-1.19,1.83-2,3.89-3.51,5.52-1.45-.52-2.61,1-4,.57l-.07-.78A34.37,34.37,0,0,1,22.83,48.68Z" transform="translate(-7.8 -7.68)"/><path class="cls-13" d="M188.93,109.7c-1.25-.43-.23-1.48-.51-2.3-1.13.73-1.32,2.09-2.54,2.61-.66.28-.56-.34-.87-.31a47.46,47.46,0,0,1,.76-7.48,9.27,9.27,0,0,0,3.49-1.57A42.65,42.65,0,0,1,188.93,109.7Z" transform="translate(-7.8 -7.68)"/><path class="cls-16" d="M168.17,40.36c-.59.17-.81.78-1.25,1.17-.9-.36-1.76-.63-1-2.17-1.47.87-.58,2-1.07,2.75l-5.09-5.58c.25-.52.56-1,.06-1.71a27.83,27.83,0,0,0,4.26.86A38.93,38.93,0,0,1,168.17,40.36Z" transform="translate(-7.8 -7.68)"/><path class="cls-17" d="M183.47,66.7a26.68,26.68,0,0,1,2.69,8c-1.19.06-1.14-1.35-2.09-1.73-1,.55-.76,2-1.76,2.52l-2.22-7c.69-.38,1.72-.34,1.76-1.62C182.67,68.21,183.07,67.43,183.47,66.7Z" transform="translate(-7.8 -7.68)"/><path class="cls-18" d="M9.61,80.9l2.57.72c.68-.37.6-1.43,1.53-1.45l-1.17,7.48c-1.39-.57-2.77-1.14-3.95.4A29.35,29.35,0,0,1,9.61,80.9Z" transform="translate(-7.8 -7.68)"/><path class="cls-19" d="M13.41,67.18l2-4.73c1.41-.71,2.74-2.43,4.38-.36a13.28,13.28,0,0,1-2,4.72c-1.07-.42-1.51,1.61-2.07.93C14.89,66.78,14.08,67.57,13.41,67.18Z" transform="translate(-7.8 -7.68)"/><path class="cls-20" d="M19.74,62.09c-1.64-2.07-3-.35-4.38.36,1-2.34,1.84-4.8,3.44-6.86l.07.78c1.44.45,2.6-1.09,4-.57A28.12,28.12,0,0,1,19.74,62.09Z" transform="translate(-7.8 -7.68)"/><path class="cls-17" d="M13.41,67.18c.68.38,1.49-.4,2.27.55.56.68,1-1.34,2.07-.93A34.56,34.56,0,0,1,15.4,73.5c-1-.94-2.27-1.31-3.36-2Z" transform="translate(-7.8 -7.68)"/><path class="cls-11" d="M182.31,75.45c1-.53.79-2,1.76-2.52.94.38.9,1.79,2.09,1.73a10.86,10.86,0,0,1,1.18,4.73c-1.2.62-.92-.52-1.22-1.1-.61,1-1.91.71-2.63,1.49Z" transform="translate(-7.8 -7.68)"/><path class="cls-21" d="M8.59,88c1.18-1.53,2.56-1,3.95-.4C11.61,89,13,90.72,11.71,92a1.28,1.28,0,0,0-1.76,0,1.41,1.41,0,0,1-1.76.36C8.26,90.92,7.93,89.44,8.59,88Z" transform="translate(-7.8 -7.68)"/><path class="cls-22" d="M183.47,66.7c-.4.74-.79,1.52-1.62.11,0,1.28-1.07,1.24-1.76,1.62l-1.92-4.74c.58.08.83-.52,1.31-.65.3.3-.1.8.45,1.1.41-1.11,1.72.11,2.28-.88A5.78,5.78,0,0,1,183.47,66.7Z" transform="translate(-7.8 -7.68)"/><path class="cls-2" d="M105.47,8.11,106,9l-4.28.77C101.13,8,99.64,7.92,98,8.27c-.24.05-.66,0-.72.09-1.5,3.05-2.81.51-4.18-.12l-.35-.17A50.6,50.6,0,0,1,105.47,8.11Z" transform="translate(-7.8 -7.68)"/><path class="cls-2" d="M92.48,8.08c-.11.88,0,1.93-1.38.74-.84-.72-1.49-.19-2.3,1.65-.85-1.27-2.21-1.37-3.52-1.61A28.2,28.2,0,0,1,92.48,8.08Z" transform="translate(-7.8 -7.68)"/><path class="cls-2" d="M112.28,8.87c-2,.11-4.13.47-6-.73A22.58,22.58,0,0,1,112.28,8.87Z" transform="translate(-7.8 -7.68)"/><path class="cls-2" d="M120.2,10.42c-.82.23-1.16,1.27-2.13,1.25-1.45-.93.65-1,.4-1.61A2.36,2.36,0,0,1,120.2,10.42Z" transform="translate(-7.8 -7.68)"/><path class="cls-3" d="M52.72,20.38a2.58,2.58,0,0,1-.52,2c-.68,0-.85-.54-1.11-1A3.46,3.46,0,0,1,52.72,20.38Z" transform="translate(-7.8 -7.68)"/><path class="cls-3" d="M116.1,13.59a10.3,10.3,0,0,1-3.19-.58c.08-.64-.51-1.58.47-1.82.71-.17,1.22.39,1.41,1.19C114.95,13,116.12,12.67,116.1,13.59Z" transform="translate(-7.8 -7.68)"/><path class="cls-1" d="M99.19,121.58a1.72,1.72,0,0,0-.85,1.73c.09,1.49,0,3,0,4.52a20.41,20.41,0,0,1-4.81.18c-1.26,0-1.79.48-1.73,1.75.06,1.5,0,3,0,4.56a18.89,18.89,0,0,1-4.76.18c-1.25,0-1.73.43-1.75,1.72,0,1.53.39,3.11-.25,4.61l-3.93,0c-2.84,0-2.84,0-2.84,2.8,0,3.77,0,3.73-3.76,3.53-1-.06-1.39-.4-1.37-1.4,0-2,0-3.93,0-5.9,0-4.42,0-4.48,4.31-4.5,1.58,0,2.06-.6,2-2.1-.08-3.14,0-6.29,0-9.44,0-1.09.35-1.46,1.46-1.52,1.66-.09,3.76.84,4.87-.5s.24-3.29.37-5c0-.13,0-.26,0-.39,1.65-.49,1.11,1.27,1.81,1.93a9,9,0,0,0,2.07-3.82c.81,2.17,2.27,2.3,3.75,2.36.44-.71-1-.65-.53-1.43a10.87,10.87,0,0,1,6.12,1.41c2.08,1.07,3,1.18,4.12-.72.41.17.6.72,1.13.68a18.84,18.84,0,0,1,.38,1.86c.24,2.26.07,2.37-2.16,2.48C101.66,121.2,100.33,120.65,99.19,121.58Z" transform="translate(-7.8 -7.68)"/><path class="cls-2" d="M66.46,56.54c1.45-.6,3-.24,4.43-.24s1.84-.54,1.83-1.87c-.05-3.66,0-7.32,0-11.12h78.37v2.62c-1,.62-2.54-.44-3.44,1-.07.12-1.76.53-1.82-1-.58.44-1.13,1-2,.41.08-.42,1-.7.6-1-1.84-1-1.42,3.88-3.76,1-.25.29.3.79-.27.59l-5.64.44c-.06-.72.89-.36.83-1l-1.36-.58c-1,.56.36,1.65-.74,2.1C132.76,46.16,132,46,128,46.27c-.25.51.13,1.22-.49,1.62l-.39-.39L126,46.35c-1.29-.05-2.16,1-3.33.31l-2.76-1.71c-.3.58.33.77.24,1.18l-1.64.83c-.72-1-1.93-1.13-2.95-1.63-.37.83.13,2.48-.6,2.17-1.12-.47-2.32-.41-3.29-.87-1.37-.65-2.21-.69-2.93.71-.05.1-.35.09-.62.14l-.18-1.65c-1.58-.57-1.9,1.25-3,1.4-1.34-1.53-1.34-1.53-2.92-1.15-.18.37.49.76.07,1.14-.86-.21-.72-1-.93-1.55l-2,1.44a.81.81,0,0,0-.79.39c-1.31,0-2.18-2-3.86-.84,1.43.72,0,1.1-.07,1.63-.3-.12-.73-.42-.89-.32-2.28,1.45-4.87-.26-6.94.87-.77-.39,0-1.36-1.08-1.49,0,.73-.34,1.49-1.18,1.32s-1.43-.72-2.31.1c.11-2-1.59-1.21-2.18-2.06-1.76,3-4.29,1.8-6.67,1.51v7.55c-.37.82-1.1.8-1.83.79Z" transform="translate(-7.8 -7.68)"/><path class="cls-4" d="M86.19,116.39c0,.13,0,.26,0,.39-.13,1.68.67,3.72-.37,5s-3.21.41-4.87.5c-1.11.06-1.48.43-1.46,1.52,0,3.15,0,6.29,0,9.44,0,1.5-.44,2.1-2,2.1-4.31,0-4.31.07-4.31,4.5,0,2,0,3.93,0,5.9,0,1,.35,1.35,1.37,1.4,3.76.21,3.75.24,3.76-3.53,0-2.8,0-2.8,2.84-2.8l3.93,0c-1.52.57-3.1.19-4.65.23-1.18,0-1.67.49-1.64,1.65,0,1.5,0,3,0,4.69h-6V134.92c1.58,0,3.07-.06,4.56,0s1.86-.46,1.83-1.83c-.06-3.65,0-7.31,0-11.2,1.8,0,3.42,0,5,0,1.07,0,1.55-.39,1.54-1.5,0-3.47,0-6.95,0-10.42,0-1.62-1-1.53-2.11-1.53h-37a17.23,17.23,0,0,1-.14-4.69,2.34,2.34,0,0,1,2.22-.18c1.09.51,2.35,1.38,3.69.93.2-.73-1-.64-.51-1.49,2.46.89,5,1.28,7.28-.53.4.42.51,1.53,1.26,1.19,1.48-.67,2.09.65,3.18,1.12,1.53-2,3.88-.94,5.77-1.09s3.85.42,5.52.07,3.59-1.11,5.47.92c-.32-1-.29-1.38.41-1.31s1.27.47,1.16.83c-.25.78,0,1,.61.83.25-.08,1.38-.13.73-1.14-.14-.21.34-.82.58-1.35,1.18,1.67,2.81.13,4,.76.29.55-.76,1,0,1.44.62.59,1-1.79,1.68-.11.36-.45.22-1.19.93-1.44.38,1,.79,1.43,1.18.09.83.36,1.75.51,2.54.84,1.35.56,2.55-.53,3.78,0v4.72c-1.45,1-.46-1-1.28-.91l-1.5.72-1.69.8c-.75-.1-.41-1.08-1.05-1.26l-.43.59c-.44-1.24-1.43-.34-2.1-.43-2.41-.33-3.75,1-3.75,3.45C86.18,113.38,86.19,114.89,86.19,116.39Z" transform="translate(-7.8 -7.68)"/><path class="cls-6" d="M98,108.91q0-2.36,0-4.72a15.57,15.57,0,0,0-.26-4c-1.7.85-3.39.5-5,.75-1,.16-.86-1.29-1.51-.91-1.45.85-3.2-.21-4.33.87-.81-.18-.13-1.19-.63-1.16-1,.35-.54,1.11-.91,1.58-.35-.81-1.76-.44-1.46-1.84-.88.84-1.53,2.2-2.3.25-.08-.19-.71-.4-.82-.3-1.33,1.18-2.63,2.2-4.25.41a2.91,2.91,0,0,0-.42.31c-1.32,1.09-2.38.28-3.37-.47-.3.38.1,1-.35,1.24-.87-.16-.51-1.14-.83-1.21-1.56,1.08-2.74.57-3.93-.24,0,1.25-1.8.55-1.39,1.92a8.41,8.41,0,0,0-1.85-.68c-1.22-.12-2.57-1.18-3.62.37-1.19-1.26-3.36-.32-4.4-2.11,0,.78-.09,1.22-.87,1.34a23.49,23.49,0,0,1-4.31,0c-1.56,0-3.21-.9-4.7.28l0-4.32h6.61c1.07.06,2.37.81,2.87-1.07,1.06,1.26,2.5.86,3.79,1.11s2.41-.54,3.69-.4c.59.06,1.52.88,1.85-.42.06.33.14.7.53.72,2,.13,4,.31,6,.29a1.75,1.75,0,0,0,1.77-1h5.11a13.13,13.13,0,0,0,7.1,0H91.7c1.67.85,3.44.22,5.17.37.84.07,1.62,0,1.52,1.2v3.15c0,2.4,0,4.8,0,7.2,0,1.08.36,1.51,1.46,1.48,2-.06,4,0,6,0v.4C103.25,109.06,100.58,109.8,98,108.91Z" transform="translate(-7.8 -7.68)"/><path class="cls-13" d="M46.48,100.63c1.49-1.18,3.14-.33,4.7-.28a23.49,23.49,0,0,0,4.31,0c.78-.12.92-.56.87-1.34,1,1.79,3.21.85,4.4,2.11,1.05-1.55,2.4-.49,3.62-.37a8.41,8.41,0,0,1,1.85.68c-.41-1.37,1.42-.67,1.39-1.92,1.18.81,2.36,1.32,3.93.24.31.07,0,1.05.83,1.21.45-.24,0-.86.35-1.24,1,.75,2.05,1.56,3.37.47a2.91,2.91,0,0,1,.42-.31c1.62,1.79,2.92.76,4.25-.41.11-.1.74.11.82.3.77,1.95,1.41.59,2.3-.25-.3,1.4,1.11,1,1.46,1.84.37-.47-.11-1.23.91-1.58.5,0-.18,1,.63,1.16,1.14-1.08,2.88,0,4.33-.87.65-.38.48,1.07,1.51.91,1.61-.25,3.3.09,5-.75a15.57,15.57,0,0,1,.26,4c-1.24-.55-2.43.54-3.78,0-.79-.32-1.71-.48-2.54-.84-.4,1.33-.81.91-1.18-.09-.72.25-.57,1-.93,1.44-.69-1.68-1.05.7-1.68.11-.78-.44.26-.88,0-1.44-1.19-.64-2.82.9-4-.76-.24.54-.72,1.14-.58,1.35.66,1-.48,1.05-.73,1.14-.58.19-.86,0-.61-.83.12-.37-.58-.77-1.16-.83s-.73.35-.41,1.31c-1.88-2-3.77-1.27-5.47-.92s-3.71-.21-5.52-.07-4.24-.94-5.77,1.09c-1.09-.47-1.69-1.8-3.18-1.12-.75.34-.85-.76-1.26-1.19-2.33,1.81-4.82,1.43-7.28.53-.45.86.71.77.51,1.49-1.34.45-2.6-.41-3.69-.93a2.34,2.34,0,0,0-2.22.18Z" transform="translate(-7.8 -7.68)"/><path class="cls-22" d="M144.05,81.79c-1.5,0-3,.14-4.49.12-1.17,0-1.67.47-1.65,1.63,0,1.55,0,3.11,0,4.7a18.09,18.09,0,0,1-4.81.22c-1.27,0-1.69.5-1.73,1.75-.05,1.52.45,3.09-.29,4.57l-.1-.1q0-.56,0-1.13c.25-1.83-.38-3.72.43-5.5.9,0,1.8,0,2.7,0,3.61,0,3.17.49,3.2-3.14V80.6c-1.12,1.81-2.46.27-3.63.52-1.56.34-3,1.16-4.29-.42-.65.51-.26,1.45-1,1.88-.48-.53,0-1.39-.72-1.72-2,.36-2,.36-2.89,1.92-.47-.3.26-.89-.29-1.17-.71-.29-.61,1.15-1.67.67s0-1.33-.57-1.7c-1.27,2-3.38.49-5.05,1.17-1.18.48-3-1.6-4.51.07-1.4-1.11-3-.26-4.49-.43s-2.5-.74-2.36-2.46c0-.57-.07-1.06-.78-1.12V76.23q0-.2,0-.39h.79c.21,1.88,1.87,3.24,2.7,2.23,1-1.22,1.94-.83,2.92-.53a2.28,2.28,0,0,0,2-.3,2.06,2.06,0,0,1,2.49.06c1.06.56,2.35,1,3.26.1a1.4,1.4,0,0,1,2-.22,4.31,4.31,0,0,0,2.39.53,83.9,83.9,0,0,0,12.8-.34c.73-.06,2.32-.64,2.73,1.3.37-.94.37-1.89,1.45-1.21a2,2,0,0,0,1.3.31c1.69-.28,1.88.92,2.06,2.05A12.27,12.27,0,0,1,144.05,81.79Z" transform="translate(-7.8 -7.68)"/><path class="cls-14" d="M144.05,81.79a12.27,12.27,0,0,0,0-2c-.19-1.14-.37-2.33-2.06-2.05a2,2,0,0,1-1.3-.31c-1.08-.68-1.09.27-1.45,1.21-.41-1.94-2-1.36-2.73-1.3a83.9,83.9,0,0,1-12.8.34,4.31,4.31,0,0,1-2.39-.53,1.4,1.4,0,0,0-2,.22c-.91.89-2.2.46-3.26-.1a2.06,2.06,0,0,0-2.49-.06,2.28,2.28,0,0,1-2,.3c-1-.3-1.92-.69-2.92.53-.83,1-2.49-.36-2.7-2.23h5.9c.72-.69.27-1.57.4-2.36,1.09-.55,2-.83,3.12.27.75.76,1.73.44,2.26-.86.54,1,1.12,1.71,2,.7.33-.37.63,0,.79,0,1.29-.59,2.74.34,4-.45.15.79-.33,1.69.43,2.36a3.69,3.69,0,0,0,2.45.37c5.67,0,11.33,0,17.23,0C144.22,77.92,145,79.88,144.05,81.79Z" transform="translate(-7.8 -7.68)"/><path class="cls-3" d="M127.52,47.89c.63-.4.24-1.11.49-1.62,4-.3,4.74-.1,5.51,1.51,1.1-.45-.26-1.54.74-2.1l1.36.58c.06.63-.89.27-.83,1l5.64-.44c.56.2,0-.3.27-.59,2.34,2.87,1.92-2,3.76-1,.36.33-.52.61-.6,1,.83.59,1.37,0,2-.41.06,1.57,1.74,1.15,1.82,1,.9-1.4,2.41-.34,3.44-1v3.46c-1.76,0-3.39,0-5,0-1.18,0-1.66.45-1.62,1.63.06,1.56,0,3.11,0,4.87-1.77,0-3.33,0-4.88,0-1.16,0-1.69.45-1.66,1.63,0,1.56,0,3.13,0,4.71a11.7,11.7,0,0,1-4.24.19c-1.89-.16-2.39.61-2.31,2.38.06,1.3.45,2.7-.31,4l0-3.51c.24-1-.37-2.19.43-3.15,1.29,0,2.59-.07,3.88,0,1.5.1,2.19-.47,2-2a15.36,15.36,0,0,1,0-1.55c.21-1.06-.55-2.37.79-3.15h3.08c2.82,0,2.82,0,2.82-2.75a3.37,3.37,0,0,0-2.36-3.93c-.61.12-1.3,1.06-2.47,0-.35-.31-2.32.3-2.87,1.63L134.67,49c-.76.46.22.85-.19,1.25-.78-.21-1-1-1.43-1.45-.85-.9-2.93.15-2.72,1.46-.71-.37-1.3-1.06-2.43-.35C129.82,48.35,127.42,48.6,127.52,47.89Z" transform="translate(-7.8 -7.68)"/><path class="cls-9" d="M53,95.09V82.36c1.78,0,3.26-.07,4.74,0s1.95-.54,1.92-2c-.07-3.59,0-7.18,0-10.82,2.17-.67,4.3.07,6.32-.5l.57-.36c1.58-1.61,3.22-1,4.76-.15.8-.14.88-1,1.75-1.34a1.52,1.52,0,0,0,.55,1.5c-1,.07-2.06.1-1.18,1.58A2.64,2.64,0,0,0,72,71.9v.39l-1.08.43L69.58,71c-.82.85-2.22.37-2.67,1.54-.71-.12-.77-1.09-1.36-.87a10.32,10.32,0,0,1-3.72.32c-.89,0-1.75.39-1.65,1.69s0,2.74,0,4.11v3.94a2,2,0,0,1-2,1.19c-1,0-2.09.05-3.12,0-1.23-.1-1.67.43-1.52,1.59s0,2.1,0,3.15v7.48Z" transform="translate(-7.8 -7.68)"/><path class="cls-15" d="M131,65.21l0,3.51a15.7,15.7,0,0,1-4.26.14c-1.41,0-2,.45-2,1.91s0,3.11,0,4.67c-.76-.67-.28-1.58-.43-2.36a36.51,36.51,0,0,1,.13-3.69c.13-1-.84-1.39-1.08-1.23-1.42,1-2.95-.49-4.25.5-.76-1.45.24-3-.7-4.25V63.24c1.8.84,3.52,2.42,5.58.47.81.93,1.79,1.71,2.76,1.33A5.2,5.2,0,0,1,131,65.21Z" transform="translate(-7.8 -7.68)"/><path class="cls-7" d="M66.52,68.74,66,69.1c.42-3.51.06-7,.21-10.54,0-.67-.32-1.43.3-2l4.9,0c.73,0,1.46,0,1.83-.79l1.43.48c.6-1.4,3.72-1.43,5.65-.08-1,.07-2.06.1-1.18,1.57-.42,1.74.32,2.3,2,2-.4,1.42-1.24.61-2,.39-.61-.47-1.46-.6-1.78-1.15-1-.13-1.28,1.28-2.48.61s-2.21-1.28-3.54-.18c-.7.58-1.07-.5-1.36-.77C68,60,65.44,61,66.53,64.05Z" transform="translate(-7.8 -7.68)"/><path class="cls-13" d="M72.24,148.13v5.92h-6v-5.92Z" transform="translate(-7.8 -7.68)"/><path class="cls-13" d="M99.19,121.58c1.13-.93,2.47-.38,3.7-.44,2.23-.11,2.4-.21,2.16-2.48a18.91,18.91,0,0,0-.38-1.86c.74-.71,0-2.43,1.91-2.43,1.55,0,3.69.86,4.54-.51.74-1.18.22-3.14.25-4.76,0-.06,0-.13,0-.19.36-.8,1.08-.79,1.8-.79,1.61,0,3.22,0,4.82-.05l.11.09c-.79.69-1.74.29-2.6.31-4.13.08-3.67-.49-3.72,3.83a5.63,5.63,0,0,1-.28,2.69c-1.48,0-3,0-4.57,0-1.16,0-1.67.44-1.64,1.62,0,1.55,0,3.11,0,5Z" transform="translate(-7.8 -7.68)"/><path class="cls-11" d="M131.09,94.77c-1.38.55-2.82.26-4.22.23s-2,.62-2,2,0,2.85,0,4.31a14,14,0,0,1-4.57.23c-1.37,0-1.85.6-1.94,1.85-.11,1.6.32,3.23-.24,4.81l-.11-.09c.31-2.2-.39-4.47.45-6.63,1.79-1,3.79,0,5.68-.58l.23-3c0-3.16,0-3.15,3.13-3.16,1.17,0,2.34,0,3.5-.06Z" transform="translate(-7.8 -7.68)"/><path class="cls-23" d="M53,95.09l.51,0-.39,1.18H46.5c1.34-1,2.88-.28,4.31-.47C51.61,95.74,52.49,96,53,95.09Z" transform="translate(-7.8 -7.68)"/><path class="cls-24" d="M111.38,108.91c0,.06,0,.13,0,.19,0,1.62.48,3.59-.25,4.76-.85,1.36-3,.51-4.54.51-1.89,0-1.17,1.72-1.91,2.43-.54,0-.72-.52-1.13-.68-1.1,1.91-2,1.79-4.12.72a10.87,10.87,0,0,0-6.12-1.41c-.48.78,1,.72.53,1.43-1.48-.07-2.94-.2-3.75-2.36A9,9,0,0,1,88,118.32c-.7-.66-.16-2.42-1.81-1.93,0-1.5,0-3,0-4.51,0-2.44,1.34-3.78,3.75-3.45.67.09,1.66-.82,2.1.43l.43-.59c.64.18.3,1.16,1.05,1.26l1.69-.8,1.5-.72c.82-.12-.16,1.95,1.28.91,2.59.89,5.26.15,7.87.39a.81.81,0,0,0,.39-.79c.79.44,1.95-.36,2.56.75,0,.07.53,0,.53,0C109.72,107.19,110.72,109.09,111.38,108.91Z" transform="translate(-7.8 -7.68)"/><path class="cls-25" d="M127.52,47.89c-.1.71,2.3.47.38,2,1.13-.7,1.72,0,2.43.35-.21-1.31,1.86-2.36,2.72-1.46.46.49.65,1.23,1.43,1.45.41-.4-.57-.79.19-1.25l1.68,1.34c.55-1.33,2.52-1.94,2.87-1.63,1.17,1.06,1.86.12,2.47,0a3.37,3.37,0,0,1,2.36,3.93c-.56.69-1.19-.6-1.73,0-1.19,1.42-2.7,1.18-4.24.88-.38-.08-.69-.66-1.15,0-1,1.35-1.84.86-2.54-.52L133,54.19h-.39c-.3-1.07-1.16-.67-1.84-.66A1.19,1.19,0,0,0,129.49,55h-.79l.21-.91c-1.15,0-1.61-1.85-3.27-.91a2.36,2.36,0,0,1-3.48-1.06c-.45.93-1.64,2-1.64,1.15,0-1.83-1.38-.62-1.63-1.49-1,2.49-3.12,2.71-5.32.75-.75.86-1.32,2.14-2.81.78a1.45,1.45,0,0,0-2.19.23c-.59.81-.86,0-.94-.59-1,.93-2.58.36-3.4,1.5-.66-.49.22-1.13-.45-1.56a4.12,4.12,0,0,1-1.87-.05c-.56.31-.15,1-.73,1.2-1.87-1.87-3.62-2.74-4.69.65-.81-.22.23-1.23-.69-1.35l-.38.68c-2.16-1.74-9.18-1-10.06,1.07-.78-.77-.26-2-1-3.21-.15,2-1.81,2.26-2.68,2.39-1.19.18-2.2-1.12-2.33-2.59-.87.41-.11,1.12-.6,1.48-1.51-.14-3.12-.86-4.51,1.14.4-1.44-.21-1.46-1-1.25V48.21c2.39.29,4.92,1.45,6.67-1.51.59.84,2.29.06,2.18,2.06.88-.82,1.55-.25,2.31-.1s1.13-.59,1.18-1.32c1.1.14.31,1.1,1.08,1.49,2.07-1.13,4.67.57,6.94-.87.16-.1.59.2.89.32,0,.26.09.62.4.52,1-.32,1.85-.76,3,0,.58.37,1-.54.54-1.28a.81.81,0,0,1,.79-.39c.31.83.19,1.83,1.14,2.58,1.86-1.22,3.6.27,5.38.73.34-1-.89-.9-.71-1.61,1.07-.71,4.6-.19,5.24.75.67-.39-.28-1.34.6-1.68.44.52-.13,1.28.41,1.53,1.57.54,3.23-.64,4.76.52,2-1.44,3.53.25,5.26.85l2.5-2.14c1.26.82-.68.7-.14,1.4,1.21.15,2.18-.77,3.54-.95l-1-.62a1.6,1.6,0,0,1,.94-1Z" transform="translate(-7.8 -7.68)"/><path class="cls-26" d="M73.2,53c.79-.21,1.4-.19,1,1.25,1.38-2,3-1.28,4.51-1.14.49-.36-.28-1.07.6-1.48.14,1.47,1.14,2.77,2.33,2.59.87-.13,2.53-.41,2.68-2.39.78,1.25.26,2.44,1,3.21.88-2,7.9-2.81,10.06-1.07l.38-.68c.92.12-.12,1.13.69,1.35,1.07-3.39,2.82-2.52,4.69-.65.57-.19.17-.89.73-1.2a4.12,4.12,0,0,0,1.87.05c.67.43-.2,1.07.45,1.56.82-1.15,2.39-.57,3.4-1.5.08.61.36,1.41.94.59a1.45,1.45,0,0,1,2.19-.23c1.49,1.36,2.07.08,2.81-.78,2.2,2,4.34,1.74,5.32-.75.25.87,1.65-.34,1.63,1.49,0,.82,1.18-.22,1.64-1.15a2.36,2.36,0,0,0,3.48,1.06c1.66-.93,2.12.93,3.27.91l-.21.91c-.49.25-1.06,1-1.32-.45-.19,1-1,1.57-1.41,1.12-1.57-1.71-2.53-.63-3.57.51H80.28c-1.93-1.34-5.06-1.32-5.65.08l-1.43-.48Q73.2,54.38,73.2,53Z" transform="translate(-7.8 -7.68)"/><path class="cls-3" d="M127.13,47.49a1.6,1.6,0,0,0-.94,1l1,.62c-1.35.18-2.32,1.1-3.54.95-.54-.7,1.4-.58.14-1.4l-2.5,2.14c-1.73-.6-3.24-2.3-5.26-.85-1.53-1.16-3.19,0-4.76-.52-.54-.25,0-1-.41-1.53-.88.34.07,1.29-.6,1.68-.63-.94-4.16-1.45-5.24-.75-.18.71,1.05.61.71,1.61-1.78-.46-3.52-1.95-5.38-.73-1-.74-.83-1.75-1.14-2.58l2-1.44c.21.56.08,1.33.93,1.55.42-.37-.25-.76-.07-1.14,1.58-.39,1.58-.39,2.92,1.15,1.14-.15,1.46-2,3-1.4l.18,1.65c.27-.06.57,0,.62-.14.72-1.39,1.56-1.36,2.93-.71,1,.46,2.17.39,3.29.87.73.31.23-1.33.6-2.17,1,.5,2.22.59,2.95,1.63l1.64-.83c.09-.41-.54-.6-.24-1.18l2.76,1.71c1.17.73,2-.36,3.33-.31Z" transform="translate(-7.8 -7.68)"/><path class="cls-3" d="M98.39,47.49c.45.74,0,1.65-.54,1.28-1.16-.73-2-.29-3,0-.31.1-.37-.26-.4-.52.11-.53,1.5-.91.07-1.63C96.21,45.53,97.08,47.51,98.39,47.49Z" transform="translate(-7.8 -7.68)"/><path class="cls-2" d="M105.86,108.91c-2,0-4,0-6,0-1.1,0-1.49-.39-1.46-1.48.05-2.4,0-4.8,0-7.2,2.91-.47,5.78.77,8.69.17,1.68-.35,3.41.54,5.09-.17-.07.62.21,1.32-.35,1.82-1.84.54-3.79-.39-5.56.54C105.43,104.66,106.08,106.81,105.86,108.91Z" transform="translate(-7.8 -7.68)"/><path class="cls-21" d="M53.11,96.31l.39-1.18q0-1.77,0-3.54l9.57.74.71-.93.86.76.66-1v4.33h0c-.33,1.3-1.26.49-1.85.42-1.28-.14-2.4.65-3.69.4S57,96.49,56,95.24C55.48,97.12,54.18,96.37,53.11,96.31Z" transform="translate(-7.8 -7.68)"/><path class="cls-27" d="M78.69,95.52H72.8c.22-2.23-.47-4.51.4-6.7H78.7c.13.79-.32,1.68.39,2.37C79,92.64,79.45,94.14,78.69,95.52Z" transform="translate(-7.8 -7.68)"/><path class="cls-28" d="M98.39,97.1c.09-1.17-.68-1.13-1.52-1.2-1.72-.15-3.5.49-5.17-.37l.38,0h.4a29.45,29.45,0,0,1,3.46,0c1.9.23,2.83-.36,2.44-2.39V90.8h.38c.06,4.71.06,4.71,4.76,4.72h1.16a.77.77,0,0,0,.87.51c2.07-.16,4.14-.56,6.22-.12-.2,1.26-1.17.93-2,1C106,97,102.18,96.59,98.39,97.1Z" transform="translate(-7.8 -7.68)"/><path class="cls-29" d="M112.17,100.25c-1.68.7-3.41-.18-5.09.17-2.91.6-5.78-.63-8.69-.17q0-.59,0-1.18c1.1.38,2.07-.48,3.16-.31,3.53.53,7.09-.26,10.62.32h0Z" transform="translate(-7.8 -7.68)"/><path class="cls-30" d="M78.69,95.52c.75-1.38.27-2.88.4-4.33.14-.79-.31-1.68.4-2.37h5.9v.4c-1.47,0-3,.06-4.42,0-1.24-.07-1.61.48-1.48,1.59q0,.39,0,.79v1.18c0,.85,0,1.5,1.28,1.26a10.18,10.18,0,0,1,2.86.05c.75.07,1.26-.09,1.37-.91a.81.81,0,0,1,.39-.79c.18,1-.4,2.18.4,3.15h0A13.13,13.13,0,0,1,78.69,95.52Z" transform="translate(-7.8 -7.68)"/><path class="cls-31" d="M98.39,97.1c3.8-.5,7.61-.1,11.41-.22.8,0,1.77.3,2-1V95.5l.4.4,0,2H98.39Z" transform="translate(-7.8 -7.68)"/><path class="cls-32" d="M98.39,97.89h13.77v1.18c-3.53-.58-7.09.21-10.62-.32-1.09-.16-2.06.69-3.16.31Z" transform="translate(-7.8 -7.68)"/><path class="cls-33" d="M92.08,95.51l-.38,0H85.79q0-3.34,0-6.69h6.3q0,.19,0,.39c-1.56,0-3.11,0-4.67,0-.94,0-1.39.45-1.2,1.3.35,1.52-1,3.35.82,4.57.22.15.63,0,1,0h4.09Q92.08,95.32,92.08,95.51Z" transform="translate(-7.8 -7.68)"/><path class="cls-21" d="M72.8,95.52h.78a1.75,1.75,0,0,1-1.77,1c-2,0-4-.16-6-.29-.39,0-.48-.39-.53-.72h0A14.75,14.75,0,0,0,72.8,95.52Z" transform="translate(-7.8 -7.68)"/><path class="cls-13" d="M105.86,108.91c.21-2.09-.44-4.24.39-6.3l.39.39c-.83,1.79-.2,3.68-.39,5.51a.81.81,0,0,1-.39.79Z" transform="translate(-7.8 -7.68)"/><path class="cls-34" d="M105.08,77.81c.7.07.82.56.78,1.12-.14,1.72.91,2.3,2.36,2.46s3.08-.68,4.49.43c1.56-1.68,3.33.41,4.51-.07,1.67-.68,3.78.79,5.05-1.17.55.37-.52,1.21.57,1.7s1-1,1.67-.67c.56.28-.18.87.29,1.17.88-1.56.88-1.56,2.89-1.92.75.33.24,1.19.72,1.72.77-.43.38-1.37,1-1.88,1.25,1.57,2.73.75,4.29.42,1.17-.25,2.51,1.28,3.63-.52,0,1.62,0,3,0,4.3-1,1.08-2.2.28-3.3.45s-2.28.58-3.35-.56c-.52-.56-1,.19-1,.8-1.76.26-3.31-2.28-5.17-.17-.31-.21-.41-.8-1-.8-.45.32.44.67,0,1-1.32.45-1.73-1.31-2.93-1.22l-.56,1.05c-1.08-.54-2.19-1.22-2.77.51-1.67-.24-3.18-1.62-5-.72a1,1,0,0,1-.88-.26c-.39-.42-.89-.13-1-.17-1.4-.43-2.74,1.47-4.08.08,0-.82,0-1.65,0-2.47s-.42-1.12-1.18-1.07V77.81Z" transform="translate(-7.8 -7.68)"/><path class="cls-11" d="M106.26,84.89c1.34,1.39,2.68-.51,4.08-.08.15,0,.65-.24,1,.17a1,1,0,0,0,.88.26c1.86-.91,3.36.48,5,.72.59-1.73,1.69-1.05,2.77-.51l.56-1.05c1.2-.09,1.61,1.67,2.93,1.22.47-.32-.42-.67,0-1,.55,0,.65.59,1,.8,1.86-2.11,3.41.43,5.17.17,0-.62.47-1.36,1-.8,1.06,1.14,2.29.72,3.35.56s2.35.63,3.3-.45c0,3.64.4,3.1-3.2,3.14-.9,0-1.8,0-2.7,0-1.72-1.1-3.57.47-5.39-.33a4.77,4.77,0,0,0-4-.06c-1.5.78-2.93.46-4.42.39a11.57,11.57,0,0,1-5.12,0c-1,0-2.06,0-3.09,0C105.83,88,106.3,88.5,106.26,84.89Z" transform="translate(-7.8 -7.68)"/><path class="cls-6" d="M112.56,88a11.57,11.57,0,0,0,5.12,0c1.4.55,1.59,1.66,1.63,3,0,.58-.38,1.19.55,1.94,1.42,1.15,2.38.32,3.55.07,1.33-.28,2.78-1.13,3.6.78,1.12-.73,2.39-.35,3.48-.82.09,0,.35.34.53.52q0,.56,0,1.13c-1.17,0-2.34.05-3.5.06-3.09,0-3.09,0-3.13,3.16-.94-.44-1.56.25-2.27.64-1.47.81-3.16-.19-4.37.16-2,.58-3.72-.27-5.55,0v-.79l0-2c1.56-.73,3.22-.37,4.82-.35,1.9,0,1.66-1.34,1.4-2.26-.41-1.49,1.49-3.86-1.36-4.41a26.13,26.13,0,0,0-4.88-.05Z" transform="translate(-7.8 -7.68)"/><path class="cls-18" d="M131,93.54c-.18-.18-.45-.56-.53-.52-1.09.48-2.36.1-3.48.82-.82-1.91-2.27-1.07-3.6-.78-1.17.25-2.13,1.08-3.55-.07-.93-.76-.54-1.37-.55-1.94,0-1.34-.23-2.46-1.63-3,1.49.07,2.92.38,4.42-.39a4.77,4.77,0,0,1,4,.06c1.82.81,3.68-.77,5.39.33C130.64,89.82,131.27,91.72,131,93.54Z" transform="translate(-7.8 -7.68)"/><path class="cls-35" d="M111.77,75.84h-6.3c1.78-.94,3.79,0,5.71-.61-.91-.79-.91-.79-1.31-.79-5,0-10,.32-15.07,0-.94-.06-2.24-.42-3.11.59H91.3c-.22-.12-.43-.35-.66-.36a107.72,107.72,0,0,0-12-.1c-1.78.12-3.65.37-5.42-.33-.1-.86.22-1.09,1.11-1,1.66.14,3.34.12,5,.11q8.39,0,16.78-.09c4.92,0,9.84.26,14.75,0,.29,0,.61.4.92.62C111.34,74.53,111.9,75.18,111.77,75.84Z" transform="translate(-7.8 -7.68)"/><path class="cls-36" d="M105.08,76.23q0,.59,0,1.18c-6.82.52-13.65-.13-20.47.19-1.32.06-2.76-.49-3.94.59-2.6-.66-5.24-.35-7.87-.39V76.63h.39a35.49,35.49,0,0,1,3.91.08,56.22,56.22,0,0,1,9.83-.08,7.56,7.56,0,0,0,2.76.07c2.57-.65,5.21-.14,7.81-.3S102.56,76.86,105.08,76.23Z" transform="translate(-7.8 -7.68)"/><path class="cls-37" d="M105.08,76.23c-2.51.63-5.05,0-7.57.17s-5.24-.35-7.81.3a7.56,7.56,0,0,1-2.76-.07,56.22,56.22,0,0,0-9.83.08,35.49,35.49,0,0,0-3.91-.08c.12-1,.67-1.42,1.73-1.3,1.4.16,2.83.15,4.23.28,2.89.25,5.77-.54,8.66-.15,1.2.16,2.43.67,3.49-.4h.39c.11.15.24.45.34.44,4-.29,8,.53,11.93-.19.4-.07,1.11-.37,1.12.54Q105.08,76,105.08,76.23Z" transform="translate(-7.8 -7.68)"/><path class="cls-38" d="M80.67,78.2c1.17-1.09,2.62-.53,3.94-.59,6.82-.32,13.65.33,20.47-.19v1.18c-1.72.29-3.52-.51-5.08-.09-2.22.6-4.36.15-6.51.16-3.51,0-7-.15-10.51.17A3.07,3.07,0,0,1,80.67,78.2Z" transform="translate(-7.8 -7.68)"/><path class="cls-39" d="M105.08,75.84c0-.91-.72-.62-1.12-.54-4,.72-8-.09-11.93.19-.1,0-.23-.29-.34-.44.87-1,2.17-.64,3.11-.59,5,.3,10-.07,15.07,0,.4,0,.4,0,1.31.79-1.91.65-3.93-.33-5.71.61Z" transform="translate(-7.8 -7.68)"/><path class="cls-8" d="M118.46,64.42c.94,1.25-.06,2.8.7,4.25,1.3-1,2.83.45,4.25-.5.23-.16,1.21.24,1.08,1.23a36.51,36.51,0,0,0-.13,3.69c-1.25.79-2.7-.14-4,.45-.16.07-.45-.33-.79,0-.91,1-1.49.27-2-.7-.53,1.3-1.51,1.62-2.26.86-1.08-1.1-2-.82-3.12-.27,0-4.33,0-4.33,4.36-4.33h1.55c.76-.83.24-1.84.39-2.76l-.39-2Z" transform="translate(-7.8 -7.68)"/><path class="cls-18" d="M118.07,69.15h-1.55c-4.36,0-4.36,0-4.36,4.33-.13.79.32,1.67-.4,2.36.13-.66-.43-1.31,0-2V70.33c.23-2-1.34-1.83-2.45-1.85-4.17-.08-8.34.28-12.51-.11-2.23,0-4.46-.51-6.69,0H79.49c-.24-1.1.36-1.46,1.33-1.55,2.05-.2,4.1.55,6.15,0a11.69,11.69,0,0,0,2.22.56c1.35.29,2.44-.6,3.77-.41,4.18.6,8.41,0,12.57.14s8.33-.23,12.54.49Z" transform="translate(-7.8 -7.68)"/><path class="cls-40" d="M131,65.21a5.2,5.2,0,0,0-4.22-.17c-1,.38-1.95-.4-2.76-1.33-2.06,2-3.77.37-5.58-.47-1-1.41-2.19-.5-3.4-.55a37.52,37.52,0,0,0-7.3-.09c-2.33.36-4.64-.47-7-.33a13.06,13.06,0,0,1-4.43-.16,2.75,2.75,0,0,0-2,.37,1.89,1.89,0,0,1-2,.1,3.23,3.23,0,0,0-3,0c-1.64.52-3.24,0-4.8,0-1.83,0-3.62-.41-5.4.28V61.27c2.42.58,4.93.13,7.31,0,4.54-.19,9.07.2,13.61-.15,2.35-.18,4.75.26,7.12.17,1.7-.07,3.4.12,5.13-.07a7.74,7.74,0,0,1,3.86.05c1.23.47,2.87.15,4.2.1a16.5,16.5,0,0,1,6,.65c1.21-.82,2.52.29,3.75-.19.3,1.21,1.12-1.41,1.37.18C130.65,63,131.26,64.17,131,65.21Z" transform="translate(-7.8 -7.68)"/><path class="cls-41" d="M131.46,62.06c-.25-1.59-1.07,1-1.37-.18-1.23.47-2.53-.63-3.75.19.56-1.51-.56-1.9-1.57-2.36l.39-2c.9-.66.89.43,1.34.77.87-.85,1.79-.66,2.85-.4.67.16,1.16.78,2.1.5a10.61,10.61,0,0,1,5.91-.08,15.36,15.36,0,0,0,0,1.55c.16,1.54-.53,2.11-2,2C134,62,132.75,62.06,131.46,62.06Z" transform="translate(-7.8 -7.68)"/><path class="cls-7" d="M137.36,58.52a10.61,10.61,0,0,0-5.91.08c-.94.29-1.43-.33-2.1-.5-1.06-.26-2-.45-2.85.4-.45-.34-.44-1.43-1.34-.77-.42-.42.16-1.16-.54-1.58H122.4c1-1.14,2-2.22,3.57-.51.41.45,1.22-.13,1.41-1.12.26,1.45.83.7,1.32.45h.79c.44,0,1-.09,1.31.14,1.31,1,1.59.09,1.84-.93H133a2.36,2.36,0,0,0,3.78.69c.89-.66,1.22-.57,1.34.49C136.81,56.14,137.57,57.45,137.36,58.52Z" transform="translate(-7.8 -7.68)"/><path class="cls-26" d="M138.15,55.37c-.12-1.06-.45-1.15-1.34-.49a2.36,2.36,0,0,1-3.78-.69L134.39,53c.7,1.38,1.53,1.87,2.54.52.46-.62.78,0,1.15,0,1.54.31,3.05.54,4.24-.88.53-.64,1.16.65,1.73,0,0,2.75,0,2.75-2.82,2.75Z" transform="translate(-7.8 -7.68)"/><path class="cls-14" d="M60.2,77.81c0-1.37.08-2.75,0-4.11S60.93,72,61.82,72a10.32,10.32,0,0,0,3.72-.32c.59-.23.65.75,1.36.87.45-1.17,1.85-.69,2.67-1.54l1.35,1.71L72,72.3c0,1,0,2.09,0,3.13,0,.78.18,1.32-1.18,1.67a13.06,13.06,0,0,1-5.92.18,3.82,3.82,0,0,0-1.1-.13C63,79.58,61.42,77.74,60.2,77.81Z" transform="translate(-7.8 -7.68)"/><path class="cls-22" d="M60.2,77.81c1.22-.07,2.79,1.77,3.6-.67a3.82,3.82,0,0,1,1.1.13,13.06,13.06,0,0,0,5.92-.18c1.36-.35,1.15-.88,1.18-1.67,0-1,0-2.09,0-3.13V71.9c.8,1.25.21,2.63.39,3.94,0,1.61,0,3.21,0,4.82,0,.61-.17,1.36.79,1.47,2,.23,4-.46,5.91.4H78.7c-2.1.17-4.24-.44-6.3.39a1.36,1.36,0,0,0-.79-.78c-.31-2-1.7-1.47-2.42-1.41-1.09.39.24.71-.64,1-1.69-.46-3.53-2-5.21.21,0,.06-.39,0-.53-.13-.85-.69-1.74-.06-2.61-.1Z" transform="translate(-7.8 -7.68)"/><path class="cls-34" d="M60.2,81.74c.87,0,1.76-.59,2.61.1.13.11.48.19.53.13,1.68-2.21,3.52-.67,5.21-.21.89-.33-.44-.65.64-1,.72-.06,2.12-.55,2.42,1.41H68.87c-3.15,0-3.15,0-3.16,3.15-1.13.48-1.89-.21-2.59-.86-.52.29-.18,1.18-.65,1.1-1-.17-2.26.17-2.81-.11-1.63-.83-2.79.18-4.2.43a1.6,1.6,0,0,0-1.95-1.35c-.15-1.16.29-1.69,1.52-1.59,1,.08,2.08,0,3.12,0A2,2,0,0,0,60.2,81.74Z" transform="translate(-7.8 -7.68)"/><path class="cls-23" d="M65.31,91.19l-.66,1-.86-.76-.71.93-9.57-.74q0-2,0-3.94l1,1.16a1.77,1.77,0,0,1,2.3-.9c1.94,1.5,4.24.31,6.22,1.07a.62.62,0,0,0,.9-.43c.28-.84,1.08-1.21,1.73-1.7v2L65.32,90Z" transform="translate(-7.8 -7.68)"/><path class="cls-9" d="M66.52,68.74q0-2.35,0-4.69c1.47,1.52,3.06.24,4.37.15,1,.35.71,1.74,1.86,1.74-.17-1,0-1.44,1.25-1.24s2.58,1.8,4,.26l.7.65v1.18c-.07.61.19,1.29-.49,2H73.58a1.52,1.52,0,0,1-.55-1.5c-.86.34-.94,1.2-1.75,1.34C69.74,67.69,68.1,67.13,66.52,68.74Z" transform="translate(-7.8 -7.68)"/><path class="cls-42" d="M72.4,75.84c-.18-1.31.41-2.69-.39-3.94a2.64,2.64,0,0,1,.39-1.57.81.81,0,0,0,.39-.79h6.3c2.3.56,4.62,0,7,.16,2.91.25,5.88,0,8.82,0,4.06.07,8.13-.22,12.18,0,1.55.07,3.37-1,4.72.66v1.18a2.5,2.5,0,0,0-2-1c-6.06.3-12.12,0-18.18.06-3.79,0-7.65.51-11.41.25-2.29-.16-4.55-.19-6.83-.24l-.55,2.14v3.15Z" transform="translate(-7.8 -7.68)"/><path class="cls-11" d="M65.71,86.86c-.65.49-1.46.85-1.73,1.7a.62.62,0,0,1-.9.43c-2-.76-4.28.43-6.22-1.07a1.77,1.77,0,0,0-2.3.9l-1-1.16q0-1.58,0-3.15a1.6,1.6,0,0,1,1.95,1.35c1.41-.25,2.58-1.27,4.2-.43.55.28,1.83-.06,2.81.11.48.08.13-.81.65-1.1.7.65,1.46,1.34,2.59.86Z" transform="translate(-7.8 -7.68)"/><path class="cls-14" d="M72.8,69.54a.81.81,0,0,1-.39.79c-.88-1.48.19-1.5,1.18-1.58h4.63c.68-.68.42-1.36.49-2h.39v2q0,.2,0,.39C77,69.36,74.85,68.71,72.8,69.54Z" transform="translate(-7.8 -7.68)"/><path class="cls-43" d="M79.09,66.78H78.7V65.6a4.22,4.22,0,0,1,.39-2.76c1.78-.69,3.57-.31,5.4-.28,1.56,0,3.16.55,4.8,0a3.23,3.23,0,0,1,3,0,1.89,1.89,0,0,0,2-.1,2.75,2.75,0,0,1,2-.37,13.06,13.06,0,0,0,4.43.16c2.34-.14,4.65.69,7,.33a37.52,37.52,0,0,1,7.3.09c1.2,0,2.43-.87,3.4.55v1.18h-.39a2.18,2.18,0,0,0-2.22-1,59.55,59.55,0,0,1-9.95.34c-.7,0-1,0-1.22.66h-.39c-.25-.53-.59-.68-1.24-.64-2,.13-4,.12-6,.05-5.06-.16-10.12.27-15.19-.26-1.16-.12-3.21.08-2.78,2.42Z" transform="translate(-7.8 -7.68)"/><path class="cls-44" d="M122.4,56.15h2.22c.7.42.12,1.15.54,1.58a2.28,2.28,0,0,1-2.3.67c-1.51-.34-3.15.82-4.71-.57-.56-.51-1.53.91-2.24.79a34.24,34.24,0,0,0-7.6-.24c-1.93.11-3.88-.83-5.71-.1a11.23,11.23,0,0,1-5.71.23c-2.75-.38-5.5,0-8.14-.07s-5.4-1.45-8,.26c-.9.59-1.1-.62-1.65-1-.88-1.48.19-1.5,1.18-1.57Z" transform="translate(-7.8 -7.68)"/><path class="cls-5" d="M79.09,57.73c.55.34.75,1.55,1.65,1,2.6-1.71,5.42-.29,8-.26s5.39-.31,8.14.07a11.23,11.23,0,0,0,5.71-.23c1.83-.73,3.78.21,5.71.1a34.24,34.24,0,0,1,7.6.24c.71.12,1.68-1.3,2.24-.79,1.55,1.39,3.19.24,4.71.57a2.28,2.28,0,0,0,2.3-.67l-.39,2c-.56-.11-1.11.53-1.4.42-2.23-.84-4.45-.15-6.63,0-2.65.21-5.3,0-7.93.06-3.06,0-6.19-.09-9.28-.33-2.64-.2-5.26.3-7.94,0a10.28,10.28,0,0,0-3.51-.18c-2.38.62-4.69-.18-7,0C79.42,60,78.67,59.47,79.09,57.73Z" transform="translate(-7.8 -7.68)"/><path class="cls-10" d="M79.09,62.85a4.22,4.22,0,0,0-.39,2.76L78,65c-1.41,1.55-2.7-.06-4-.26s-1.42.19-1.25,1.24c-1.15,0-.85-1.39-1.86-1.74-1.31.09-2.9,1.37-4.37-.15C65.44,61,68,60,69.94,58.61c.29.26.66,1.34,1.36.77,1.33-1.1,2.48-.41,3.54.18s1.49-.75,2.48-.61c.32.55,1.17.68,1.78,1.15.13.39-1.21.79,0,1.18Z" transform="translate(-7.8 -7.68)"/><path class="cls-45" d="M79.09,61.27c-1.21-.39.13-.79,0-1.18.73.22,1.57,1,2-.39,2.33-.19,4.64.61,7,0a10.28,10.28,0,0,1,3.51.18c2.67.3,5.3-.2,7.94,0,3.09.24,6.22.37,9.28.33,2.63,0,5.28.15,7.93-.06,2.19-.17,4.4-.86,6.63,0,.29.11.84-.53,1.4-.42,1,.46,2.13.85,1.57,2.36a16.5,16.5,0,0,0-6-.65c-1.33.05-3,.37-4.2-.1a7.74,7.74,0,0,0-3.86-.05c-1.73.19-3.43,0-5.13.07-2.37.09-4.76-.35-7.12-.17-4.53.34-9.07,0-13.61.15C84,61.41,81.52,61.85,79.09,61.27Z" transform="translate(-7.8 -7.68)"/><path class="cls-4" d="M106.26,108.52c.2-1.83-.44-3.72.39-5.51,2-.23,4,.47,5.91-.39,2-.1,4.12.2,5.89-1.18-.83,2.17-.14,4.43-.45,6.63-1.61,0-3.22,0-4.82.05-.73,0-1.44,0-1.8.79-.65.18-1.65-1.72-2,.33,0,0-.49.1-.53,0C108.21,108.15,107.05,109,106.26,108.52Z" transform="translate(-7.8 -7.68)"/><path class="cls-13" d="M118.45,101.43c-1.77,1.38-3.87,1.08-5.89,1.18-.34-1.16.76-2.47-.39-3.54h0v-.39c1.83-.26,3.57.6,5.55,0,1.21-.36,2.9.65,4.37-.16.71-.39,1.33-1.07,2.27-.64l-.23,3C122.24,101.46,120.25,100.45,118.45,101.43Z" transform="translate(-7.8 -7.68)"/><path class="cls-26" d="M132.64,54.19c-.26,1-.53,1.89-1.84.93-.3-.22-.87-.1-1.31-.14a1.19,1.19,0,0,1,1.31-1.45C131.47,53.51,132.34,53.11,132.64,54.19Z" transform="translate(-7.8 -7.68)"/><path class="cls-6" d="M112.17,99.07c1.15,1.07,0,2.38.39,3.54-1.92.87-3.94.17-5.91.39l-.39-.39c1.77-.93,3.72,0,5.56-.54.56-.51.27-1.2.35-1.82Z" transform="translate(-7.8 -7.68)"/><path class="cls-28" d="M65.31,91.19V90a.82.82,0,0,1,.39.79,8.08,8.08,0,0,0,.67,3.83,17.26,17.26,0,0,0,5.55-.17L72,92.77V90.41c.08-.95-.42-1.21-1.29-1.19-1.54,0-3.08,0-4.62,0q0-.19,0-.39H72c.79,1,.23,2.11.39,3.16s-.4,2.44.4,3.54h0a14.75,14.75,0,0,1-7.48,0Z" transform="translate(-7.8 -7.68)"/><path class="cls-46" d="M78.7,82.54h.39c-.17,2.09.42,4.23-.39,6.29H73.19c-.68-1.12-.31-2.35-.4-3.54.66.42.17,1.27.65,1.68,1.68,1.34,3.48-.74,5.26.46Z" transform="translate(-7.8 -7.68)"/><path class="cls-11" d="M72.79,85.29c.09,1.18-.27,2.42.4,3.54-.87,2.19-.18,4.47-.4,6.7-.8-1.11-.22-2.37-.4-3.54s.39-2.19-.39-3.16c.9-1.34-.13-3,.75-4.34Z" transform="translate(-7.8 -7.68)"/><path class="cls-6" d="M78.7,88.82c.81-2.05.21-4.19.39-6.29h.4v5.9q0,.19,0,.39c-.71.69-.26,1.58-.4,2.37C78.38,90.5,78.83,89.61,78.7,88.82Z" transform="translate(-7.8 -7.68)"/><path class="cls-27" d="M104.69,95.52h-1.16c-4.7,0-4.7,0-4.76-4.72q0-1,0-2h4.92c.58,0,1.2-.07,1.58.54C105.81,90.23,105.39,94.66,104.69,95.52Z" transform="translate(-7.8 -7.68)"/><path class="cls-47" d="M104.69,95.52c.71-.86,1.13-5.3.59-6.15-.39-.61-1-.54-1.58-.54H98.78l0-.41h7.06v4.33c-.24,1.11.36,1.54,1.34,1.53,1.33,0,2.66-.12,4.08-.18l.1-1.34V91.19h.38l0,.41q0,2,0,3.91v.42c-2.08-.45-4.15,0-6.22.12A.77.77,0,0,1,104.69,95.52Z" transform="translate(-7.8 -7.68)"/><path class="cls-6" d="M85.79,88.83q0,3.34,0,6.69c-.8-1-.21-2.1-.4-3.15q0-1.38,0-2.76,0-.2,0-.39V88c-.06-1.84.24-3.71-.39-5.51l.39-.39h7.09c.22,2.09-.44,4.24.39,6.3q0,.19,0,.38l-.4.4q0,1,0,2v4.33h-.4q0-.19,0-.39,0-3,0-5.9,0-.19,0-.39v-.41q0-1.18,0-2.35c0-4,.47-3.52-2.75-3.55-1.29.06-2.73-.33-3.53,1.19v4.71Z" transform="translate(-7.8 -7.68)"/><path class="cls-48" d="M92.48,91.19v-2c1.47,0,3,.07,4.42,0,1.24-.07,1.61.48,1.48,1.59v.79H98Z" transform="translate(-7.8 -7.68)"/><path class="cls-49" d="M98,91.59h.39v1.57c-.89,1.63-2.43,1.61-3.83,1.18a2.23,2.23,0,0,0-2.08.4q0-1.18,0-2.36C94.28,91.82,96.35,93.18,98,91.59Z" transform="translate(-7.8 -7.68)"/><path class="cls-28" d="M92.48,94.73a2.23,2.23,0,0,1,2.08-.4c1.4.43,2.94.45,3.83-1.18.39,2-.55,2.61-2.44,2.39a29.46,29.46,0,0,0-3.46,0Z" transform="translate(-7.8 -7.68)"/><path class="cls-28" d="M98.39,90.8c.13-1.11-.25-1.67-1.48-1.59-1.47.08-2.95,0-4.42,0l.4-.4,5.9,0h0q0,1,0,2Z" transform="translate(-7.8 -7.68)"/><path class="cls-50" d="M85.39,89.23q0,.2,0,.39c-.46.28-.38.75-.39,1.18-1.84.11-3.67.85-5.51,0-.13-1.11.24-1.66,1.48-1.59C82.44,89.29,83.92,89.23,85.39,89.23Z" transform="translate(-7.8 -7.68)"/><path class="cls-51" d="M85,90.8c0-.43-.07-.9.39-1.18q0,1.38,0,2.76a.81.81,0,0,0-.39.79,1.22,1.22,0,0,0-1.52-.38c-1.32.37-2.66,0-4,0q0-.59,0-1.18a4.63,4.63,0,0,0,1.65.32C82.45,91.66,84.1,92.48,85,90.8Z" transform="translate(-7.8 -7.68)"/><path class="cls-52" d="M79.49,92.77c1.33,0,2.66.38,4,0a1.22,1.22,0,0,1,1.52.38c-.11.82-.62,1-1.37.91A10.18,10.18,0,0,0,80.77,94C79.54,94.27,79.49,93.62,79.49,92.77Z" transform="translate(-7.8 -7.68)"/><path class="cls-48" d="M85,90.8c-.9,1.68-2.55.86-3.86,1.11a4.63,4.63,0,0,1-1.65-.32V90.8C81.33,91.65,83.16,90.91,85,90.8Z" transform="translate(-7.8 -7.68)"/><path class="cls-33" d="M85.39,88v.78h-5.9q0-.19,0-.39C81.46,88.26,83.47,88.83,85.39,88Z" transform="translate(-7.8 -7.68)"/><path class="cls-27" d="M111.78,95.5q0-2,0-3.91c.73-.84.23-1.84.39-2.76a26.12,26.12,0,0,1,4.88.05c2.85.55.94,2.92,1.36,4.41.26.92.5,2.28-1.4,2.26-1.6,0-3.26-.39-4.82.35Z" transform="translate(-7.8 -7.68)"/><path class="cls-53" d="M92.08,89.23q0,3,0,5.9H88c-.32,0-.74.11-1,0-1.78-1.22-.47-3.05-.82-4.57-.2-.85.26-1.32,1.2-1.3C89,89.25,90.52,89.23,92.08,89.23Z" transform="translate(-7.8 -7.68)"/><path class="cls-28" d="M92.08,88.43v.41h-6.3l0-.41Z" transform="translate(-7.8 -7.68)"/><path class="cls-54" d="M79.49,82.53h-.38c-1.92-.86-3.95-.17-5.91-.4L72.8,81a2.18,2.18,0,0,1,2.31-1.33c1.56.09,3.13.09,4.68.27,2.54.3,5-.31,7.6-.08,5.88.51,11.81-.34,17.7.35v1.58c-2.06.84-4.21.16-6.3.41.1-.52,1.11-.22.93-1-7.58-.41-15.14,0-22.82-.2.57,1.44,2.35,0,2.59,1.59Z" transform="translate(-7.8 -7.68)"/><path class="cls-55" d="M105.08,80.17c-5.89-.7-11.82.15-17.7-.35-2.56-.22-5.06.38-7.6.08-1.55-.18-3.12-.18-4.68-.27A2.18,2.18,0,0,0,72.8,81V77.81c2.63,0,5.28-.27,7.87.39a3.07,3.07,0,0,0,2.31.64c3.49-.33,7-.15,10.51-.17,2.15,0,4.28.44,6.51-.16,1.55-.42,3.36.38,5.08.09Q105.08,79.38,105.08,80.17Z" transform="translate(-7.8 -7.68)"/><path class="cls-16" d="M105.09,81.75v-.4c.76,0,1.21.22,1.18,1.07s0,1.65,0,2.47c0,3.61-.44,3.1,3.21,3.15,1,0,2.06,0,3.09,0l-.39.79c-.16.92.34,1.92-.39,2.76l0-.41c0-2.75,0-2.75-2.81-2.75h-3.08c0-1.73,0-3.47,0-5.2C105.86,82.62,106,81.88,105.09,81.75Z" transform="translate(-7.8 -7.68)"/><path class="cls-24" d="M72.8,74.66v-2a4.07,4.07,0,0,1,2.47-1.05c5.58.24,11.17-.18,16.72.07,3.24.15,6.45-.43,9.69,0,1.68.24,3.47-.16,5.16-.11s3.53-.35,4.94,1.05v1.18c-.31-.22-.63-.64-.92-.62-4.92.28-9.84,0-14.75,0q-8.39.08-16.78.09c-1.67,0-3.35,0-5-.11-.89-.07-1.22.15-1.11,1Z" transform="translate(-7.8 -7.68)"/><path class="cls-39" d="M72.8,74.66l.39-.39c1.77.71,3.64.46,5.42.33a107.72,107.72,0,0,1,12,.1c.22,0,.44.23.66.36-1.06,1.06-2.29.56-3.49.4-2.89-.39-5.76.4-8.66.15-1.41-.12-2.83-.12-4.23-.28-1.06-.12-1.61.26-1.73,1.3H72.8v-2Z" transform="translate(-7.8 -7.68)"/><path class="cls-24" d="M72.79,75.84V81l.4,1.17c-1-.12-.78-.86-.79-1.47,0-1.61,0-3.21,0-4.82Z" transform="translate(-7.8 -7.68)"/><path class="cls-34" d="M118.07,69.15V67.56c-4.2-.72-8.4-.35-12.54-.49s-8.39.46-12.57-.14c-1.33-.19-2.42.7-3.77.41A11.69,11.69,0,0,1,87,66.78a.81.81,0,0,1,.79-.39c1.51-1.07,3.09-.19,4.64-.2,3.32,0,6.65-.7,10,0,.56.12.68-.19.74-.61.74.19,1.62.75,2.2.52,3-1.16,6,.54,9.07-.23,1-.26,2.86-.7,4.08.49C118.31,67.31,118.83,68.32,118.07,69.15Z" transform="translate(-7.8 -7.68)"/><path class="cls-56" d="M118.46,66.39c-1.22-1.19-3.06-.75-4.08-.49-3.06.77-6.08-.94-9.07.23-.58.23-1.46-.33-2.2-.52a2.47,2.47,0,0,1,1.18-1.18h.39a42.38,42.38,0,0,0,13.39,0Z" transform="translate(-7.8 -7.68)"/><path class="cls-4" d="M111.77,72.69c-1.41-1.4-3.32-1-4.94-1.05s-3.48.35-5.16.11c-3.24-.46-6.45.11-9.69,0-5.55-.25-11.14.16-16.72-.07a4.07,4.07,0,0,0-2.47,1.05l.55-2.14c2.28,0,4.54.08,6.83.24,3.76.26,7.62-.23,11.41-.25,6.06,0,12.12.24,18.18-.06a2.5,2.5,0,0,1,2,1Q111.77,72.1,111.77,72.69Z" transform="translate(-7.8 -7.68)"/><path class="cls-57" d="M79.09,69.14q0-.2,0-.39h.39a17.12,17.12,0,0,0,3.19.13c2.34-.33,4.79.8,7-.52h.39a9.69,9.69,0,0,0,6.69,0c4.17.4,8.34,0,12.51.11,1.11,0,2.68-.13,2.45,1.85-1.34-1.69-3.17-.6-4.72-.66-4.05-.17-8.12.11-12.18,0-2.95,0-5.91.24-8.82,0-2.33-.2-4.66.4-7-.16Z" transform="translate(-7.8 -7.68)"/><path class="cls-17" d="M79.49,68.75h-.39V66h.39c2.55-.76,5.16-.23,7.75-.32.41,0,.47.38.52.71a.81.81,0,0,0-.79.39c-2,.57-4.1-.18-6.15,0-1,.09-1.57.45-1.33,1.55Z" transform="translate(-7.8 -7.68)"/><path class="cls-21" d="M79.49,68.75v-.39H89.72c-2.26,1.32-4.7.19-7,.52A17.12,17.12,0,0,1,79.49,68.75Z" transform="translate(-7.8 -7.68)"/><path class="cls-21" d="M96.81,68.36a9.69,9.69,0,0,1-6.69,0C92.35,67.85,94.58,68.4,96.81,68.36Z" transform="translate(-7.8 -7.68)"/><path class="cls-53" d="M72.75,84.48c-.88,1.34.15,3-.75,4.34H65.71V85.29c0-3.14,0-3.14,3.16-3.15h2.74a1.36,1.36,0,0,1,.79.78Z" transform="translate(-7.8 -7.68)"/><path class="cls-58" d="M72.75,84.48l-.35-1.56c2.06-.82,4.2-.22,6.3-.39,0,1.56,0,3.12,0,4.9-1.78-1.2-3.58.88-5.26-.46-.48-.42,0-1.26-.65-1.68Z" transform="translate(-7.8 -7.68)"/><path class="cls-50" d="M65.71,88.83h.39q0,.19,0,.39c0,.37-.06,1,.35,1,1.87-.23,3.68,1,5.56.2v.79c-1.94.59-4-.39-5.9.39A157.36,157.36,0,0,1,65.32,90Z" transform="translate(-7.8 -7.68)"/><path class="cls-21" d="M79.09,69.14v.39H72.8C74.85,68.71,77,69.36,79.09,69.14Z" transform="translate(-7.8 -7.68)"/><path class="cls-14" d="M79.49,66h-.39c-.43-2.35,1.62-2.54,2.78-2.42,5.07.53,10.13.1,15.19.26,2,.06,4,.07,6-.05.65,0,1,.1,1.24.64a2.47,2.47,0,0,0-1.18,1.18c-1-.43-2.13-1.14-3.16-.72-2.31.94-4.66.14-6.87,0-4.29-.2-8.53.45-12.78.21C79.4,65.08,79.5,65.47,79.49,66Z" transform="translate(-7.8 -7.68)"/><path class="cls-59" d="M118.07,64.42a42.38,42.38,0,0,1-13.39,0c.18-.66.52-.68,1.22-.66a59.55,59.55,0,0,0,9.95-.34A2.18,2.18,0,0,1,118.07,64.42Z" transform="translate(-7.8 -7.68)"/><path class="cls-60" d="M65.71,90.8a.81.81,0,0,1,.39.79c-.19,1.28.87,1.09,1.5,1.14,1.46.1,2.93,0,4.4,0l-.08,1.69a17.26,17.26,0,0,1-5.55.17A8.08,8.08,0,0,1,65.71,90.8Z" transform="translate(-7.8 -7.68)"/><path class="cls-61" d="M72,92.77c-1.47,0-2.94.06-4.4,0-.63,0-1.7.15-1.5-1.14,1.92-.78,4,.19,5.9-.39Z" transform="translate(-7.8 -7.68)"/><path class="cls-62" d="M72,90.41c-1.88.81-3.69-.43-5.56-.2-.4,0-.31-.61-.35-1,1.54,0,3.08,0,4.62,0C71.59,89.19,72.08,89.46,72,90.41Z" transform="translate(-7.8 -7.68)"/><path class="cls-27" d="M85.39,88c-1.92.79-3.94.22-5.9.39q0-3,0-5.9h0c1.84,0,3.67-.63,5.51,0C85.63,84.33,85.33,86.2,85.39,88Z" transform="translate(-7.8 -7.68)"/><path class="cls-50" d="M105.87,91.19V89.62l5.51.39v1.18h0C109.54,91.18,107.7,91.94,105.87,91.19Z" transform="translate(-7.8 -7.68)"/><path class="cls-60" d="M111.38,92.77l-.1,1.34c-1.41.07-2.74.17-4.08.18-1,0-1.58-.42-1.34-1.53C107.7,93.4,109.54,92.33,111.38,92.77Z" transform="translate(-7.8 -7.68)"/><path class="cls-63" d="M111.38,90l-5.51-.39v-.79c1.41,0,2.82,0,4.23,0C111,88.8,111.45,89.07,111.38,90Z" transform="translate(-7.8 -7.68)"/><path class="cls-46" d="M105.47,88.44H98.8q0-.19,0-.39l0-2c.48.67.43,1.82,1.7,1.75,1.65-.09,3.31-.12,5-.18Z" transform="translate(-7.8 -7.68)"/><path class="cls-64" d="M105.47,88.44v-.79q0-1.18,0-2.36a6.21,6.21,0,0,0-.33-2.75H98.81l0-.38c2.09-.25,4.25.44,6.3-.41,1,.13.77.87.77,1.49,0,1.73,0,3.47,0,5.2Z" transform="translate(-7.8 -7.68)"/><path class="cls-61" d="M105.87,91.19c1.84.74,3.67,0,5.51,0v1.18c-1.8-.69-3.72.33-5.51-.39Z" transform="translate(-7.8 -7.68)"/><path class="cls-64" d="M105.87,92c1.79.72,3.71-.3,5.51.39v.39c-1.84-.44-3.67.63-5.51,0Z" transform="translate(-7.8 -7.68)"/><path class="cls-64" d="M111.38,90c.08-.94-.42-1.21-1.29-1.19-1.41,0-2.82,0-4.23,0v-.4H109c2.83,0,2.83,0,2.81,2.75h-.38Z" transform="translate(-7.8 -7.68)"/><path class="cls-54" d="M98.76,88q0,.19,0,.39l0,.41-5.9,0q0-.19,0-.38c1.83-.17,3.72.39,5.51-.39Z" transform="translate(-7.8 -7.68)"/><path class="cls-27" d="M98.39,88c-1.79.79-3.68.22-5.51.39-.83-2.06-.18-4.21-.39-6.3,1,.34,2.24,1.11,2.86.53.82-.77,1.47-.35,2.11-.26s.94.81.93,1.53C98.38,85.3,98.39,86.67,98.39,88Z" transform="translate(-7.8 -7.68)"/><path class="cls-53" d="M98.39,88c0-1.37,0-2.74,0-4.11,0-.72-.25-1.44-.93-1.53s-1.29-.51-2.11.26c-.62.58-1.91-.19-2.86-.53h0a13.07,13.07,0,0,0-7.09,0l-.39.39c-1.84-.63-3.67,0-5.51,0-.24-1.55-2-.15-2.59-1.59,7.68.23,15.24-.21,22.82.2.18.79-.83.49-.93,1l0,.38q0,.39,0,.79v2.75l0,2Z" transform="translate(-7.8 -7.68)"/><path class="cls-65" d="M89.33,82.53c3.23,0,2.73-.4,2.75,3.55-.42,1.27-1.15,1.84-2.52,1.21a1.45,1.45,0,0,0-1.31-.08c-1.62.79-2.13,0-2.08-1.52a4,4,0,0,1,3.62-.44,1.47,1.47,0,0,0,1.86-1.14c.2-1-.44-1.23-1.29-1.18A1.08,1.08,0,0,1,89.33,82.53Z" transform="translate(-7.8 -7.68)"/><path class="cls-66" d="M89.33,82.53a1.08,1.08,0,0,0,1,.39c.84,0,1.49.19,1.29,1.18a1.47,1.47,0,0,1-1.86,1.14,4,4,0,0,0-3.62.44c-.09-.66.26-1.41-.38-2C86.6,82.2,88,82.58,89.33,82.53Z" transform="translate(-7.8 -7.68)"/><path class="cls-67" d="M85.8,83.72c.64.55.29,1.3.38,2-.05,1.53.46,2.31,2.08,1.52a1.45,1.45,0,0,1,1.31.08c1.36.63,2.09.06,2.52-1.21q0,1.18,0,2.35H85.81Q85.8,86.07,85.8,83.72Z" transform="translate(-7.8 -7.68)"/><path class="cls-68" d="M98,91.59c-1.65,1.6-3.72.23-5.51.79V91.19Z" transform="translate(-7.8 -7.68)"/><path class="cls-54" d="M85.39,82.14a13.07,13.07,0,0,1,7.09,0Z" transform="translate(-7.8 -7.68)"/><path class="cls-56" d="M79.49,66c0-.52-.09-.92.81-.87,4.26.24,8.49-.4,12.78-.21,2.21.1,4.56.9,6.87,0,1-.42,2.14.29,3.16.72-.06.43-.18.73-.74.61-3.32-.72-6.65,0-10,0-1.55,0-3.13-.87-4.64.2-.05-.33-.11-.72-.52-.71C84.65,65.76,82,65.23,79.49,66Z" transform="translate(-7.8 -7.68)"/><path class="cls-65" d="M98.8,86.08q0-1.38,0-2.75c.26,2.06,1.57,2.3,3.35,2.18,1.1-.07,2.19-.57,3.32-.22q0,1.18,0,2.36c-1.66.06-3.31.1-5,.18C99.24,87.9,99.28,86.75,98.8,86.08Z" transform="translate(-7.8 -7.68)"/><path class="cls-69" d="M105.47,85.29c-1.13-.35-2.22.15-3.32.22-1.79.12-3.09-.12-3.35-2.18q0-.39,0-.79h6.32A6.21,6.21,0,0,1,105.47,85.29Z" transform="translate(-7.8 -7.68)"/></g></g></svg>