<svg xmlns="http://www.w3.org/2000/svg" viewBox="0 0 181.9 181.88"><defs><style>.cls-1{fill:#45494b;}</style></defs><title>Fichier 4</title><g id="Calque_2" data-name="Calque 2"><g id="Calque_1-2" data-name="Calque 1"><path class="cls-1" d="M189.74,98.77A90.95,90.95,0,1,1,98.84,7.85,91,91,0,0,1,189.74,98.77Zm-4-.09c-1.37-48.37-37.08-86.58-86.95-86.6-50.15,0-87,38.65-86.76,86.83.22,49.4,37.89,86.65,86.83,86.56C148.3,185.37,184.49,147.63,185.79,98.68Z" transform="translate(-7.85 -7.85)"/><path class="cls-1" d="M36.31,116.89,51.16,123c2.12.87,4.23,1.81,6.38,2.58a2.77,2.77,0,0,1,1.89,2.2,18.71,18.71,0,0,0,36.81-3.88,3.32,3.32,0,0,1,1.66-3q10.95-7.17,21.81-14.46a4.38,4.38,0,0,1,2.2-.66c10-.83,17.28-5.67,21.22-14.86,3.86-9,2.45-17.56-3.72-25.23a24.36,24.36,0,0,0-30.55-5.76C101.14,64.35,97,71.11,96.22,80a5,5,0,0,1-.83,2.55Q88.3,92.93,81.28,103.38a2,2,0,0,1-2.11,1,18,18,0,0,0-11.61,2.88,2,2,0,0,1-2.17.12Q50.14,101,34.87,94.74c-1-.39-1.45-.79-1.32-2C36,71.16,46.32,54.43,64.73,42.94c24.47-15.26,56.9-12,78.09,7.6a63.24,63.24,0,0,1,19,31.35c4.89,19.32,2,37.52-9.39,54-11.27,16.23-27,25.64-46.65,27.83a65.22,65.22,0,0,1-69.12-44.22A3.71,3.71,0,0,1,36.31,116.89Z" transform="translate(-7.85 -7.85)"/><path class="cls-1" d="M103,81.35a17.7,17.7,0,1,1,17.64,17.7A17.7,17.7,0,0,1,103,81.35Zm17.85-12.5a12.5,12.5,0,1,0,12.3,12.66A12.43,12.43,0,0,0,120.84,68.85Z" transform="translate(-7.85 -7.85)"/><path class="cls-1" d="M72.54,110.36c6.42-3.16,14.68.3,17.71,7a13.89,13.89,0,0,1-7.11,18.44c-7,3-15.42-.17-18.14-7.14l8.49,3.55a10,10,0,0,0,11.73-15.61,11.19,11.19,0,0,0-4.86-3.21C77.86,112.48,75.38,111.47,72.54,110.36Z" transform="translate(-7.85 -7.85)"/></g></g></svg>