<svg xmlns="http://www.w3.org/2000/svg" viewBox="0 0 181.9 181.87"><defs><style>.cls-1{fill:#44474a;}</style></defs><title>Fichier 2</title><g id="Calque_2" data-name="Calque 2"><g id="Calque_1-2" data-name="Calque 1"><path class="cls-1" d="M189.93,98.86a90.95,90.95,0,1,1-90.76-91A90.89,90.89,0,0,1,189.93,98.86ZM12,98.83c1.37,49.19,37.84,86.7,87,86.68s86.66-37.61,86.68-86.72C185.7,50,148.45,12.11,99,12.12,48.9,12.14,13.08,50.72,12,98.83Z" transform="translate(-8.03 -7.9)"/><path class="cls-1" d="M97.9,80.4c-.16-1.7-.37-3.12-.42-4.55A24.35,24.35,0,0,1,138.59,57a2.76,2.76,0,0,0,3,.65A55.34,55.34,0,0,0,153,53.43l1.86-.91c-1.75,5.73-5.35,9.44-10.12,12.94a43.7,43.7,0,0,0,13-3.22,3.69,3.69,0,0,1-1.11,2.12,47.07,47.07,0,0,1-8.88,8.87,2.84,2.84,0,0,0-1.29,2.62,57.12,57.12,0,0,1-1,12.71,77.56,77.56,0,0,1-5.53,18.19c-7.49,16-18.93,27.95-35.22,35a69.79,69.79,0,0,1-29.92,5.47,68.62,68.62,0,0,1-32.06-8.88c-.51-.29-1-.59-1.51-.91-.22-.14-.4-.32-1.12-.89,13.21.88,24.77-2.21,35.34-10.28-11.12-1.17-18.66-6.49-22.75-17a24.38,24.38,0,0,0,10.72-.54c-12-3.7-18.42-11.45-19.46-24,2,.7,3.71,1.38,5.43,1.84a20.08,20.08,0,0,0,5.31.79C43.89,77.06,41.07,64.16,47.59,55.13,60.81,70.44,77.4,79,97.9,80.4Z" transform="translate(-8.03 -7.9)"/></g></g></svg>