<svg xmlns="http://www.w3.org/2000/svg" viewBox="0 0 181.89 181.86"><defs><style>.cls-1{fill:#424547;}</style></defs><title>Fichier 1</title><g id="Calque_2" data-name="Calque 2"><g id="Calque_1-2" data-name="Calque 1"><path class="cls-1" d="M189.73,98.75A90.95,90.95,0,1,1,98.93,7.87,90.89,90.89,0,0,1,189.73,98.75Zm-90.94,87c49.37-1.39,86.63-37.95,86.69-87C185.54,50,148.24,12,98.71,12.08,48.77,12.14,12,50.37,12.08,98.79,12.14,148,49.61,184.42,98.8,185.78Z" transform="translate(-7.84 -7.87)"/><path class="cls-1" d="M98.78,55.94c15.22,0,30.43.11,45.6,1.51,6.72.62,11.2,4.24,13.3,10.81A55.37,55.37,0,0,1,160,84.17c.24,12.19.68,24.39-.54,36.57a41.73,41.73,0,0,1-2,9.4,14,14,0,0,1-12.45,10c-11.62,1.25-23.29,1.47-35,1.56-17.38.13-34.76.1-52.11-1.07a39.75,39.75,0,0,1-7.58-1.11,13.92,13.92,0,0,1-10.23-9.66C38.14,124,37.66,118,37.53,112c-.25-11.47-.56-23,.58-34.4a44.78,44.78,0,0,1,2.08-10c2.08-6.13,6.51-9.47,12.79-10.1,12.08-1.2,24.22-1.41,36.35-1.54C92.49,55.91,95.63,55.94,98.78,55.94ZM86,79.91V115l33.87-17.5Z" transform="translate(-7.84 -7.87)"/></g></g></svg>