<svg xmlns="http://www.w3.org/2000/svg" viewBox="0 0 667.13 1000"><defs><style>.cls-1{fill:#3c3f41;}</style></defs><title>Fichier 4</title><g id="Calque_2" data-name="Calque 2"><g id="Calque_1-2" data-name="Calque 1"><path class="cls-1" d="M419.24,0a90.59,90.59,0,0,1,55.35,19.08c10.69,8.36,17.32,19.51,21.76,32.11,6,17,8.12,34.61,9.45,52.42a440.55,440.55,0,0,1,.94,47.19c-.53,15.93-1.62,31.82-3.41,47.67-1.87,16.57-4.36,33-7.62,49.36a483.65,483.65,0,0,1-25.44,84.75c-9.89,24.75-21.33,48.8-33.58,72.46-9.41,18.16-18.81,36.34-29.14,54-14.06,24-31.58,45.17-53.77,62.3a347,347,0,0,1-53.41,34.25,216,216,0,0,1-53.08,19,69.62,69.62,0,0,1-13,2,9.74,9.74,0,0,1-7-2.21c-11.78-10.11-24.05-19.68-33.6-32.15-12.68-16.55-20.39-35.28-25-55.46a144.82,144.82,0,0,1-3.45-30.56,152.7,152.7,0,0,1,2.38-29.1c.66-3.6,1.16-7.23,1.75-10.84a3.64,3.64,0,0,1,3.17-3.3,548.83,548.83,0,0,0,63-19.27c21.51-8,42-18,59.94-32.65a151.35,151.35,0,0,0,33.78-39.56,166.14,166.14,0,0,0,19.76-48.41c5.68-24.42,4.34-48.27-6.19-71.28-2-4.48-4.36-8.84-6.33-13.35-1-2.38-1.91-2.44-3.69-.69a219.8,219.8,0,0,1-26.09,21.76c-13.77,9.84-28.49,17.74-45.2,21.24a77.45,77.45,0,0,1-46.52-4.51c-16.68-6.92-30.9-17.67-44.94-28.7a64.06,64.06,0,0,1-7.45-6.73c-1.1-1.18-1.14-2.06-.22-3.52,13-20.7,26.84-40.85,41.71-60.29A331.16,331.16,0,0,1,309.74,36.49C329.66,25.63,350.13,16.09,371.69,9,386.27,4.14,401.1.52,419.24,0Z"/><path class="cls-1" d="M643.59,312.39a117.24,117.24,0,0,1,4.51,28.79c.77,20.46,1.14,40.92.55,61.38-.56,19.39-1.89,38.73-4.09,58s-5.21,38.41-9,57.43a790,790,0,0,1-30.44,110.47c-11.66,32.86-25.39,64.82-42.45,95.27a550.2,550.2,0,0,1-52.44,76.9c-19.42,24-40.34,46.72-61.49,69.2-5.29,5.63-11.62,10.3-17.56,15.3-15.11,12.7-30.67,24.8-47.6,35.05a252.58,252.58,0,0,1-57.27,25.51,325.23,325.23,0,0,1-47.21,10.43,515.59,515.59,0,0,1-64.21,5.56c-9.87.23-19.73.49-29.59.28q-23.73-.52-47.38-2.76-23.5-2.25-46.67-6.56-23.95-4.45-47.48-10.8c-11.52-3.13-23-6.42-34.39-10-11.93-3.76-10-2.55-7.53-13.5a356.57,356.57,0,0,1,11.59-40.13,281.21,281.21,0,0,1,21.77-47.37,395.64,395.64,0,0,1,61.86-80.78c19.58-19.68,41.73-36,65.51-50.28,3.58-2.15,7.55-3.06,11.46-4.25,1.7-.52,2.21.18,2.31,1.83q1.12,17.58,2.36,35.16c.88,12.35,2.29,24.65,4.08,36.9,2.13,14.52,4.8,29,7.94,43.29,1.63,7.47,3.43,14.91,5.1,22.37.35,1.57,1.07,2,2.65,1.63,22.45-4.76,44.68-10.22,66.26-18.21,37.27-13.8,69.15-36.14,99-61.8,31.77-27.31,60.12-58,87.79-89.33Q485,629.5,516,589.56a637.81,637.81,0,0,0,59.44-91.13,653.9,653.9,0,0,0,37-83.25c9.89-27.09,17.81-54.79,25.58-82.53,1.58-5.65,2.95-11.36,4.44-17C642.81,314.52,643.23,313.46,643.59,312.39Z"/><path class="cls-1" d="M642.95,580a48.05,48.05,0,0,1,7.52,14.69,431.51,431.51,0,0,1,13,54.67,275.21,275.21,0,0,1,3.44,55.49,379.74,379.74,0,0,1-6.55,55.82,362.11,362.11,0,0,1-13.83,52.49c-7.17,20.43-17.3,39.3-29.34,57.22a436.13,436.13,0,0,1-55.82,66.77c-19.22,19-40.66,35.06-65.06,46.92-22.42,10.9-46,16.77-71.08,15.8-17.8-.69-35.12-4.32-52.16-9.3C357.39,986,342,980.65,326.7,974.77a39.54,39.54,0,0,1-11.05-6.54c-1.62-1.34-1.39-2,.45-2.69q12.77-4.8,25.51-9.68c45.79-17.47,87.76-41.23,123.94-74.69,25.6-23.67,48.41-49.8,69.33-77.62a649.79,649.79,0,0,0,57.89-91.34,565.28,565.28,0,0,0,34.61-81.86q6.6-19.83,13-39.72C641.39,587.46,642,584.16,642.95,580Z"/><path class="cls-1" d="M388.34,521.63a48.43,48.43,0,0,1-3.28,12.22c-7.86,18.06-16.07,36-22,54.83a288.45,288.45,0,0,0-9.8,42.5,452.21,452.21,0,0,0-4.72,50.35c-.76,19.09-1.41,38.25.48,57.22.89,8.88-2.24,14-8.35,19.08a291.46,291.46,0,0,1-34.88,25.25c-15.28,9.21-31,17.47-47.81,23.68-11.7,4.34-23.62,7.93-36,9.59-6.47.87-6.73.87-8.16-5.56-3.1-14-6.36-27.95-8.73-42.11a472.88,472.88,0,0,1-6.16-61.28,374.15,374.15,0,0,1,3.67-67.08c1.38-9.54,2.66-19.08,4.51-28.55.16-.82.42-1.63.58-2.45.59-3,1.78-4.32,5.44-4.83,24.68-3.44,49.39-6.86,72.51-17.14a343.07,343.07,0,0,0,45.57-24.63c15.57-10,30.27-21.12,45.07-32.17C380,527.77,383.8,525,388.34,521.63Z"/></g></g></svg>