<svg xmlns="http://www.w3.org/2000/svg" viewBox="0 0 1000 1000"><defs><style>.cls-1{fill:#b788e7;}.cls-2{fill:#2b2136;}</style></defs><title>Fichier 3</title><g id="Calque_2" data-name="Calque 2"><g id="Calque_1-2" data-name="Calque 1"><path class="cls-1" d="M1,1H1001q0,500,0,1000H1Q1,501,1,1ZM76.06,926.85H926.8V76.32H76.06Z" transform="translate(-1 -1)"/><path class="cls-2" d="M76.06,926.85V76.32H926.8V926.85Zm441.18-213c-.38-1.41-.55-2.2-.8-3q-32.92-101.48-65.85-203-36.21-111.37-72.4-222.75c-1.27-3.94-3-5.05-7-5-29.49.15-59,.08-88.47.08-7.86,0-7.85,0-10.16,7.79-.75,2.54-1.56,5.05-2.37,7.57Q204.83,499.75,139.48,703.92c-1,3.18-2.85,6.25-2.62,9.84h81.59c.5-1.49,1-2.73,1.34-4,11.42-37.69,22.92-75.36,34.16-113.1,1.28-4.3,3.13-5.54,7.58-5.51,31.66.22,63.31.12,95,.12h36.35L432,713.86Zm136.3-134.19h6.74q98.74,0,197.48.14c4.74,0,6.08-1.66,6.26-5.88.23-5.32,1-10.61,1.26-15.92,1.77-37.66-4.17-73.62-24.12-106.34-14.46-23.71-34.56-40.6-60.89-49.94-23.15-8.21-46.89-9.48-71.09-6.79-31.33,3.49-58.6,15.83-81.71,37.22-8.18,7.57-14.7,16.58-20.71,25.91-20.28,31.52-29.45,66.19-29.55,103.55a191.33,191.33,0,0,0,5.9,49.25c7.36,28.1,20.26,53,42.71,72.33a143.13,143.13,0,0,0,38.64,23.76c28.23,11.77,57.8,14.7,88.08,13.42,31.3-1.33,61.84-6.31,91.32-17.19,3.36-1.24,4.55-2.37,3.53-6.4-2.59-10.21-4.34-20.62-6.49-30.94-1.33-6.39-2.78-12.75-4.19-19.2a21.08,21.08,0,0,0-2.51.52c-28.87,10.57-58.8,13.92-89.34,13.15-19.81-.5-38.67-4.64-55.6-15.31C665.58,630.06,654.62,608,653.55,579.67Z" transform="translate(-1 -1)"/><path class="cls-1" d="M517.24,713.86H432l-39.2-122.58H356.49c-31.66,0-63.31.1-95-.12-4.44,0-6.3,1.21-7.58,5.51-11.24,37.74-22.73,75.41-34.16,113.1-.38,1.26-.84,2.5-1.34,4H136.86c-.23-3.59,1.6-6.67,2.62-9.84q65.3-204.19,130.75-408.32c.81-2.52,1.62-5,2.37-7.57,2.31-7.8,2.3-7.79,10.16-7.79,29.49,0,59,.07,88.47-.08,3.94,0,5.69,1.09,7,5q36,111.43,72.4,222.75,33,101.46,65.85,203C516.69,711.66,516.87,712.45,517.24,713.86ZM379.14,531.2c-19.24-62.51-41.38-123.53-56.28-187-13.4,63.73-35.13,124.82-54.09,187Z" transform="translate(-1 -1)"/><path class="cls-1" d="M653.55,579.67c1.07,28.33,12,50.39,35.71,65.32,16.93,10.67,35.79,14.81,55.6,15.31,30.54.77,60.47-2.57,89.34-13.15a21.08,21.08,0,0,1,2.51-.52c1.41,6.45,2.86,12.81,4.19,19.2,2.15,10.32,3.9,20.74,6.49,30.94,1,4-.17,5.16-3.53,6.4-29.48,10.88-60,15.86-91.32,17.19-30.28,1.28-59.85-1.65-88.08-13.42a143.13,143.13,0,0,1-38.64-23.76c-22.45-19.33-35.34-44.23-42.71-72.33a191.33,191.33,0,0,1-5.9-49.25c.1-37.36,9.27-72,29.55-103.55,6-9.33,12.53-18.34,20.71-25.91,23.11-21.39,50.37-33.73,81.71-37.22,24.2-2.7,47.94-1.43,71.09,6.79,26.33,9.34,46.43,26.23,60.89,49.94,20,32.72,25.89,68.67,24.12,106.34-.25,5.32-1,10.61-1.26,15.92-.18,4.23-1.51,5.9-6.26,5.88q-98.74-.28-197.48-.14Zm137.62-55.76c-.39-4.87-.56-9.19-1.1-13.46-2.27-17.93-8-34.47-21.55-47.08-20.83-19.35-57.17-20.83-81-3.62-17.19,12.42-26.37,30-31.51,50-1.17,4.57-2.59,9.2-2,14.16Z" transform="translate(-1 -1)"/><path class="cls-2" d="M379.14,531.2H268.77c19-62.2,40.69-123.29,54.09-187C337.77,407.68,359.9,468.69,379.14,531.2Z" transform="translate(-1 -1)"/><path class="cls-2" d="M791.16,523.91H654c-.57-5,.85-9.6,2-14.16,5.14-20,14.32-37.58,31.51-50,23.81-17.21,60.15-15.73,81,3.62,13.58,12.62,19.28,29.15,21.55,47.08C790.6,514.72,790.77,519,791.16,523.91Z" transform="translate(-1 -1)"/></g></g></svg>