<svg xmlns="http://www.w3.org/2000/svg" viewBox="0 0 266.02 258.26"><defs><style>.cls-1{fill:#2391c0;}.cls-2{fill:#459cc1;}.cls-3{fill:#d2d2d2;}.cls-4{fill:#fcfcfc;}.cls-5{fill:#2d2d2d;}.cls-6{fill:#b4b4b4;}.cls-7{fill:#989898;}</style></defs><title>Fichier 5</title><g id="Calque_2" data-name="Calque 2"><g id="Calque_1-2" data-name="Calque 1"><path class="cls-1" d="M0,207.84V189.12a2.8,2.8,0,0,0,.23-1.64q0-65.93,0-131.87c0-.47.1-1-.25-1.38V52.56c.27-.13.23-.4.23-.63A37.22,37.22,0,0,1,1,45.29C4.06,30.12,11.72,17.86,24.44,9A49,49,0,0,1,53.13,0Q133,0,213,0a46.31,46.31,0,0,1,22.15,5.25c19.86,10.61,30.44,27.5,30.65,49.8.46,49.07.13,98.15.18,147.23a55.1,55.1,0,0,1-1.72,14c-4.36,16.8-14.14,29.33-29.7,37.13a45.62,45.62,0,0,1-20.7,4.85q-81.24,0-162.47,0a38.28,38.28,0,0,1-9.31-1.09c-16.11-4-27.82-13.69-35.56-28.25A50.24,50.24,0,0,1,.93,212.4C.71,210.87.31,209.36,0,207.84ZM32.92,57.11c-.31.15-.14.35-.05.55a5.5,5.5,0,0,0-.16.93q0,14.83,0,29.66c0,.56-.06,1.12-.06,1.67q0,50.63,0,101.26c0,1.43.05,2.86.19,4.29A29,29,0,0,0,36.26,207a27,27,0,0,0,7.41,8.78A24.6,24.6,0,0,0,58.57,221q74.27.08,148.53,0a23.25,23.25,0,0,0,5.06-.61,25.44,25.44,0,0,0,15.49-10.22,27.93,27.93,0,0,0,5.53-16.47q.14-51.83.07-103.66c0-.52,0-1-.06-1.55-.22-10.51.55-21-.38-31.55a27.45,27.45,0,0,0-2.36-9.69c-4.88-10.07-13-15.54-24.16-15.56-48.88-.11-97.75,0-146.63-.05a26.72,26.72,0,0,0-8.93,1.48A25.58,25.58,0,0,0,36.25,45.75,26.31,26.31,0,0,0,32.92,57.11Z"/><path class="cls-2" d="M0,54.24c.36.41.25.91.25,1.38q0,65.93,0,131.87A2.8,2.8,0,0,1,0,189.12Z"/><path class="cls-3" d="M233.19,88.49c0,.52.06,1,.06,1.55q0,51.83-.07,103.66a27.93,27.93,0,0,1-5.53,16.47,25.44,25.44,0,0,1-15.49,10.22,23.25,23.25,0,0,1-5.06.61q-74.27,0-148.53,0a24.6,24.6,0,0,1-14.91-5.25A27,27,0,0,1,36.26,207a29,29,0,0,1-3.37-11.49c-.13-1.44-.19-2.86-.19-4.29q0-50.63,0-101.26c0-.56,0-1.12.06-1.67,1.11-.05,2.23-.14,3.34-.15,1.56,0,3.09.36,4.66.23a31.38,31.38,0,0,1,4.39,0c2.71.15,2.72.13,3.23-2.57a68.6,68.6,0,0,0,.81-9.29c.29-5.3.54-10.6.65-15.91a8,8,0,0,1,1.62-5.28,7,7,0,0,1,5.64-2.42c5.12,0,10.23,0,15.35,0H92.68c9.56,0,19.12,0,28.68,0a7.65,7.65,0,0,1,4.37,1c2.42,1.59,3.07,4.07,3.1,6.66.07,5.75.52,11.48.79,17.22.11,2.43.33,4.86.66,7.26.42,3,.5,2.91,3.56,3.21,1.25.12,1.56-.4,1.76-1.36.3-1.45.38-2.93.57-4.39.57-4.36.53-8.76.84-13.13.2-2.82.4-5.66.32-8.5a11.55,11.55,0,0,1,.35-3c.76-3.19,3.31-5,7-5q15.84,0,31.68,0,16.5,0,33,0a6.42,6.42,0,0,1,6.75,5.68c.69,3.68.28,7.41.61,11.11s.32,7.49.55,11.24c.13,2,.43,4,.73,6.06.2,1.39.71,1.62,2.13,1.58,1.94,0,3.89,0,5.83,0C228.34,88.6,230.76,88.38,233.19,88.49ZM212.66,56.87l-.1-1.79H141.15l-.2,2.72c-.66.1-.76.67-.88,1.15a13,13,0,0,0-.4,3c0,2.88,0,5.76,0,8.64,0,3.11.09,6.22,0,9.32-.08,1.83-.24,3.67-.19,5.5.1,3.61,1.57,5.44,4.79,6a10.82,10.82,0,0,0,1.79.08h27.35c.4,0,.8,0,1.2,0,2.77.13,4,1.39,4,4.15,0,3-.17,6.07-.18,9.1,0,4.75,0,9.5-.16,14.24-.13,5.22-.42,10.45-.57,15.67-.22,7.26,0,14.53-.28,21.79-.09,2.07-1,3.08-3.07,3.17-.4,0-.8,0-1.2,0q-14.22,0-28.43,0c-3.17,0-5.79,1.66-6.47,4.33a18.1,18.1,0,0,0-.66,4.85c.19,9-.4,18.06.32,27.09a6.32,6.32,0,0,0,3.85,5.58c2,1,4.16.6,6.24.61,17.92.07,35.83,0,53.75,0a62.29,62.29,0,0,0,7.3-.23c2.25-.26,4.32-.78,5.65-2.86a8.33,8.33,0,0,0,1.13-4.71c-.13-16.34.39-32.69-.44-49-.19-3.69-.11-7.4-.2-11.1-.18-7.71-.32-15.41-.52-23.12-.26-10.31.11-20.62-.24-30.94-.21-6.27-.45-12.54-.29-18.82a2.43,2.43,0,0,0,0-.6C213.76,59.36,213.89,57.87,212.66,56.87ZM53.31,56.6a4.23,4.23,0,0,0-1,2.27c0,1.32-.18,2.63-.21,3.94-.13,6,.1,11.91-.27,17.86-.06,1,.37,1.9.2,2.86-.48,2.73-.25,5.5-.38,8.25-.3,5.94.1,11.91-.29,17.86-.2,3.11,0,6.22-.2,9.34-.29,5.06,0,10.13-.46,15.2-.43,4.68.05,9.42-.28,14.14-.26,3.74-.18,7.5-.22,11.24-.14,11.88-.06,23.76,0,35.63a7,7,0,0,0,1.25,4.19c1.51,2.1,3.67,2.7,6.09,2.7h54c3.32,0,6.64,0,10,0,2.62,0,4.9-.86,6.2-3.34a10,10,0,0,0,1-4.66c.05-8.92.08-17.84,0-26.75,0-1.94-.18-3.91-1.69-5.59-1.83-2-4.16-2.28-6.54-2.36-3.63-.11-7.27,0-10.9,0-5,0-10.07,0-15.1,0-2.29,0-3.33-1-3.37-3.37-.08-5.11-.12-10.21-.22-15.32-.15-7.43-.21-14.85-.45-22.28C90.12,112.21,90,106,90,99.81a28.62,28.62,0,0,0-.18-3.35c-.3-2.61.82-4.88,4.23-4.82,8.4.13,16.8,0,25.19,0a16.58,16.58,0,0,0,4.15-.55,3.84,3.84,0,0,0,2.81-2.54,13.6,13.6,0,0,0,.75-4.23c.07-2.12-.16-4.23-.2-6.34-.09-5.87.06-11.75-.3-17.62-.07-1.17.07-2.53-1.25-3.26-.22-.68.06-1.43-.26-2.1H53.62C53.46,55.59,53.69,56.16,53.31,56.6Z"/><path class="cls-4" d="M233.19,88.49c-2.43-.1-4.85.11-7.28,0-1.94-.07-3.89-.08-5.83,0-1.42,0-1.93-.19-2.13-1.58-.29-2-.6-4-.73-6.06-.24-3.74-.21-7.51-.55-11.24s.07-7.43-.61-11.11a6.42,6.42,0,0,0-6.75-5.68q-16.5,0-33,0-15.84,0-31.68,0c-3.65,0-6.2,1.85-7,5a11.55,11.55,0,0,0-.35,3c.08,2.84-.12,5.68-.32,8.5-.31,4.38-.27,8.77-.84,13.13-.19,1.46-.27,2.94-.57,4.39-.2,1-.51,1.48-1.76,1.36-3.06-.3-3.15-.2-3.56-3.21-.33-2.41-.55-4.84-.66-7.26-.27-5.74-.72-11.47-.79-17.22,0-2.59-.68-5.07-3.1-6.66a7.65,7.65,0,0,0-4.37-1c-9.56,0-19.12,0-28.68,0H72.41c-5.12,0-10.23,0-15.35,0a7,7,0,0,0-5.64,2.42,8,8,0,0,0-1.62,5.28c-.11,5.31-.36,10.61-.65,15.91a68.6,68.6,0,0,1-.81,9.29c-.52,2.69-.53,2.72-3.23,2.57a31.38,31.38,0,0,0-4.39,0c-1.57.13-3.11-.23-4.66-.23-1.12,0-2.23.1-3.34.15q0-14.83,0-29.66a5.5,5.5,0,0,1,.16-.93c.23-.16.26-.34.05-.55a26.31,26.31,0,0,1,3.34-11.36A25.58,25.58,0,0,1,50.72,33.11a26.72,26.72,0,0,1,8.93-1.48c48.88,0,97.76-.06,146.63.05,11.19,0,19.29,5.49,24.16,15.56a27.45,27.45,0,0,1,2.36,9.69C233.74,67.45,233,78,233.19,88.49Z"/><path class="cls-3" d="M32.92,57.11c.2.2.17.38-.05.55C32.77,57.46,32.6,57.26,32.92,57.11Z"/><path class="cls-5" d="M53.31,56.6c.38-.44.15-1,.31-1.56H125c.32.67,0,1.42.26,2.1a2.6,2.6,0,0,0,0,1.4,7.2,7.2,0,0,0-.12.94q0,14,0,27.93a8.33,8.33,0,0,0,.11.94l-.16.21-33.93.06c-3.18,0-3.22,0-3.22,3.27q0,33.94.06,67.87c0,1.62,0,1.65,1.64,1.65l30.1,0c1,0,2,0,3-.06a11.56,11.56,0,0,0,1.54,0c.8-.09,1.06.31,1,1,0,.4-.07.79-.07,1.19q0,16.08,0,32.15a3.19,3.19,0,0,1-.21,1.69H53.48c0-1,0-1.88,0-2.75q0-67,.09-134c0-.56,0-1.12-.06-1.67C53.12,58.25,54,57.36,53.31,56.6Z"/><path class="cls-5" d="M140.94,57.8l.2-2.72h71.42l.1,1.79q0,5.52,0,11c0,3.56-.06,7.11-.06,10.67q0,58.13.07,116.26c0,.87,0,1.73,0,2.64H141c0-.62,0-1.09,0-1.57q0-16,0-32c0-.48,0-1-.07-1.43l0-.65,0-.33,2.33-.06a1.24,1.24,0,0,0,.24,0q17.81,0,35.63,0c1,0,1.35-.37,1.35-1.41,0-13.19,0-26.39,0-39.58q0-15.05,0-30.11c0-1.67-.06-1.69-1.77-1.69l-36.47-.08c-.3,0-.65-.12-.88.21-.55-.24-.18-.78-.38-1.13a8.32,8.32,0,0,0,.11-.94q0-13.06,0-26.12A9.47,9.47,0,0,0,141,59.5,3.17,3.17,0,0,0,140.94,57.8Z"/><path class="cls-6" d="M125,88.55l.16-.21a4.84,4.84,0,0,0,.79-3.05c.09-8.29-.13-16.58-.25-24.87a2.44,2.44,0,0,0-.57-1.89,2.6,2.6,0,0,1,0-1.4c1.32.74,1.18,2.09,1.25,3.26.36,5.87.21,11.74.3,17.62,0,2.11.27,4.22.2,6.34a13.6,13.6,0,0,1-.75,4.23,3.84,3.84,0,0,1-2.81,2.54,16.58,16.58,0,0,1-4.15.55c-8.4,0-16.8.09-25.19,0-3.41-.05-4.54,2.22-4.23,4.82A28.62,28.62,0,0,1,90,99.81c0,6.19.12,12.39.32,18.58.24,7.43.3,14.85.45,22.28.11,5.11.14,10.21.22,15.32,0,2.41,1.07,3.38,3.37,3.37,5,0,10.07,0,15.1,0,3.63,0,7.27-.09,10.9,0,2.39.07,4.71.33,6.54,2.36,1.51,1.68,1.67,3.65,1.69,5.59.1,8.92.07,17.84,0,26.75a10,10,0,0,1-1,4.66c-1.31,2.48-3.58,3.3-6.2,3.34-3.32,0-6.64,0-10,0h-54c-2.42,0-4.58-.61-6.09-2.7a7,7,0,0,1-1.25-4.19c0-11.88-.11-23.76,0-35.63,0-3.75,0-7.51.22-11.24.33-4.72-.16-9.45.28-14.14.47-5.08.17-10.15.46-15.2.18-3.12,0-6.24.2-9.34.39-6,0-11.91.29-17.86.14-2.75-.1-5.52.38-8.25.17-1-.26-1.9-.2-2.86.37-5.95.14-11.91.27-17.86,0-1.31.2-2.62.21-3.94a4.23,4.23,0,0,1,1-2.27c.72.76-.19,1.65.2,2.44-.66.34-.45,1-.46,1.5-.15,6.39,0,12.78-.19,19.18-.27,7.17,0,14.36-.3,21.53-.2,4.74.07,9.49-.19,14.24-.3,5.65-.2,11.32-.3,17-.1,5.39.15,10.78-.2,16.18-.26,4-.15,8-.22,12-.17,10.75-.06,21.51-.05,32.27a15.12,15.12,0,0,0,.6,4.14A4.24,4.24,0,0,0,55,200a12.13,12.13,0,0,0,4.23.68h60.22c.32,0,.64,0,1,0,4.36-.25,6.51-2.06,6.54-5.9.08-9.4.06-18.79,0-28.19a5.18,5.18,0,0,0-1.67-4.09c0-.71-.24-1.1-1-1a11.56,11.56,0,0,1-1.54,0,2.47,2.47,0,0,0-2.11-.59H101.49c-2.68,0-5.36,0-8,0-2.24,0-3.46-1.37-3.74-3.54a71,71,0,0,1-.16-9.32c0-5.67-.25-11.34-.29-17q-.07-10.9-.26-21.8c0-1,.06-2.08,0-3.09-.33-3.23,0-6.47-.2-9.7s1.71-5.73,5.63-5.67c8.63.12,17.26,0,25.9,0a8.62,8.62,0,0,0,3.71-.82A1.47,1.47,0,0,0,125,88.55Z"/><path class="cls-6" d="M140.91,161.8l0,.65a5.31,5.31,0,0,0-1.69,4.33c-.05,9.32-.07,18.63,0,27.95,0,3.49,1.69,5.17,5.1,5.7a20.08,20.08,0,0,0,3.1.22q29.51,0,59,0a17.44,17.44,0,0,0,4-.43,4.58,4.58,0,0,0,3.65-3.68,16.8,16.8,0,0,0,.43-3.92c-.17-17.58.25-35.16-.42-52.74-.33-8.65-.16-17.33-.5-26-.25-6.34-.13-12.7-.21-19.05-.11-8.55-.31-17.1-.31-25.65,0-.46.12-1-.44-1.27v-11c1.23,1,1.09,2.49,1.4,3.82a2.43,2.43,0,0,1,0,.6c-.16,6.28.08,12.55.29,18.82.35,10.31,0,20.63.24,30.94.19,7.71.33,15.41.52,23.12.09,3.7,0,7.4.2,11.1.82,16.34.3,32.69.44,49a8.33,8.33,0,0,1-1.13,4.71c-1.33,2.08-3.41,2.59-5.65,2.86a62.29,62.29,0,0,1-7.3.23c-17.92,0-35.83,0-53.75,0-2.07,0-4.25.34-6.24-.61a6.32,6.32,0,0,1-3.85-5.58c-.73-9-.13-18.06-.32-27.09a18.1,18.1,0,0,1,.66-4.85c.69-2.67,3.3-4.33,6.47-4.33q14.22,0,28.43,0c.4,0,.8,0,1.2,0,2.09-.09,3-1.1,3.07-3.17.33-7.26.07-14.53.28-21.79.16-5.22.45-10.45.57-15.67.12-4.74.13-9.49.16-14.24,0-3,.19-6.07.18-9.1,0-2.76-1.22-4-4-4.15-.4,0-.8,0-1.2,0H146a10.82,10.82,0,0,1-1.79-.08c-3.22-.55-4.69-2.38-4.79-6-.05-1.84.11-3.67.19-5.5.13-3.1,0-6.22,0-9.32,0-2.88,0-5.76,0-8.64a13,13,0,0,1,.4-3c.11-.49.21-1.05.88-1.15A3.17,3.17,0,0,1,141,59.5a7.48,7.48,0,0,0-.57,3.58c0,4.51,0,9,0,13.52,0,2.59.06,5.17-.1,7.77-.07,1-.28,2.34.68,3.27.2.35-.17.9.38,1.13a2.36,2.36,0,0,0,1.5,1.28,11.93,11.93,0,0,0,4,.66q14.1,0,28.19,0c3,0,4.51,1.56,4.49,4.53,0,5,.09,10.07-.2,15.1-.25,4.42,0,8.86-.22,13.3-.28,5.5,0,11-.25,16.54-.2,4.83-.06,9.68,0,14.51a16.45,16.45,0,0,1-.29,3.1,3.24,3.24,0,0,1-2.5,2.76,8.74,8.74,0,0,1-2.25.26H145.22c-.7,0-1.47-.14-2,.59l-2.33.06C140.72,161.56,140.64,161.67,140.91,161.8Z"/><path class="cls-7" d="M125.25,162.45a5.18,5.18,0,0,1,1.67,4.09c.06,9.4.08,18.79,0,28.19,0,3.84-2.18,5.65-6.54,5.9-.32,0-.64,0-1,0H59.21A12.13,12.13,0,0,1,55,200,4.24,4.24,0,0,1,52.21,197a15.12,15.12,0,0,1-.6-4.14c0-10.76-.11-21.51.05-32.27.06-4,0-8,.22-12,.35-5.4.1-10.79.2-16.18.11-5.66,0-11.33.3-17,.26-4.75,0-9.5.19-14.24.3-7.18,0-14.36.3-21.53.24-6.4,0-12.79.19-19.18,0-.53-.2-1.15.46-1.5,0,.56.06,1.12.06,1.67q0,67-.09,134c0,.87,0,1.75,0,2.75H125a3.19,3.19,0,0,0,.21-1.69q0-16.08,0-32.15C125.18,163.24,125.22,162.85,125.25,162.45Z"/><path class="cls-7" d="M125,88.55a1.47,1.47,0,0,1-1,1.34,8.62,8.62,0,0,1-3.71.82c-8.63,0-17.27.08-25.9,0-3.91-.06-5.82,2.46-5.63,5.67s-.13,6.46.2,9.7c.1,1,0,2.06,0,3.09q.17,10.9.26,21.8c0,5.67.31,11.34.29,17a71,71,0,0,0,.16,9.32c.28,2.17,1.5,3.51,3.74,3.54,2.68,0,5.36,0,8,0h19.06a2.47,2.47,0,0,1,2.11.59c-1,0-2,.06-3,.06l-30.1,0c-1.62,0-1.64,0-1.64-1.65q0-33.94-.06-67.87c0-3.25,0-3.27,3.22-3.27Z"/><path class="cls-7" d="M125.17,58.54a2.44,2.44,0,0,1,.57,1.89c.12,8.29.34,16.58.25,24.87a4.84,4.84,0,0,1-.79,3.05,8.33,8.33,0,0,1-.11-.94q0-14,0-27.93A7.2,7.2,0,0,1,125.17,58.54Z"/><path class="cls-7" d="M212.67,67.91c.56.28.44.8.44,1.27,0,8.55.2,17.1.31,25.65.08,6.35,0,12.71.21,19.05.34,8.66.17,17.34.5,26,.67,17.58.25,35.16.42,52.74a16.8,16.8,0,0,1-.43,3.92,4.58,4.58,0,0,1-3.65,3.68,17.44,17.44,0,0,1-4,.43q-29.51,0-59,0a20.08,20.08,0,0,1-3.1-.22c-3.41-.53-5.07-2.21-5.1-5.7-.07-9.31-.05-18.63,0-27.95a5.31,5.31,0,0,1,1.69-4.33c0,.48.07,1,.07,1.43q0,16,0,32c0,.48,0,1,0,1.57h71.7c0-.9,0-1.77,0-2.64q0-58.13-.07-116.26C212.61,75,212.65,71.47,212.67,67.91Z"/><path class="cls-7" d="M143.26,161.4c.49-.73,1.26-.59,2-.59h28.55a8.74,8.74,0,0,0,2.25-.26,3.24,3.24,0,0,0,2.5-2.76,16.45,16.45,0,0,0,.29-3.1c0-4.84-.16-9.68,0-14.51.23-5.52,0-11,.25-16.54.23-4.44,0-8.88.22-13.3.29-5,.15-10.07.2-15.1,0-3-1.52-4.53-4.49-4.53q-14.1,0-28.19,0a11.93,11.93,0,0,1-4-.66,2.36,2.36,0,0,1-1.5-1.28c.23-.33.58-.21.88-.21l36.47.08c1.7,0,1.76,0,1.77,1.69q0,15.05,0,30.11c0,13.19,0,26.39,0,39.58,0,1-.31,1.41-1.35,1.41q-17.81,0-35.63,0A1.24,1.24,0,0,1,143.26,161.4Z"/><path class="cls-7" d="M141,87.63c-1-.93-.74-2.22-.68-3.27.16-2.59.07-5.18.1-7.77,0-4.51,0-9,0-13.52A7.48,7.48,0,0,1,141,59.5a9.48,9.48,0,0,1,.12,1.06q0,13.06,0,26.12A8.32,8.32,0,0,1,141,87.63Z"/><path class="cls-7" d="M140.91,161.8c-.26-.13-.19-.23,0-.33Z"/></g></g></svg>