<svg xmlns="http://www.w3.org/2000/svg" viewBox="0 0 815.34 739.48"><defs><style>.cls-1{fill:#352968;}.cls-2{fill:#ce7815;}.cls-3{fill:#d3a570;}</style></defs><title>Fichier 4</title><g id="Calque_2" data-name="Calque 2"><g id="Calque_1-2" data-name="Calque 1"><path class="cls-1" d="M103.09,533.12H803.87C763,663,628.14,794,433.1,784.82,271.7,777.19,143.79,664.09,103.09,533.12Z" transform="translate(-7.37 -45.8)"/><path class="cls-1" d="M103.12,297.79C143.78,169.39,266.19,60,421.11,47.21,515.54,39.43,601.35,63.79,677.19,121c60.48,45.58,102.12,105,127.18,176.84Z" transform="translate(-7.37 -45.8)"/><path class="cls-2" d="M397.75,784.32a316,316,0,0,1-61.36-1.57C265.61,774.48,202,748.52,146.49,703.8,81.77,651.69,39.06,585.11,19,504.47-.89,424.79,4.4,346.24,37.59,271.32,91.81,148.93,186.1,75.57,317.89,51c23.83-4.45,48-5.51,72.19-4.78,2,.06,4,.24,6,.41,1,.09,1.93.31,3.84.62-10.53,1.54-20.08,2.82-29.6,4.36-9.7,1.57-19.3,3.73-28.8,6.26Q224.76,88.94,148,182.21c-18.06,21.93-32.95,45.89-45.59,71.32-22,44.18-33.17,91.08-36.55,140.12A335.81,335.81,0,0,0,67.35,457c7.39,61.14,27.91,117.66,63.35,168.22q81.91,116.85,221,150.09A350.84,350.84,0,0,0,398,783Z" transform="translate(-7.37 -45.8)"/><path class="cls-1" d="M816.62,345.22a355.24,355.24,0,0,1,6.09,47.62H84.25a358.28,358.28,0,0,1,6-47.62Z" transform="translate(-7.37 -45.8)"/><path class="cls-1" d="M822.41,440.13a312.73,312.73,0,0,1-5.74,45.81H90.27c-2.94-15-5.22-30.17-5.73-45.81Z" transform="translate(-7.37 -45.8)"/><path class="cls-3" d="M397.75,784.32,398,783a12.71,12.71,0,0,1,6.76.43C402.2,784.69,400.07,785.15,397.75,784.32Z" transform="translate(-7.37 -45.8)"/></g></g></svg>