<svg xmlns="http://www.w3.org/2000/svg" viewBox="0 0 494.46 493.86"><defs><style>.cls-1{fill:#1d1d1b;}.cls-2{fill:#b4b4b3;}.cls-3{fill:#747473;}.cls-4{fill:#8bd048;}.cls-5{fill:#6ea439;}</style></defs><title>Fichier 6</title><g id="Calque_2" data-name="Calque 2"><g id="Calque_1-2" data-name="Calque 1"><path class="cls-1" d="M391.16,494.72h-287a17.9,17.9,0,0,0-5.3-.45l-2.38,0c-1.42-.19-2.85-.36-4.27-.58A107.56,107.56,0,0,1,2.7,406.38c-.84-4.57-1.19-9.18-1.62-13.79.34-2.39,0-4.77,0-7.16q0-120.88,0-241.76c0-11.43,0-22.86,0-34.3,0-2.15.45-4.29.08-6.44.07-.63.17-1.27.2-1.9A98,98,0,0,1,4.48,81.17,107.24,107.24,0,0,1,108.1.91Q248,.77,387.94.9a106,106,0,0,1,32.1,5c45.51,14.4,75.2,57.07,74.86,102.36-.27,36.4-.06,72.8-.06,109.2q0,85,0,169.92a102,102,0,0,1-1.6,19.33c-5.25,27.39-18.93,49.65-41.11,66.56a105.75,105.75,0,0,1-52.82,21,11.64,11.64,0,0,0-3.29.14A15,15,0,0,0,391.16,494.72ZM210.38,112.1H179a15.14,15.14,0,0,0-13.18,7c-.63.92-1.19,1.9-1.75,2.87L96.44,239.44c-1,1.73-2,3.47-2.92,5.24a6.58,6.58,0,0,0,.1,6.65c.7,1.26,1.42,2.51,2.14,3.75l40.63,70.44q10.85,18.8,21.7,37.6c6.11,10.51,15.24,16.84,27.13,19.16a93.85,93.85,0,0,0,20.3,1.32c6.15-.15,12.31-.34,18.46,0a8.38,8.38,0,0,0,8.27-4.27c.37-.62.73-1.24,1.09-1.86q15.88-28.09,32.2-55.92a19.71,19.71,0,0,0,1.31-2.56c.57-1.41.24-2-1.24-2.48a10.76,10.76,0,0,0-3.33-.27c-15.92,0-31.83,0-47.75.12a10.2,10.2,0,0,1-9.36-5.17c-.42-.68-.81-1.38-1.2-2.07-7-12.56-14-25.13-21.34-37.53q-4.2-7.13-8.51-14.2a17.66,17.66,0,0,1-3-10.43,19,19,0,0,1,2.89-8.54c16.68-28.5,33.11-57.14,49.6-85.75q10.18-17.66,20.4-35.31c2.36-4.07,2.53-5.34-3-5.28C230.86,112.18,220.62,112.1,210.38,112.1Zm75.52,271.37c8.92.15,19.31-.28,29.71.16a15.84,15.84,0,0,0,14.6-7.63c.66-1,1.27-2,1.87-3.07Q366.28,313.46,400.54,254c2.56-4.43,2.58-8,0-12.4Q369.75,189,339.68,136.05a52.22,52.22,0,0,0-8.16-11.22c-8.31-8.41-18.63-12.25-30.23-12.6-10.23-.31-20.47-.1-30.71-.13a7.71,7.71,0,0,0-5.3,1.88,12.59,12.59,0,0,0-2.53,3.47q-15.92,28.2-32.3,56.13a23.71,23.71,0,0,0-1.61,3.21c-.53,1.33-.08,2.19,1.31,2.47a17,17,0,0,0,3.34.24c15.52,0,31,0,46.55-.16a11.7,11.7,0,0,1,11.17,6.45c10.51,18.86,21.37,37.52,32.33,56.12a10.64,10.64,0,0,1,0,11.77c-1.67,2.73-3.28,5.49-4.88,8.26q-22.71,39.38-45.4,78.76-10.71,18.6-21.39,37.23a29.57,29.57,0,0,0-1.77,3.4c-.49,1.2-.1,1.81,1.21,2a23.6,23.6,0,0,0,3.11.14ZM50.72,112.12v0c-10.56,0-21.12,0-31.68,0-4.16,0-4.74,1.08-2.68,4.7q8.16,14.27,16.34,28.52,22,38.27,44,76.54c1.2,2.08,2.34,4.19,3.66,6.2,1.16,1.77,2.33,1.75,3.56.07a29,29,0,0,0,1.65-2.65c10.75-18.63,21.45-37.3,32.27-55.89,2.12-3.65,2.17-6.95,0-10.58Q106.52,140,95.62,120.67c-3.22-5.73-8-8.67-14.67-8.58C70.88,112.22,60.8,112.12,50.72,112.12Zm394.2,271.32v0c10.64,0,21.28,0,31.92,0,4.22,0,4.75-1,2.64-4.65l-10.07-17.45L418.52,273c-1.08-1.87-2.12-3.76-3.31-5.56s-2.31-1.85-3.64.06c-.37.52-.69,1.08-1,1.64-3.41,6-6.81,12-10.24,17.91-7.47,13-14.87,25.95-22.48,38.82-2.27,3.84-2.15,7.13.11,10.93q11.33,19.08,22.25,38.4c3.16,5.6,7.59,8.33,14,8.26C424.44,383.36,434.68,383.44,444.92,383.44Z" transform="translate(-0.44 -0.86)"/><path class="cls-2" d="M1.08,392.59l-.64-.11Q.44,247.76.44,103l.67-.11c.37,2.15-.09,4.29-.08,6.44.05,11.43,0,22.86,0,34.3q0,120.88,0,241.76C1,387.82,1.42,390.2,1.08,392.59Z" transform="translate(-0.44 -0.86)"/><path class="cls-3" d="M98.82,494.27a17.9,17.9,0,0,1,5.3.45H98.84A.63.63,0,0,0,98.82,494.27Z" transform="translate(-0.44 -0.86)"/><path class="cls-3" d="M391.16,494.72a15,15,0,0,1,4.88-.32.36.36,0,0,1-.08.32Z" transform="translate(-0.44 -0.86)"/><path class="cls-2" d="M396,494.72a.36.36,0,0,0,.08-.32,11.64,11.64,0,0,1,3.29-.14.64.64,0,0,0,0,.47Z" transform="translate(-0.44 -0.86)"/><path class="cls-2" d="M98.82,494.27a.63.63,0,0,1,0,.45h-2.4v-.48Z" transform="translate(-0.44 -0.86)"/><path class="cls-4" d="M210.38,112.1c10.24,0,20.48.07,30.71,0,5.5-.06,5.32,1.22,3,5.28q-10.23,17.64-20.4,35.31c-16.49,28.61-32.92,57.26-49.6,85.75a19,19,0,0,0-2.89,8.54,17.66,17.66,0,0,0,3,10.43q4.3,7.07,8.51,14.2c7.3,12.4,14.3,25,21.34,37.53.39.7.78,1.4,1.2,2.07a10.2,10.2,0,0,0,9.36,5.17c15.91-.12,31.83-.09,47.75-.12a10.76,10.76,0,0,1,3.33.27c1.48.47,1.82,1.07,1.24,2.48a19.71,19.71,0,0,1-1.31,2.56q-16.37,27.8-32.2,55.92c-.35.63-.72,1.24-1.09,1.86A8.38,8.38,0,0,1,224,383.6c-6.16-.36-12.31-.17-18.46,0a93.85,93.85,0,0,1-20.3-1.32c-11.89-2.32-21-8.65-27.13-19.16q-10.9-18.77-21.7-37.6L95.76,255.07c-.72-1.25-1.44-2.49-2.14-3.75a6.58,6.58,0,0,1-.1-6.65c.94-1.76,1.92-3.5,2.92-5.24L164,122c.56-1,1.12-1.94,1.75-2.87a15.14,15.14,0,0,1,13.18-7h31.43Z" transform="translate(-0.44 -0.86)"/><path class="cls-4" d="M285.91,383.48H254.44a23.6,23.6,0,0,1-3.11-.14c-1.31-.18-1.71-.79-1.21-2a29.57,29.57,0,0,1,1.77-3.4q10.68-18.62,21.39-37.23Q296,301.33,318.67,262c1.6-2.77,3.21-5.53,4.88-8.26a10.64,10.64,0,0,0,0-11.77c-11-18.6-21.82-37.26-32.33-56.12A11.7,11.7,0,0,0,280,179.35c-15.51.13-31,.13-46.55.16a17,17,0,0,1-3.34-.24c-1.4-.28-1.84-1.14-1.31-2.47a23.71,23.71,0,0,1,1.61-3.21q16.4-27.92,32.3-56.13a12.59,12.59,0,0,1,2.53-3.47,7.71,7.71,0,0,1,5.3-1.88c10.24,0,20.48-.17,30.71.13,11.6.35,21.92,4.19,30.23,12.6a52.22,52.22,0,0,1,8.16,11.22q29.95,53.06,60.85,105.57c2.58,4.42,2.57,8,0,12.4q-34.38,59.37-68.44,118.91c-.6,1-1.21,2.07-1.87,3.07a15.84,15.84,0,0,1-14.6,7.63C305.22,383.2,294.82,383.62,285.91,383.48Z" transform="translate(-0.44 -0.86)"/><path class="cls-5" d="M50.72,112.12c10.08,0,20.16.1,30.24,0,6.71-.09,11.45,2.85,14.67,8.58q10.88,19.34,22.23,38.41c2.15,3.63,2.11,6.92,0,10.58C107,188.25,96.32,206.91,85.57,225.54a29,29,0,0,1-1.65,2.65c-1.23,1.68-2.4,1.7-3.56-.07-1.31-2-2.46-4.12-3.66-6.2q-22-38.27-44-76.54-8.19-14.25-16.34-28.52c-2.07-3.62-1.49-4.69,2.68-4.7,10.56,0,21.12,0,31.68,0Z" transform="translate(-0.44 -0.86)"/><path class="cls-5" d="M444.92,383.44c-10.24,0-20.48-.08-30.72,0-6.42.07-10.85-2.67-14-8.26q-10.9-19.33-22.25-38.4c-2.26-3.8-2.38-7.08-.11-10.93,7.61-12.87,15-25.86,22.48-38.82,3.43-6,6.83-11.94,10.24-17.91.32-.55.64-1.11,1-1.64,1.33-1.9,2.38-2,3.64-.06s2.24,3.69,3.31,5.56l50.89,88.34,10.07,17.45c2.11,3.67,1.58,4.64-2.64,4.65-10.64,0-21.28,0-31.92,0Z" transform="translate(-0.44 -0.86)"/></g></g></svg>