<svg xmlns="http://www.w3.org/2000/svg" viewBox="0 0 480.47 479.58"><defs><style>.cls-1{fill:#22b433;}.cls-2{fill:#2ade3f;}.cls-3{fill:#fefefe;}.cls-4{fill:#16391a;}</style></defs><title>Fichier 7</title><g id="Calque_2" data-name="Calque 2"><g id="Calque_1-2" data-name="Calque 1"><path class="cls-1" d="M480.53,137.12V479.36H.29c0-.65,0-1.16,0-1.67q0-126,0-252,0-48.12,0-96.23c0-.48,0-1,0-1.44,1,.55,1.39-.72,2.22-.85.38.4.63,1,1.44.58a1.94,1.94,0,0,1,1.68.22c1.11.88,2.09.3,3-.16a4.16,4.16,0,0,1,4.3,0c.91.54,2.05,0,2.88.78,0,0,.26,0,.31-.12.71-1.05,1.37-.44,2,.08l1.44-.78c.25-.14.59-.33.76-.06.63,1,1.35.51,1.91.07,1-.81,1.75-.85,2.6.23.34.44,1.12.92,1.31-.28.08-.53.48-.43.82-.47.79-.08,1.33.47,2,.76s1.13.69,1.56.26c.81-.82,1.72-.6,2.65-.56,0,.68.05,1.36.05,2q0,157.8,0,315.6c0,1.84,0,1.84,1.77,1.84H445.81c2.42,0,2.11.31,2.11-2.08q0-153.24,0-306.48c0-.6,0-1.2,0-1.8,2.13.66,4.41-.21,6.52.64a.36.36,0,0,0,.33-.09c.56-.92,1.24-.61,1.95-.22a.65.65,0,0,0,.88-.09c.38-.51.84-.25,1.3-.27.75,0,1.39.89,1.84.6.88-.55,1.7,0,2.4-.21,1.17-.28,2.19-1,3.33,0,1.72-.69,3.57,0,5.38-.63,1.37-.48,3,.52,4.56.46.24,0,.52.3.77.1C478.31,136.3,479.42,137,480.53,137.12Z" transform="translate(-0.07 -0.02)"/><path class="cls-2" d="M33.14,127.75c-.93,0-1.84-.26-2.65.56-.43.43-1,0-1.56-.26s-1.19-.84-2-.76c-.34,0-.74-.06-.82.47-.19,1.2-1,.72-1.31.28-.85-1.08-1.6-1-2.6-.23-.55.44-1.28.94-1.91-.07-.17-.27-.51-.07-.76.06l-1.44.78c-.58-.52-1.24-1.13-2-.08-.05.08-.27.16-.31.12-.83-.74-2-.24-2.88-.78a4.16,4.16,0,0,0-4.3,0c-.9.46-1.88,1-3,.16A1.94,1.94,0,0,0,4,127.74c-.81.38-1.06-.18-1.44-.58-.83.13-1.19,1.4-2.22.85,0-.32,0-.64,0-1Q.29,64.23.3,1.42C.3,1.07.18.7.49.32h480v136.8c-1.11-.16-2.22-.82-3.33,0-.26.2-.54-.11-.77-.1-1.56.05-3.18-.95-4.56-.46-1.82.64-3.66-.06-5.38.63-1.14-1-2.16-.26-3.33,0-.7.17-1.52-.34-2.4.21-.45.29-1.1-.64-1.84-.6-.46,0-.92-.23-1.3.27a.65.65,0,0,1-.88.09c-.71-.38-1.39-.69-1.95.22a.36.36,0,0,1-.33.09c-2.11-.85-4.39,0-6.52-.64,0-.56,0-1.12,0-1.68q0-50.52,0-101c0-.54.16-1.11-.17-1.61H33.17v1.61q0,30.12,0,60.24Q33.16,111.07,33.14,127.75Z" transform="translate(-0.07 -0.02)"/><path class="cls-3" d="M480.53.32H.49C.18.7.3,1.07.3,1.42q0,62.82,0,125.64c0,.32,0,.64,0,1,0,.48,0,1,0,1.44q0,48.12,0,96.23,0,126,0,252c0,.51,0,1,0,1.67H480.53c-.05.07.12.25-.12.24H.07V.08H1.53q239,0,477.92,0C479.81.09,480.27-.18,480.53.32Z" transform="translate(-0.07 -0.02)"/><path class="cls-4" d="M33.14,127.75q0-16.68,0-33.36,0-30.12,0-60.24V32.55H447.73c.33.49.17,1.07.17,1.61q0,50.52,0,101c0,.56,0,1.12,0,1.68s0,1.2,0,1.8q0,153.24,0,306.48c0,2.39.3,2.08-2.11,2.08H34.93c-1.77,0-1.78,0-1.77-1.84q0-157.8,0-315.6C33.19,129.1,33.16,128.43,33.14,127.75ZM197.93,330a1.09,1.09,0,0,0,.95.25q15.18,0,30.36,0a1.18,1.18,0,0,0,1.33-1c.76-2.64,1.57-5.26,2.37-7.89q5.88-19.32,11.74-38.64a1.45,1.45,0,0,1,1.68-1.21q26,0,52,0a1.46,1.46,0,0,1,1.69,1.21c2.73,8.68,5.52,17.35,8.28,26,2.15,6.77,4.31,13.54,6.42,20.32a1.46,1.46,0,0,0,1.69,1.21c10.32,0,20.64,0,31,0a1.92,1.92,0,0,0,1.32-.2c-.1-.37-.17-.75-.29-1.12Q342,309.42,335.7,289.87c-3.12-9.55-6.31-19.07-9.42-28.61-2.17-6.65-4.26-13.33-6.4-20q-2.67-8.3-5.38-16.58-3.08-9.49-6.16-19c-2-6.24-4.09-12.47-6.11-18.71q-4.38-13.55-8.7-27.12a1.74,1.74,0,0,0-2-1.47c-11.68,0-23.36,0-35,0-1.15,0-2.5-.42-3.42.17s-.91,2.13-1.27,3.25q-6.08,18.92-12.15,37.85-4.92,15.36-9.83,30.73l-11.59,36.2q-9.6,30-19.21,59.95A17.87,17.87,0,0,0,197.93,330ZM57.79,322.1a5,5,0,0,0,.48.33c1,.52,2,1.07,3,1.54,10.93,5,22.49,7.47,34.4,8.47a105.81,105.81,0,0,0,22-.43,73.61,73.61,0,0,0,25.38-7.52c10.46-5.48,18.35-13.4,22.85-24.44A50.6,50.6,0,0,0,169,274.13a41.48,41.48,0,0,0-3.76-13.2,46.42,46.42,0,0,0-11.92-15.06,74.88,74.88,0,0,0-16.08-10.47c-3-1.44-6.12-2.71-9.23-3.94-7.72-3-15.46-6-22.72-10.1a28.63,28.63,0,0,1-9.91-8.42,18.58,18.58,0,0,1-.28-20.53c3.24-4.93,8-7.75,13.48-9.4a47.49,47.49,0,0,1,16.51-1.5,72.58,72.58,0,0,1,28.37,7.29,3.24,3.24,0,0,0,1.53.58c.65-2.12,1.3-4.25,1.95-6.39,1.79-5.93,3.55-11.87,5.38-17.79a1,1,0,0,0-.63-1.38c-1.46-.64-2.89-1.36-4.37-2-10.29-4.12-21.07-5.77-32.07-6.21a90.76,90.76,0,0,0-9.46.14,87.52,87.52,0,0,0-13.23,1.77,60.48,60.48,0,0,0-22.9,10.05A45.09,45.09,0,0,0,65.4,184.24a46,46,0,0,0-4.18,28.65,40,40,0,0,0,5.91,15.2c4.6,7.1,10.9,12.38,18,16.78,7.45,4.6,15.5,7.92,23.71,10.91,6.43,2.34,12.74,5,18.35,9S137,274,137.44,281.51a27.08,27.08,0,0,1-.69,8.37c-1.51,5.82-5.37,9.84-10.47,12.74A36.71,36.71,0,0,1,110,307a75.24,75.24,0,0,1-18.46-1.23,87.5,87.5,0,0,1-25.94-9.11c-.33-.18-.64-.52-1.05-.3Zm356.68,8V206.33a2,2,0,0,0-1.34-.23c-9.6,0-19.2,0-28.79,0-1.17,0-1.47.36-1.47,1.5q.05,60.65,0,121.29c0,1.17.33,1.46,1.48,1.46,9.56,0,19.12,0,28.67,0A2.65,2.65,0,0,0,414.47,330.09Zm8.93-157.7a17.57,17.57,0,0,0-.4-4.84,28.08,28.08,0,0,0-13.85-17.82c-7.09-4-14.37-4-21.6-.31a26.82,26.82,0,0,0-11.37,11.49c-1.13,2.09-2.43,4.15-2.87,6.53a23.29,23.29,0,0,0,0,9c1,4.76,2.46,9.32,6.16,12.88,7.92,7.61,17.19,9.74,27.54,6.62C416.46,193.14,423.8,182.9,423.4,172.39Z" transform="translate(-0.07 -0.02)"/><path class="cls-1" d="M197.93,330A17.87,17.87,0,0,1,199,326.6q9.61-30,19.21-59.95l11.59-36.2q4.92-15.37,9.83-30.73,6.06-18.93,12.15-37.85c.36-1.13.28-2.62,1.27-3.25s2.26-.17,3.42-.17c11.68,0,23.36,0,35,0a1.74,1.74,0,0,1,2,1.47q4.3,13.57,8.7,27.12c2,6.24,4.08,12.47,6.11,18.71s4.11,12.65,6.16,19q2.69,8.29,5.38,16.58c2.14,6.66,4.23,13.34,6.4,20,3.11,9.55,6.3,19.07,9.42,28.61q6.38,19.54,12.69,39.09c.12.37.2.76.29,1.12a1.92,1.92,0,0,1-1.32.2c-10.32,0-20.64,0-31,0a1.46,1.46,0,0,1-1.69-1.21c-2.11-6.78-4.26-13.55-6.42-20.32-2.76-8.68-5.55-17.34-8.28-26a1.46,1.46,0,0,0-1.69-1.21q-26,0-52,0a1.45,1.45,0,0,0-1.68,1.21q-5.83,19.33-11.74,38.64c-.8,2.63-1.61,5.25-2.37,7.89a1.18,1.18,0,0,1-1.33,1q-15.18,0-30.36,0A1.09,1.09,0,0,1,197.93,330Zm73.72-146.82c-3.25,12.69-5.89,25.3-9.83,37.57s-7.72,24.58-11.61,37h44c-7.72-24.67-16.28-48.91-22.05-74C272.11,183.67,272,183.58,271.65,183.23Z" transform="translate(-0.07 -0.02)"/><path class="cls-1" d="M57.79,322.1l6.78-25.74c.41-.21.73.12,1.05.3a87.5,87.5,0,0,0,25.94,9.11A75.24,75.24,0,0,0,110,307a36.71,36.71,0,0,0,16.25-4.39c5.11-2.9,9-6.92,10.47-12.74a27.08,27.08,0,0,0,.69-8.37C137,274,133,268.9,127.22,264.79s-11.92-6.67-18.35-9c-8.21-3-16.25-6.3-23.71-10.91-7.12-4.4-13.42-9.68-18-16.78a40,40,0,0,1-5.91-15.2,46,46,0,0,1,4.18-28.65,45.09,45.09,0,0,1,14.29-16.65,60.48,60.48,0,0,1,22.9-10.05,87.52,87.52,0,0,1,13.23-1.77,90.76,90.76,0,0,1,9.46-.14c11,.44,21.78,2.09,32.07,6.21,1.48.59,2.91,1.31,4.37,2a1,1,0,0,1,.63,1.38C160.53,171.1,158.77,177,157,183c-.64,2.14-1.3,4.27-1.95,6.39a3.24,3.24,0,0,1-1.53-.58,72.58,72.58,0,0,0-28.37-7.29,47.49,47.49,0,0,0-16.51,1.5c-5.51,1.65-10.24,4.47-13.48,9.4a18.58,18.58,0,0,0,.28,20.53,28.63,28.63,0,0,0,9.91,8.42c7.26,4.09,15,7.06,22.72,10.1,3.11,1.23,6.22,2.5,9.23,3.94a74.88,74.88,0,0,1,16.08,10.47,46.42,46.42,0,0,1,11.92,15.06,41.48,41.48,0,0,1,3.76,13.2,50.6,50.6,0,0,1-3.13,25.92c-4.51,11-12.39,19-22.85,24.44A73.61,73.61,0,0,1,117.68,332a105.81,105.81,0,0,1-22,.43c-11.9-1-23.47-3.48-34.4-8.47-1-.46-2-1-3-1.54A5,5,0,0,1,57.79,322.1Z" transform="translate(-0.07 -0.02)"/><path class="cls-1" d="M414.47,330.09a2.65,2.65,0,0,1-1.42.19c-9.56,0-19.12,0-28.67,0-1.15,0-1.48-.29-1.48-1.46q0-60.65,0-121.29c0-1.14.3-1.51,1.47-1.5,9.6,0,19.2,0,28.79,0a2,2,0,0,1,1.34.23Z" transform="translate(-0.07 -0.02)"/><path class="cls-1" d="M423.4,172.39c.4,10.51-6.94,20.75-16.34,23.58-10.35,3.11-19.62,1-27.54-6.62-3.7-3.56-5.15-8.12-6.16-12.88a23.29,23.29,0,0,1,0-9c.44-2.39,1.73-4.44,2.87-6.53a26.82,26.82,0,0,1,11.37-11.49c7.22-3.7,14.51-3.71,21.6.31A28.08,28.08,0,0,1,423,167.55,17.57,17.57,0,0,1,423.4,172.39Zm-25,19.89c10.59.76,20.19-10.4,20.07-19.69-.15-10.88-9.12-20.89-18.89-20.86-12.25,0-21.5,8.88-21.59,20.52C378,182.11,386.92,192.89,398.45,192.28Z" transform="translate(-0.07 -0.02)"/><path class="cls-4" d="M271.65,183.23c.31.35.46.44.49.57,5.78,25.06,14.33,49.3,22.05,74h-44c3.88-12.39,7.66-24.71,11.61-37S268.4,195.92,271.65,183.23Z" transform="translate(-0.07 -0.02)"/><path class="cls-4" d="M398.45,192.28c-11.53.61-20.5-10.17-20.42-20,.09-11.64,9.34-20.49,21.59-20.52,9.77,0,18.74,10,18.89,20.86C418.64,181.88,409,193,398.45,192.28ZM395.29,170c1.13,0,1.41-.26,1.33-1.42a5.72,5.72,0,0,0-.58-1.94c-1.21-2.7-2.45-5.38-3.61-8.11-1.05-2.48-2.41-2.89-4.64-1.31a15.2,15.2,0,0,0-4.27,5c-.74,1.29-.61,1.85.64,2.7a42.48,42.48,0,0,0,6.45,3.69A13.19,13.19,0,0,0,395.29,170Zm3.84,20.87c.44,0,.88,0,1.32,0,2.93-.16,3.67-1.18,2.91-4a79.25,79.25,0,0,0-3.41-9.59c-.3-.73-.57-1.6-1.58-1.57s-1.28.84-1.66,1.55a2.86,2.86,0,0,0-.22.55,64.48,64.48,0,0,1-3,8,6.58,6.58,0,0,0-.5,2,2,2,0,0,0,1.64,2.52A12.68,12.68,0,0,0,399.13,190.91Zm-.32-37.86c-.92.05-1.83.1-2.75.17a2.56,2.56,0,0,0-.69.19,2.1,2.1,0,0,0-1.51,2.9c.63,2.23,1.25,4.46,1.95,6.68a35.78,35.78,0,0,0,1.91,5.3c.51,1,1.11,1,1.78.13a4.38,4.38,0,0,0,.43-.72,74.38,74.38,0,0,0,4.12-11.5,1.92,1.92,0,0,0-1.33-2.57A10.42,10.42,0,0,0,398.81,153.05Zm3.2,21.26c-.92,0-1.22.32-1.24,1a4.49,4.49,0,0,0,.44,2q2.05,4.52,4.14,9c.77,1.66,1.81,2,3.33.87a18.48,18.48,0,0,0,4.21-4.06c1.7-2.3,1.52-3.59-1-4.89a48.56,48.56,0,0,0-8.24-3.53C403.06,174.53,402.43,174.41,402,174.31Zm-21.81-2.19c.08.83.11,1.68.24,2.5.31,2,1.52,2.89,3.49,2.48a33.92,33.92,0,0,0,10.2-4.07c1.06-.62,1-1.61-.05-2.11a67.38,67.38,0,0,0-10.23-3.75c-1.69-.47-2.86.37-3.33,2.08A12,12,0,0,0,380.2,172.12Zm36.72-1a4.88,4.88,0,0,0-.86-3.35,1.84,1.84,0,0,0-2.05-.88,68.14,68.14,0,0,0-10.75,4c-.54.27-1.16.53-1.15,1.23s.67,1,1.26,1.28q2.14.92,4.3,1.82a19.18,19.18,0,0,0,5.85,1.63,2.42,2.42,0,0,0,2.86-1.77A10.3,10.3,0,0,0,416.92,171.13Zm-33.43,11c0,2.54,2.88,5.37,5.33,5.42a2,2,0,0,0,1.93-1.18q2.69-5,5.3-10.05a1.76,1.76,0,0,0,0-2.14c-.7-.68-1.53-.21-2.21.17-1.43.8-2.92,1.47-4.39,2.18a15.36,15.36,0,0,0-4.84,3.25A3.24,3.24,0,0,0,383.49,182.15Zm29.91-20.22c0-2.18-2.71-5.09-4.87-5.29a2,2,0,0,0-2.06.94c-1.92,3.45-4,6.84-5.59,10.45-.26.58-.48,1.27.07,1.8s1.13.25,1.71.1a2.9,2.9,0,0,0,.56-.2,95.28,95.28,0,0,0,8.29-4.79A3.36,3.36,0,0,0,413.41,161.93Z" transform="translate(-0.07 -0.02)"/><path class="cls-1" d="M395.29,170a13.19,13.19,0,0,1-4.67-1.43,42.48,42.48,0,0,1-6.45-3.69c-1.26-.85-1.39-1.42-.64-2.7a15.2,15.2,0,0,1,4.27-5c2.23-1.58,3.59-1.17,4.64,1.31,1.16,2.72,2.4,5.41,3.61,8.11a5.72,5.72,0,0,1,.58,1.94C396.69,169.78,396.42,170.08,395.29,170Z" transform="translate(-0.07 -0.02)"/><path class="cls-1" d="M399.13,190.91a12.68,12.68,0,0,1-4.48-.64,2,2,0,0,1-1.64-2.52,6.58,6.58,0,0,1,.5-2,64.48,64.48,0,0,0,3-8,2.86,2.86,0,0,1,.22-.55c.38-.71.72-1.52,1.66-1.55s1.28.84,1.58,1.57a79.25,79.25,0,0,1,3.41,9.59c.76,2.84,0,3.86-2.91,4C400,190.93,399.57,190.91,399.13,190.91Z" transform="translate(-0.07 -0.02)"/><path class="cls-1" d="M398.81,153.05a10.42,10.42,0,0,1,3.89.57,1.92,1.92,0,0,1,1.33,2.57,74.38,74.38,0,0,1-4.12,11.5,4.38,4.38,0,0,1-.43.72c-.67.92-1.27.9-1.78-.13a35.78,35.78,0,0,1-1.91-5.3c-.7-2.21-1.31-4.45-1.95-6.68a2.1,2.1,0,0,1,1.51-2.9,2.56,2.56,0,0,1,.69-.19C397,153.15,397.89,153.1,398.81,153.05Z" transform="translate(-0.07 -0.02)"/><path class="cls-1" d="M402,174.31c.42.1,1,.22,1.66.4a48.56,48.56,0,0,1,8.24,3.53c2.51,1.3,2.69,2.59,1,4.89a18.48,18.48,0,0,1-4.21,4.06c-1.52,1.08-2.56.79-3.33-.87q-2.09-4.5-4.14-9a4.49,4.49,0,0,1-.44-2C400.79,174.64,401.09,174.26,402,174.31Z" transform="translate(-0.07 -0.02)"/><path class="cls-1" d="M380.2,172.12a12,12,0,0,1,.32-2.86c.47-1.72,1.64-2.55,3.33-2.08a67.38,67.38,0,0,1,10.23,3.75c1.09.51,1.12,1.49.05,2.11a33.92,33.92,0,0,1-10.2,4.07c-2,.41-3.17-.51-3.49-2.48C380.31,173.8,380.28,173,380.2,172.12Z" transform="translate(-0.07 -0.02)"/><path class="cls-1" d="M416.92,171.13a10.3,10.3,0,0,1-.54,3.94,2.42,2.42,0,0,1-2.86,1.77,19.18,19.18,0,0,1-5.85-1.63q-2.15-.89-4.3-1.82c-.59-.25-1.25-.51-1.26-1.28s.61-1,1.15-1.23a68.14,68.14,0,0,1,10.75-4,1.84,1.84,0,0,1,2.05.88A4.88,4.88,0,0,1,416.92,171.13Z" transform="translate(-0.07 -0.02)"/><path class="cls-1" d="M383.49,182.15a3.24,3.24,0,0,1,1.11-2.35,15.36,15.36,0,0,1,4.84-3.25c1.47-.71,3-1.38,4.39-2.18.68-.38,1.51-.86,2.21-.17a1.76,1.76,0,0,1,0,2.14q-2.6,5.05-5.3,10.05a2,2,0,0,1-1.93,1.18C386.38,187.52,383.53,184.69,383.49,182.15Z" transform="translate(-0.07 -0.02)"/><path class="cls-1" d="M413.4,161.93a3.36,3.36,0,0,1-1.88,3,95.28,95.28,0,0,1-8.29,4.79,2.9,2.9,0,0,1-.56.2c-.58.14-1.22.37-1.71-.1s-.33-1.22-.07-1.8c1.61-3.62,3.67-7,5.59-10.45a2,2,0,0,1,2.06-.94C410.69,156.84,413.37,159.75,413.4,161.93Z" transform="translate(-0.07 -0.02)"/></g></g></svg>